<svg width="168" height="118" viewBox="0 0 168 118" fill="none" xmlns="http://www.w3.org/2000/svg">
<path d="M167.333 9C167.333 6.78986 166.455 4.67025 164.893 3.10745C163.33 1.54464 161.21 0.666668 159 0.666668H9C6.78986 0.666668 4.67024 1.54464 3.10744 3.10745C1.54464 4.67025 0.666668 6.78986 0.666668 9C0.666668 11.2101 1.54464 13.3298 3.10744 14.8926C4.67024 16.4554 6.78986 17.3333 9 17.3333H159C161.21 17.3333 163.33 16.4554 164.893 14.8926C166.455 13.3298 167.333 11.2101 167.333 9V9Z" fill="black"/>
<path d="M167.333 59.2667C167.333 57.0565 166.455 54.9369 164.893 53.3741C163.33 51.8113 161.21 50.9333 159 50.9333H9C6.78986 50.9333 4.67024 51.8113 3.10744 53.3741C1.54464 54.9369 0.666668 57.0565 0.666668 59.2667C0.666668 61.4768 1.54464 63.5964 3.10744 65.1592C4.67024 66.722 6.78986 67.6 9 67.6H159C161.21 67.6 163.33 66.722 164.893 65.1592C166.455 63.5964 167.333 61.4768 167.333 59.2667V59.2667Z" fill="black"/>
<path d="M159 101.2C161.21 101.2 163.33 102.078 164.893 103.641C166.455 105.204 167.333 107.323 167.333 109.533C167.333 111.743 166.455 113.863 164.893 115.426C163.33 116.989 161.21 117.867 159 117.867H9C6.78986 117.867 4.67024 116.989 3.10744 115.426C1.54464 113.863 0.666668 111.743 0.666668 109.533C0.666668 107.323 1.54464 105.204 3.10744 103.641C4.67024 102.078 6.78986 101.2 9 101.2H159Z" fill="black"/>
</svg>
