<svg xmlns="http://www.w3.org/2000/svg" width="28.917" height="32.123" viewBox="0 0 28.917 32.123">
  <path id="패스_96" data-name="패스 96" d="M25.932,29.836,38.318,17.177a1.607,1.607,0,0,1,2.281,0L52.985,29.852a3.213,3.213,0,0,1,.932,2.3V45.612a3.213,3.213,0,0,1-3.036,3.213H28.036A3.213,3.213,0,0,1,25,45.612V32.149a3.325,3.325,0,0,1,.932-2.313Zm16.74,15.776V35.973H36.245v9.639Zm-14.458,0h4.819V34.366a1.607,1.607,0,0,1,1.606-1.606h9.639a1.606,1.606,0,0,1,1.606,1.606V45.612H50.7V32.085L39.458,20.6,28.213,32.149Z" transform="translate(-25 -16.702)"/>
</svg>
