<svg xmlns="http://www.w3.org/2000/svg" width="16" height="16" viewBox="0 0 16 16">
  <g id="패스_95" data-name="패스 95" fill="none">
    <path d="M8,0a8,8,0,0,1,8,8,8.643,8.643,0,0,1-.276,2.092A7.913,7.913,0,0,1,8,16,8,8,0,0,1,8,0Z" stroke="none"/>
    <path d="M 8 2 C 4.691590309143066 2 2 4.691590309143066 2 8 C 2 11.30841064453125 4.691590309143066 14 8 14 C 9.362140655517578 14 10.70368957519531 13.53569984436035 11.77753067016602 12.69262981414795 C 12.80274963378906 11.88774013519287 13.51144981384277 10.80731964111328 13.77307987213135 9.650390625 L 13.77700996398926 9.633339881896973 C 13.96208000183105 8.847030639648438 14 8.411709785461426 14 8 C 14 4.691590309143066 11.30841064453125 2 8 2 M 8 0 C 12.41827964782715 0 16 3.581720352172852 16 8 C 16 8.614139556884766 15.93080043792725 9.212120056152344 15.72381973266602 10.09153938293457 C 14.98812007904053 13.34478950500488 11.80414009094238 16 8 16 C 3.581720352172852 16 0 12.41827964782715 0 8 C 0 3.581720352172852 3.581720352172852 0 8 0 Z" stroke="none" fill="#fff"/>
  </g>
  <circle id="타원_55" data-name="타원 55" cx="4" cy="4" r="4" transform="translate(4 4)" fill="#fff"/>
</svg>
