<svg xmlns="http://www.w3.org/2000/svg" width="112.392" height="92" viewBox="0 0 112.392 92">
  <g id="Group_2" data-name="Group 2" transform="translate(-0.901 -0.968)">
    <path id="패스_89" data-name="패스 89" d="M101.819,71.5,81.831,18.99S73.756,39.979,71.494,46.2c-1.563,4.318-2.712,7.548-5.482,11.417A36.988,36.988,0,0,1,50.618,69.982,35.888,35.888,0,1,1,36.7.972,34.358,34.358,0,0,1,58.895,8.65L54.029,21.475c-3.221-3.312-7.6-7.856-17.525-7.856A23.53,23.53,0,0,0,13.449,36.855,23.235,23.235,0,0,0,57.924,46.32a14.862,14.862,0,0,0,.663-1.633H30.655v-11L72.583,33.6,63.7,31.235,74.359,3.255a36.212,36.212,0,0,1,7.4-.853,35.21,35.21,0,0,1,7.389.675q12.078,31.66,24.144,63.355A38.091,38.091,0,0,1,101.819,71.5Z" transform="translate(0 0)" fill="#5b8def"/>
    <path id="패스_90" data-name="패스 90" d="M224,234.583h-7.241v4.239H224Z" transform="translate(-140.642 -152.214)" fill="#5b8def"/>
    <path id="패스_91" data-name="패스 91" d="M199.595,218.729a3.377,3.377,0,0,0,2.56-1.241,4.766,4.766,0,0,0,0-6,3.26,3.26,0,0,0-5.12,0,4.766,4.766,0,0,0,0,6,3.376,3.376,0,0,0,2.56,1.241Zm0-3.18a.843.843,0,0,0,.64-.31,1.191,1.191,0,0,0,0-1.5.815.815,0,0,0-1.28,0,1.191,1.191,0,0,0,0,1.5A.843.843,0,0,0,199.595,215.549Z" transform="translate(-127.101 -136.36)" fill="#5b8def" fill-rule="evenodd"/>
    <path id="패스_92" data-name="패스 92" d="M244.78,214.49a4.635,4.635,0,0,1-1.06,3,3.261,3.261,0,0,1-5.121,0,4.768,4.768,0,0,1,0-6,3.26,3.26,0,0,1,5.121,0A4.633,4.633,0,0,1,244.78,214.49Zm-2.715,0a1.158,1.158,0,0,1-.265.749.815.815,0,0,1-1.28,0,1.191,1.191,0,0,1,0-1.5.815.815,0,0,1,1.28,0A1.158,1.158,0,0,1,242.065,214.49Z" transform="translate(-154.183 -136.36)" fill="#5b8def" fill-rule="evenodd"/>
    <path id="패스_93" data-name="패스 93" d="M172.939,210.369a12.219,12.219,0,0,0,4.006,5.157,9.718,9.718,0,0,0,5.726,1.91h14.483c4.417,0,8.219-3.086,9.917-7.519a6.161,6.161,0,0,0,1.694-2.27,7.243,7.243,0,0,0,.609-2.929,6.724,6.724,0,0,0-2.3-5.2,12.385,12.385,0,0,0-4.009-5.477A9.755,9.755,0,0,0,197.154,192H182.671a9.72,9.72,0,0,0-5.725,1.91,12.224,12.224,0,0,0-4.006,5.157,5.888,5.888,0,0,0-2.147,2.342,7.3,7.3,0,0,0,0,6.618,5.888,5.888,0,0,0,2.147,2.342Zm9.732-14.13h14.483a7.025,7.025,0,0,1,6.014,3.752,14.811,14.811,0,0,1,0,9.454,7.781,7.781,0,0,1-2.606,2.757,6.407,6.407,0,0,1-3.408.995H182.671a6.751,6.751,0,0,1-5.12-2.483,9.534,9.534,0,0,1,0-11.991A6.751,6.751,0,0,1,182.671,196.24Z" transform="translate(-110.178 -124.469)" fill="#5b8def" fill-rule="evenodd"/>
  </g>
</svg>
