<svg xmlns="http://www.w3.org/2000/svg" width="137.001" height="113.927" viewBox="0 0 137.001 113.927">
  <path id="customer" d="M12.7,113.962C15.33,111.37,47.23,99.031,53.018,96.7c5.758-2.287,8.055-8.624,8.055-8.624s2.592,1.433,2.592-2.592-2.592,2.592-5.184-12.949c0,0-7.191-2.018-5.763-18.7h1.728s-4.32-17.838,0-23.875C58.781,23.925,60.479,19.9,70,17.013c9.5-2.882,6.048-2.307,12.949-2.012s12.664,4.03,12.664,6.037c0,0,4.32.29,6.037,2.018s4.6,9.778,4.6,11.79-1.438,15.551-2.876,18.417l1.713.559c1.438,16.689-5.753,18.712-5.753,18.712-2.592,15.541-5.184,8.919-5.184,12.949s2.592,2.592,2.592,2.592,2.3,6.332,8.055,8.624,37.688,14.672,40.285,17.258c2.592,2.643,2.3,14.717,2.3,14.717H86.219l-4.462-17.584,3.964-3.964L78.9,100.291l-6.825,6.83,3.964,3.964-4.462,17.584H10.406s-.32-12.085,2.3-14.722Z" transform="translate(-10.394 -14.748)"
  fill="#3F3D56"/>
</svg>
