<svg xmlns="http://www.w3.org/2000/svg" width="401.317" height="350" viewBox="0 0 401.317 350">
  <g id="undraw_secure_files_re_6vdh" transform="translate(0 0)">
    <path id="패스_51" data-name="패스 51" d="M743.25,564.663a4.988,4.988,0,0,1,5.4-5.415l5.269-10.109,6.924,1.7L753.2,565.014a5.016,5.016,0,0,1-9.955-.352Z" transform="translate(-425.853 -319.188)" fill="#ffb7b7"/>
    <path id="패스_52" data-name="패스 52" d="M626.773,606.974H620.93l-2.78-22.536h8.624Z" transform="translate(-277.677 -262.638)" fill="#ffb7b7"/>
    <path id="패스_53" data-name="패스 53" d="M787.817,761.092H768.977v-.238a7.333,7.333,0,0,1,7.332-7.333h11.508Z" transform="translate(-437.232 -411.092)" fill="#2f2e41"/>
    <path id="패스_54" data-name="패스 54" d="M707.819,599.67l-5.637,1.537L693.57,580.2l8.32-2.268Z" transform="translate(-311.731 -259.699)" fill="#ffb7b7"/>
    <path id="패스_55" data-name="패스 55" d="M876.4,752.275l-18.176,4.957-.063-.23a7.333,7.333,0,0,1,5.145-9h0l11.1-3.027Z" transform="translate(-477.381 -407.232)" fill="#2f2e41"/>
    <path id="패스_56" data-name="패스 56" d="M612.024,447.233l-2.915,44.259,6.261,49.656,10.255-3.13.432-44.367,8.2-25.584L658.55,536.4l11.118-4.1-9.176-44.367-5.182-41.668Z" transform="translate(-273.595 -200.249)" fill="#2f2e41"/>
    <path id="패스_57" data-name="패스 57" d="M808.765,437.806,791.5,440.353l-6.221,6.153-1.932,22.107,1.2,19.582-5,34.532s12.577-6.982,22.323,1.758,23.385,1.545,23.665-4.269Z" transform="translate(-442.001 -268.976)" fill="#cbcbcb"/>
    <path id="패스_58" data-name="패스 58" d="M816.834,465.268v-.025l8.579-27.964.111-.007c.611-.04,14.994-.887,18.211,6.214l.016.034-.977,29.06,1.346,45.513-26.6,5.762-.193.042Z" transform="translate(-458.84 -268.726)" fill="#2f2e41"/>
    <path id="패스_59" data-name="패스 59" d="M789.786,465.318l1.574-23.706c-11.193.7-11.024,8.632-11.011,8.978l-.122,35.459-2.242,37.935,8.151-.611Z" transform="translate(-441.298 -270.71)" fill="#2f2e41"/>
    <path id="패스_60" data-name="패스 60" d="M753.485,534.007l9.937-23.062,6.936-12.737,3.621,22.976-12.573,18.859Z" transform="translate(-430.236 -296.243)" fill="#2f2e41"/>
    <path id="패스_61" data-name="패스 61" d="M828.263,538.387a4.989,4.989,0,0,1,6.76-3.58l8.017-8.1,6.113,3.67L837.671,541.66a5.016,5.016,0,0,1-9.409-3.273Z" transform="translate(-463.947 -309.11)" fill="#ffb7b7"/>
    <path id="패스_62" data-name="패스 62" d="M840.651,495.916,857,477.985l-10.819-15.439L847.291,455l6.377-7.877.124.161c.68.88,16.653,21.632,17.111,29.488.46,7.885-22.5,27.831-23.477,28.676l-.136.118Z" transform="translate(-469.594 -273.25)" fill="#2f2e41"/>
    <circle id="타원_5" data-name="타원 5" cx="11.618" cy="11.618" r="11.618" transform="translate(345.181 143.388)" fill="#ffb7b7"/>
    <path id="패스_63" data-name="패스 63" d="M815.24,390.838l.563-1.134L812.97,388.3s-3.126-5.087-8.783-3.657-8.2,2.285-8.2,2.285l-2.827,1.422,1.419,1.412-2.545.856,1.7.845-1.978,1.137,1.065,5.829s1.769-4.421,5.17-2.732,9.621-.873,9.621-.873l5.4,10.459s1.115-3.666,3.1-2.689C816.115,402.591,821.194,394.5,815.24,390.838Z" transform="translate(-447.515 -245.14)" fill="#2f2e41"/>
    <path id="패스_64" data-name="패스 64" d="M401.58,342.416,224.914,391.139,166.738,180.194,343.4,131.472Z" transform="translate(-166.738 -131.472)" fill="#fff"/>
    <path id="패스_65" data-name="패스 65" d="M401.58,342.416,224.914,391.139,166.738,180.194,343.4,131.472Zm-174.41,44.746,170.434-47L341.148,135.448l-170.434,47Z" transform="translate(-166.738 -131.472)" fill="#f1f1f1"/>
    <path id="패스_66" data-name="패스 66" d="M369.687,263.358,325.4,275.571a2.446,2.446,0,0,1-3.005-1.706L310.184,229.58a2.446,2.446,0,0,1,1.706-3.005l44.285-12.213a2.446,2.446,0,0,1,3.005,1.706l12.213,44.285A2.446,2.446,0,0,1,369.687,263.358Zm-57.537-35.84a1.468,1.468,0,0,0-1.024,1.8l12.213,44.285a1.468,1.468,0,0,0,1.8,1.024l44.285-12.213a1.468,1.468,0,0,0,1.024-1.8l-12.213-44.285a1.468,1.468,0,0,0-1.8-1.024Z" transform="translate(-231.135 -168.859)" fill="#e5e5e5"/>
    <path id="패스_67" data-name="패스 67" d="M349.475,280.027,305.19,292.24a2.2,2.2,0,0,1-2.7-1.535L290.272,246.42a2.2,2.2,0,0,1,1.535-2.7L336.092,231.5a2.2,2.2,0,0,1,2.7,1.535l12.213,44.285a2.2,2.2,0,0,1-1.535,2.7Z" transform="translate(-222.195 -176.364)" fill="#5b8def"/>
    <rect id="사각형_44" data-name="사각형 44" width="128.195" height="4.954" transform="translate(54.714 143.994) rotate(-15.418)" fill="#f1f1f1"/>
    <rect id="사각형_45" data-name="사각형 45" width="128.195" height="4.954" transform="translate(58.148 156.495) rotate(-15.418)" fill="#f1f1f1"/>
    <rect id="사각형_46" data-name="사각형 46" width="128.195" height="4.954" transform="translate(61.902 168.996) rotate(-15.418)" fill="#f1f1f1"/>
    <rect id="사각형_47" data-name="사각형 47" width="128.195" height="4.954" transform="translate(67.977 191) rotate(-15.418)" fill="#f1f1f1"/>
    <rect id="사각형_48" data-name="사각형 48" width="128.195" height="4.954" transform="translate(71.429 203.501) rotate(-15.418)" fill="#f1f1f1"/>
    <rect id="사각형_49" data-name="사각형 49" width="128.195" height="4.954" transform="translate(74.881 216.003) rotate(-15.418)" fill="#f1f1f1"/>
    <path id="패스_68" data-name="패스 68" d="M547.149,423.48H363.887V204.661H547.149Z" transform="translate(-255.041 -164.518)" fill="#fff"/>
    <path id="패스_69" data-name="패스 69" d="M547.149,423.48H363.887V204.661H547.149Zm-180.03-3.233h176.8V207.894H367.12Z" transform="translate(-255.041 -164.518)" fill="#e5e5e5"/>
    <rect id="사각형_50" data-name="사각형 50" width="104.778" height="4.954" transform="translate(153.992 134.697)" fill="#5b8def"/>
    <rect id="사각형_51" data-name="사각형 51" width="104.778" height="4.954" transform="translate(153.992 147.624)" fill="#5b8def"/>
    <rect id="사각형_52" data-name="사각형 52" width="104.778" height="4.954" transform="translate(153.992 160.55)" fill="#5b8def"/>
    <circle id="타원_6" data-name="타원 6" cx="3.233" cy="3.233" r="3.233" transform="translate(142.012 134.669)" fill="#5b8def"/>
    <rect id="사각형_53" data-name="사각형 53" width="104.778" height="4.954" transform="translate(153.992 78.995)" fill="#e5e5e5"/>
    <rect id="사각형_54" data-name="사각형 54" width="104.778" height="4.954" transform="translate(153.992 91.922)" fill="#e5e5e5"/>
    <rect id="사각형_55" data-name="사각형 55" width="104.778" height="4.954" transform="translate(153.992 104.849)" fill="#e5e5e5"/>
    <circle id="타원_7" data-name="타원 7" cx="3.233" cy="3.233" r="3.233" transform="translate(142.012 78.425)" fill="#e5e5e5"/>
    <rect id="사각형_56" data-name="사각형 56" width="104.778" height="4.954" transform="translate(153.992 190.94)" fill="#e5e5e5"/>
    <rect id="사각형_57" data-name="사각형 57" width="104.778" height="4.954" transform="translate(153.992 203.866)" fill="#e5e5e5"/>
    <rect id="사각형_58" data-name="사각형 58" width="104.778" height="4.954" transform="translate(153.992 216.793)" fill="#e5e5e5"/>
    <circle id="타원_8" data-name="타원 8" cx="3.233" cy="3.233" r="3.233" transform="translate(142.012 190.371)" fill="#e5e5e5"/>
    <circle id="타원_9" data-name="타원 9" cx="37.458" cy="37.458" r="37.458" transform="translate(246.46 203.813)" fill="#5b8def"/>
    <path id="패스_70" data-name="패스 70" d="M680.007,550.877V543.71a10.378,10.378,0,0,0-20.756,0v7.167a5.4,5.4,0,0,0-5.153,5.388V573.2H685.16V556.265A5.4,5.4,0,0,0,680.007,550.877Zm-10.378-13.891a6.731,6.731,0,0,1,6.723,6.724v7.155H662.906V543.71a6.732,6.732,0,0,1,6.723-6.724Z" transform="translate(-385.755 -312.03)" fill="#fff"/>
    <path id="패스_71" data-name="패스 71" d="M682.909,578.269a2.792,2.792,0,1,0-4.363,2.307v6.069h3.141v-6.069a2.789,2.789,0,0,0,1.222-2.307Z" transform="translate(-396.263 -331.049)" fill="#5b8def"/>
  </g>
</svg>
