<svg xmlns="http://www.w3.org/2000/svg" width="161.468" height="135" viewBox="0 0 161.468 135">
  <g id="_3-2" data-name="3-2" transform="translate(0 0)">
    <ellipse id="타원_40" data-name="타원 40" cx="63.529" cy="3.307" rx="63.529" ry="3.307" transform="translate(12.244 128.386)" fill="#f2f2f2"/>
    <path id="패스_337" data-name="패스 337" d="M482.43,108.724H481.7V88.885A11.566,11.566,0,0,0,470.048,77.4H427.408A11.566,11.566,0,0,0,415.76,88.885V197.721A11.566,11.566,0,0,0,427.408,209.2h42.639A11.566,11.566,0,0,0,481.7,197.721V122.845h.735Z" transform="translate(-368.863 -77.403)" fill="#3f3d56"/>
    <path id="패스_338" data-name="패스 338" d="M493.5,102.466v108.6a8.635,8.635,0,0,1-8.7,8.569H441.955a8.635,8.635,0,0,1-8.7-8.569v-108.6a8.635,8.635,0,0,1,8.7-8.569h5.2a4.021,4.021,0,0,0,.4,3.807,4.152,4.152,0,0,0,3.429,1.8h24.427a4.152,4.152,0,0,0,3.429-1.8,4.021,4.021,0,0,0,.4-3.807H484.8a8.635,8.635,0,0,1,8.7,8.569Z" transform="translate(-383.145 -90.866)" fill="#fff"/>
    <path id="패스_339" data-name="패스 339" d="M615.544,381.114q-.427.223-.869.423-.4.182-.818.342l-.307.116a16.453,16.453,0,0,1-2.5.689q-.631.124-1.279.195-.535.061-1.08.086c-.259.013-.518.018-.779.018a16.5,16.5,0,0,1-3.079-.288c-.265-.048-.524-.1-.783-.167a16.31,16.31,0,0,1-3.614-1.334c-.1-.051-.206-.107-.309-.16-.153-.081-.3-.165-.45-.254.072-.1.149-.2.228-.292a9.743,9.743,0,0,1,14.49-.753,9.971,9.971,0,0,1,.93,1.077C615.4,380.91,615.474,381.011,615.544,381.114Z" transform="translate(-519.126 -322.648)" fill="#5b8def"/>
    <circle id="타원_41" data-name="타원 41" cx="8.067" cy="8.067" r="8.067" transform="translate(81.077 34.51)" fill="#2f2e41"/>
    <circle id="타원_42" data-name="타원 42" cx="6.004" cy="6.004" r="6.004" transform="translate(80.272 42.955) rotate(-28.663)" fill="#a0616a"/>
    <path id="패스_340" data-name="패스 340" d="M624.822,292.621a8.166,8.166,0,0,1-4.667,1.442,5,5,0,0,0,1.983.816,16.467,16.467,0,0,1-6.726.038,4.352,4.352,0,0,1-1.408-.484,1.782,1.782,0,0,1-.869-1.162,2.4,2.4,0,0,1,1.192-2.125,8.793,8.793,0,0,1,7.389-1.476,4.047,4.047,0,0,1,2.188,1.237,1.993,1.993,0,0,1,.184,2.367Z" transform="translate(-530.095 -251.023)" fill="#2f2e41"/>
    <path id="패스_341" data-name="패스 341" d="M571.027,230.173a16.532,16.532,0,0,0-8.605,30.65l.107.062q.132.08.265.154c.149.088.3.173.45.254.1.053.206.108.309.16a16.31,16.31,0,0,0,3.614,1.334c.259.062.518.119.783.167a16.5,16.5,0,0,0,3.079.288c.261,0,.52-.005.779-.018q.546-.025,1.08-.086.648-.072,1.279-.195a16.445,16.445,0,0,0,2.5-.689l.307-.116q.416-.16.818-.342.441-.2.869-.423a16.68,16.68,0,0,0,6.8-6.608c.007-.015.017-.029.024-.044a16.536,16.536,0,0,0-14.459-24.549Zm14.158,24.334c-.015.026-.027.051-.042.075a16.2,16.2,0,0,1-6.7,6.489q-.422.221-.858.413c-.241.108-.487.211-.735.307-.1.04-.211.081-.318.118a15.745,15.745,0,0,1-2.155.617,15.549,15.549,0,0,1-1.644.259c-.34.037-.685.062-1.033.075-.222.009-.446.015-.671.015a15.942,15.942,0,0,1-2.98-.277,15.731,15.731,0,0,1-1.769-.434,16.246,16.246,0,0,1-2.57-1.042c-.1-.05-.191-.1-.285-.151-.134-.072-.27-.145-.4-.224-.1-.055-.2-.114-.3-.173-.057-.033-.114-.068-.171-.1a16.18,16.18,0,1,1,22.631-5.965Z" transform="translate(-482.26 -202.621)" fill="#3f3d56"/>
    <path id="패스_342" data-name="패스 342" d="M607.508,263.223a1.616,1.616,0,0,0-2.079-1.2,2.615,2.615,0,0,0-1.622,2.056,2.951,2.951,0,0,0,.4,2.227,2.03,2.03,0,0,0,2.012.872,2.333,2.333,0,0,0,1.635-1.9,6.857,6.857,0,0,0-.169-2.629Z" transform="translate(-522.357 -228.539)" fill="#2f2e41"/>
    <path id="패스_343" data-name="패스 343" d="M674.49,270.32a1.616,1.616,0,0,0-2.079-1.2,2.615,2.615,0,0,0-1.622,2.056,2.95,2.95,0,0,0,.4,2.227,2.03,2.03,0,0,0,2.012.872,2.333,2.333,0,0,0,1.635-1.9,6.857,6.857,0,0,0-.169-2.629Z" transform="translate(-577.209 -234.351)" fill="#2f2e41"/>
    <path id="패스_344" data-name="패스 344" d="M215.823,207.476a.822.822,0,0,1-.607-.269l-9.117-9.945a1.106,1.106,0,0,0-.813-.358H157.11a2.761,2.761,0,0,1-2.758-2.758V176.773a2.761,2.761,0,0,1,2.758-2.758h62.415a2.761,2.761,0,0,1,2.757,2.758v17.373a2.761,2.761,0,0,1-2.757,2.758h-1.769a1.1,1.1,0,0,0-1.1,1.1v8.641a.822.822,0,0,1-.527.771A.832.832,0,0,1,215.823,207.476Z" transform="translate(-154.353 -156.266)" fill="#fff"/>
    <path id="패스_345" data-name="패스 345" d="M215.823,207.476a.822.822,0,0,1-.607-.269l-9.117-9.945a1.106,1.106,0,0,0-.813-.358H157.11a2.761,2.761,0,0,1-2.758-2.758V176.773a2.761,2.761,0,0,1,2.758-2.758h62.415a2.761,2.761,0,0,1,2.757,2.758v17.373a2.761,2.761,0,0,1-2.757,2.758h-1.769a1.1,1.1,0,0,0-1.1,1.1v8.641a.822.822,0,0,1-.527.771A.832.832,0,0,1,215.823,207.476ZM157.11,174.383a2.393,2.393,0,0,0-2.39,2.39v17.373a2.393,2.393,0,0,0,2.39,2.39h48.175a1.474,1.474,0,0,1,1.084.477l9.117,9.945a.46.46,0,0,0,.8-.311v-8.641a1.472,1.472,0,0,1,1.471-1.471h1.77a2.393,2.393,0,0,0,2.39-2.39V176.773a2.393,2.393,0,0,0-2.39-2.39Z" transform="translate(-154.353 -156.266)" fill="#3f3d56"/>
    <circle id="타원_43" data-name="타원 43" cx="2.413" cy="2.413" r="2.413" transform="translate(4.351 20.588)" fill="#5b8def"/>
    <path id="패스_346" data-name="패스 346" d="M235.751,263.833H178.966a1.287,1.287,0,1,1,0-2.574h56.784a1.287,1.287,0,1,1,0,2.574Z" transform="translate(-173.394 -227.961)" fill="#e6e6e6"/>
    <path id="패스_347" data-name="패스 347" d="M217.252,234.064H178.966a1.287,1.287,0,1,1,0-2.574h38.285a1.287,1.287,0,1,1,0,2.574Z" transform="translate(-173.394 -203.583)" fill="#e6e6e6"/>
    <path id="패스_348" data-name="패스 348" d="M682.061,528.419a.822.822,0,0,1-.527-.771v-8.641a1.1,1.1,0,0,0-1.1-1.1h-1.769a2.761,2.761,0,0,1-2.758-2.758V497.773a2.761,2.761,0,0,1,2.758-2.757h62.415a2.761,2.761,0,0,1,2.758,2.758v17.373a2.761,2.761,0,0,1-2.758,2.758H692.9a1.106,1.106,0,0,0-.813.358l-9.117,9.945a.823.823,0,0,1-.608.269A.834.834,0,0,1,682.061,528.419Z" transform="translate(-582.365 -419.706)" fill="#fff"/>
    <path id="패스_349" data-name="패스 349" d="M682.061,528.419a.822.822,0,0,1-.527-.771v-8.641a1.1,1.1,0,0,0-1.1-1.1h-1.769a2.761,2.761,0,0,1-2.758-2.758V497.773a2.761,2.761,0,0,1,2.758-2.757h62.415a2.761,2.761,0,0,1,2.758,2.758v17.373a2.761,2.761,0,0,1-2.758,2.758H692.9a1.106,1.106,0,0,0-.813.358l-9.117,9.945a.823.823,0,0,1-.608.269A.834.834,0,0,1,682.061,528.419Zm-3.4-33.036a2.393,2.393,0,0,0-2.39,2.39v17.373a2.393,2.393,0,0,0,2.39,2.39h1.77a1.472,1.472,0,0,1,1.471,1.471v8.641a.46.46,0,0,0,.8.311l9.117-9.945a1.474,1.474,0,0,1,1.084-.477h48.175a2.393,2.393,0,0,0,2.39-2.39V497.773a2.393,2.393,0,0,0-2.39-2.39Z" transform="translate(-582.365 -419.706)" fill="#3f3d56"/>
    <path id="패스_350" data-name="패스 350" d="M527.085,684.155a16.364,16.364,0,0,1-17.206.274,9.944,9.944,0,0,1,1.727-2.324,9.817,9.817,0,0,1,15.416,1.942C527.043,684.081,527.065,684.118,527.085,684.155Z" transform="translate(-445.579 -570.555)" fill="#5b8def"/>
    <circle id="타원_44" data-name="타원 44" cx="8.121" cy="8.121" r="8.121" transform="translate(64.075 89.05)" fill="#2f2e41"/>
    <circle id="타원_45" data-name="타원 45" cx="6.044" cy="6.044" r="6.044" transform="translate(64.721 102.359) rotate(-61.337)" fill="#ffb8b8"/>
    <path id="패스_351" data-name="패스 351" d="M522.25,594.416a8.22,8.22,0,0,0,4.7,1.452,5.037,5.037,0,0,1-2,.821,16.575,16.575,0,0,0,6.771.038,4.38,4.38,0,0,0,1.417-.487,1.794,1.794,0,0,0,.875-1.17,2.418,2.418,0,0,0-1.2-2.139,8.851,8.851,0,0,0-7.438-1.486,4.074,4.074,0,0,0-2.2,1.245,2.007,2.007,0,0,0-.185,2.383Z" transform="translate(-455.674 -498.161)" fill="#2f2e41"/>
    <path id="패스_352" data-name="패스 352" d="M482.074,574.277A16.53,16.53,0,1,1,491,571.665,16.53,16.53,0,0,1,482.074,574.277Zm0-32.7a16.169,16.169,0,1,0,16.167,16.168A16.169,16.169,0,0,0,482.074,541.575Z" transform="translate(-409.373 -457.91)" fill="#3f3d56"/>
    <circle id="타원_46" data-name="타원 46" cx="2.413" cy="2.413" r="2.413" transform="translate(99.719 78.232)" fill="#5b8def"/>
    <path id="패스_353" data-name="패스 353" d="M762.75,583.833H705.966a1.287,1.287,0,0,1,0-2.574h56.784a1.287,1.287,0,1,1,0,2.574Z" transform="translate(-605.854 -490.005)" fill="#e6e6e6"/>
    <path id="패스_354" data-name="패스 354" d="M744.252,554.065H705.966a1.287,1.287,0,0,1,0-2.574h38.285a1.287,1.287,0,0,1,0,2.574Z" transform="translate(-605.854 -465.628)" fill="#e6e6e6"/>
    <ellipse id="타원_47" data-name="타원 47" cx="4.502" cy="0.5" rx="4.502" ry="0.5" transform="translate(95.962 107.891)" fill="#f2f2f2"/>
    <ellipse id="타원_48" data-name="타원 48" cx="4.502" cy="0.5" rx="4.502" ry="0.5" transform="translate(56.32 51.253)" fill="#f2f2f2"/>
  </g>
</svg>
