<svg xmlns="http://www.w3.org/2000/svg" width="141.294" height="164.801" viewBox="0 0 141.294 164.801">
  <g id="undraw_authentication_re_svpt_1_" data-name="undraw_authentication_re_svpt (1)" transform="translate(0 0)">
    <path id="패스_41" data-name="패스 41" d="M465.115,193.94H332.836a4.451,4.451,0,0,1-4.446-4.446v-51.85a4.451,4.451,0,0,1,4.446-4.446h132.28a4.451,4.451,0,0,1,4.446,4.446v51.85a4.451,4.451,0,0,1-4.446,4.446Z" transform="translate(-328.39 -133.199)" fill="#f2f2f2"/>
    <path id="패스_42" data-name="패스 42" d="M442.333,199.177H361.9a22.633,22.633,0,0,1-22.607-22.607v-9.854A22.633,22.633,0,0,1,361.9,144.109h90.286a22.633,22.633,0,0,1,22.607,22.607,32.5,32.5,0,0,1-32.461,32.461Z" transform="translate(-336.458 -141.272)" fill="#fff"/>
    <path id="패스_43" data-name="패스 43" d="M501.172,194.652H448.006a1.147,1.147,0,1,1,0-2.293h53.166a1.147,1.147,0,1,1,0,2.293Z" transform="translate(-416.045 -176.972)" fill="#e6e6e6"/>
    <path id="패스_44" data-name="패스 44" d="M528.086,241.683h-80.08a1.147,1.147,0,1,1,0-2.293h80.08a1.147,1.147,0,0,1,0,2.293Z" transform="translate(-416.045 -211.77)" fill="#e6e6e6"/>
    <path id="패스_45" data-name="패스 45" d="M528.086,288.714h-80.08a1.147,1.147,0,1,1,0-2.293h80.08a1.147,1.147,0,1,1,0,2.293Z" transform="translate(-416.045 -246.568)" fill="#e6e6e6"/>
    <path id="패스_46" data-name="패스 46" d="M528.086,288.714h-80.08a1.147,1.147,0,1,1,0-2.293h80.08a1.147,1.147,0,1,1,0,2.293Z" transform="translate(-416.045 -246.568)" fill="#e6e6e6"/>
    <path id="패스_47" data-name="패스 47" d="M634.1,246.549a2.364,2.364,0,0,0,2.863,2.223l4.372,7.173L643.193,252l-4.437-6.206a2.377,2.377,0,0,0-4.659.759Z" transform="translate(-554.581 -215.232)" fill="#ffb6b6"/>
    <path id="패스_48" data-name="패스 48" d="M678.583,282.656l-15.068-8.173-4.753-4.459s-2.066-.553-1.306-1.225-1.407-1.32-1.407-1.32l-2.551-2.394-3.626,2.565,1.049,1.626s-.072,2.693,1.4,2.175,1.106,1.715,1.106,1.715l8.8,13.648Z" transform="translate(-566.255 -230.782)" fill="#3f3d56"/>
    <circle id="타원_5" data-name="타원 5" cx="14.718" cy="14.718" r="14.718" transform="translate(53.13 14.738)" fill="#f1d000"/>
    <path id="패스_49" data-name="패스 49" d="M419.2,578.023h-3.06l-1.456-11.8H419.2Z" transform="translate(-306.821 -418.945)" fill="#ffb6b6"/>
    <path id="패스_50" data-name="패스 50" d="M736.153,743.31h-2.195l-.392-2.072-1,2.072h-5.82a1.308,1.308,0,0,1-.744-2.385l4.648-3.21V735.62l4.889.292Z" transform="translate(-622.162 -578.93)" fill="#2f2e41"/>
    <path id="패스_51" data-name="패스 51" d="M325.094,578.023h-3.06l-1.456-11.8h4.517Z" transform="translate(-237.195 -418.945)" fill="#ffb6b6"/>
    <path id="패스_52" data-name="패스 52" d="M642.051,743.31h-2.195l-.392-2.072-1,2.072H632.64a1.308,1.308,0,0,1-.744-2.385l4.648-3.21V735.62l4.889.292Z" transform="translate(-552.536 -578.93)" fill="#2f2e41"/>
    <rect id="사각형_15" data-name="사각형 15" width="15.446" height="17.585" transform="translate(93.682 69.806)" fill="#ffb6b6"/>
    <path id="패스_53" data-name="패스 53" d="M630.449,434.927l-2.614,3.089-4.515,9.505L611.944,474.59l-2.406,5.725,1.943,10.12s.314,7.13.314,8.3a4.753,4.753,0,0,0,1.988,3.693l1.458,7.594,14.139-.594s-.493-8.371-3.455-10.483-4.323-13.117-4.323-13.117l-1.609-4.883,15.684-18.591.1,6.5.049,3.146s-2.3,20.459.38,24.429.055,3.5.055,3.5l.128,8.19,16.753.119-3.7-23.58s-1.877-1.482-.873-2.971-.973-3.314-.973-3.314l.887-18.408s-.982-3.18.173-3.593.152-3.148.152-3.148l.172-3.563-3.446-11.05Z" transform="translate(-536.411 -356.448)" fill="#2f2e41"/>
    <path id="패스_54" data-name="패스 54" d="M694,325.2l1.663-4.99,1.188-1.663.475-4.753c0-12.832-2.862-10.7-2.862-10.7l-1.653-4.513-7.6-.238-4.872,4.634L676.3,304.4l-1.582,8.22,2.889,8.771.713,4.753c-1.36,2.511-1.245,1.323-.119,3.208l13.426,3.683c4.753,1.663,4.753-2.614,3.8-3.683S694,325.2,694,325.2Z" transform="translate(-584.638 -255.389)" fill="#3f3d56"/>
    <circle id="타원_6" data-name="타원 6" cx="7.049" cy="7.049" r="7.049" transform="translate(96.344 27.26)" fill="#ffb6b6"/>
    <path id="패스_55" data-name="패스 55" d="M699.506,307.834" transform="translate(-602.979 -262.412)" fill="#2f2e41"/>
    <path id="패스_56" data-name="패스 56" d="M710.42,250.219a.866.866,0,0,1-.482,1.267c-.946.314-1.528,1.229-2.208,1.96s-1.768,1.335-2.633.839-.922-1.756-1.644-2.44a2.289,2.289,0,0,0-2.7-.078l-.025.015a.872.872,0,0,1-1.334-.887l.869-4.622a15.544,15.544,0,0,1-3.253,4.919,3.578,3.578,0,0,1-1.412.993c-.494.157-.974-.354-1.454-.261,1.193-1.043,5.2-7.73,4.487-12.2l-2.531.285a2.327,2.327,0,0,0-.566-1.067,2.734,2.734,0,0,1-.145,1.148l-1.057.119a2.273,2.273,0,0,1-1.442-.154c-.7-.428-.722-1.44-.523-2.239a8.241,8.241,0,0,1,4.527-5.28c2.17-1.015,2.811,1.245,5.1.523,4.515-1.426,7.975,1.012,9.194,5.537C712.209,242.389,711.465,246.417,710.42,250.219Z" transform="translate(-597.615 -206.5)" fill="#2f2e41"/>
    <path id="패스_57" data-name="패스 57" d="M806.266,739.626h-8.632l-.037-.067c-.11-.2-.217-.412-.317-.63a23.764,23.764,0,0,1-1.6-6l-.25-1.448a.894.894,0,0,1,1.407-.875q1.968,1.432,3.937,2.861c.5.362,1.065.78,1.609,1.233.052-.255.107-.51.162-.762a.895.895,0,0,1,1.634-.282l1.01,1.623a5.914,5.914,0,0,1,1.254,3.612.2.2,0,0,1,0,.046,2.849,2.849,0,0,1-.147.606Z" transform="translate(-673.946 -575.093)" fill="#f0f0f0"/>
    <path id="패스_58" data-name="패스 58" d="M636.211,764.731l-82.025.08a.31.31,0,0,1,0-.619l82.025-.08a.31.31,0,0,1,0,.619Z" transform="translate(-495.227 -600.011)" fill="#cacaca"/>
    <path id="패스_59" data-name="패스 59" d="M556.9,287.7l-9.022-7.619a1.526,1.526,0,0,1-.181-2.148l1.661-1.966a1.526,1.526,0,0,1,2.148-.181l9.022,7.619a1.526,1.526,0,0,1,.181,2.148l-1.661,1.966a1.526,1.526,0,0,1-2.148.181Z" transform="translate(-490.389 -238.43)" fill="#3f3d56"/>
    <path id="패스_60" data-name="패스 60" d="M550.684,279.247a.822.822,0,0,0,.1,1.157l9.022,7.619a.822.822,0,0,0,1.157-.1l1.661-1.966a.822.822,0,0,0-.1-1.157l-9.022-7.619a.822.822,0,0,0-1.157.1Z" transform="translate(-492.722 -239.59)" fill="#fff"/>
    <path id="패스_61" data-name="패스 61" d="M565.776,287.335a.347.347,0,0,1-.274.145l-1.418.033a.347.347,0,0,1-.016-.694L565,286.8l-.913-2.41a.347.347,0,1,1,.649-.246l1.087,2.868a.347.347,0,0,1-.037.317Z" transform="translate(-502.517 -244.716)" fill="#f1d000"/>
    <path id="패스_62" data-name="패스 62" d="M564.509,299.305a2.364,2.364,0,0,1,1.9,3.088l6.655,5.126-4.128,1.421-5.687-5.086a2.377,2.377,0,0,1,1.261-4.549Z" transform="translate(-501.069 -256.081)" fill="#ffb6b6"/>
    <path id="패스_63" data-name="패스 63" d="M611.747,309.129l-17.039,10.476s-6.87-2.542-5.527-3.719-2.932-1.972-2.932-1.972l-4.722-3.177-2.74,3.184s.5,5.172,1.349,4.277,2.119,1.551,2.119,1.551.375,2.732,2.793,2.044,8.906,6.518,8.906,6.518l20.97-7.821Z" transform="translate(-513.659 -263.37)" fill="#3f3d56"/>
    <path id="패스_64" data-name="패스 64" d="M574.758,235.276a1.272,1.272,0,0,1-1.018-.509l-3.121-4.161a1.272,1.272,0,1,1,2.036-1.527L574.7,231.8l5.244-7.865a1.272,1.272,0,1,1,2.117,1.412l-6.241,9.362a1.273,1.273,0,0,1-1.023.566Z" transform="translate(-507.428 -199.916)" fill="#fff"/>
  </g>
</svg>
