<svg xmlns="http://www.w3.org/2000/svg" width="275" height="143.901" viewBox="0 0 275 143.901">
  <g id="undraw_reviewed_docs_re_9lmr" transform="translate(0 0)">
    <g id="Group_14" data-name="Group 14" transform="translate(224.006 0)">
      <path id="Path_284" data-name="Path 284" d="M985.512,403.754a3.335,3.335,0,0,1-.881-5.037L981.154,373.3l7.243.356,1.137,24.79a3.353,3.353,0,0,1-4.022,5.307Z" transform="translate(-942.281 -326.581)" fill="#a0616a"/>
      <path id="Path_285" data-name="Path 285" d="M975.473,338.007a1.361,1.361,0,0,1-.553.391l-6.509,2.484a1.367,1.367,0,0,1-1.737-.722L960.908,327.2a5.414,5.414,0,0,1-.265-3.832,5.266,5.266,0,0,1,4.008-3.593,5.022,5.022,0,0,1,2.164.031,5.246,5.246,0,0,1,3.77,3.277l5.127,13.553A1.37,1.37,0,0,1,975.473,338.007Z" transform="translate(-928.362 -290.594)" fill="#ccc"/>
      <path id="Path_286" data-name="Path 286" d="M890.559,618.858h-4.5L884.422,601.4l6.137.082Z" transform="translate(-877.369 -479.651)" fill="#a0616a"/>
      <path id="Path_287" data-name="Path 287" d="M868.451,650.551h8.684v5.469H862.981a5.469,5.469,0,0,1,5.469-5.469Z" transform="translate(-862.981 -512.63)" fill="#2f2e41"/>
      <path id="Path_288" data-name="Path 288" d="M953.175,619.026h-4.5l-2.142-17.371h6.647Z" transform="translate(-919.046 -479.818)" fill="#a0616a"/>
      <path id="Path_289" data-name="Path 289" d="M932.1,650.551h8.684v5.469H926.635a5.469,5.469,0,0,1,5.469-5.469Z" transform="translate(-905.696 -512.63)" fill="#2f2e41"/>
      <path id="Path_290" data-name="Path 290" d="M909.356,503.912l-7.072-.524a1.655,1.655,0,0,1-1.531-1.568l-1.577-32.595a1.286,1.286,0,0,0-2.544-.2l-6.579,32.109a1.655,1.655,0,0,1-1.751,1.316l-6.394-.512a1.653,1.653,0,0,1-1.516-1.779c0-.011,0-.022,0-.033l5.932-59.317a1.653,1.653,0,0,1,2-1.451l22.557,4.9a1.657,1.657,0,0,1,1.3,1.645l-1.05,56.385a1.654,1.654,0,0,1-1.649,1.622Q909.419,503.916,909.356,503.912Z" transform="translate(-874.661 -370.885)" fill="#2f2e41"/>
      <circle id="Ellipse_40" data-name="Ellipse 40" cx="9.022" cy="9.022" r="9.022" transform="translate(19.485 2.286)" fill="#a0616a"/>
      <path id="Path_291" data-name="Path 291" d="M901.617,353.043a8.067,8.067,0,0,1-2.679-6.2c0-12.968,11.225-41.941,11.576-42.843.033-.218.329-.312,1.884-1.362s3.8-1.212,6.663-.48a1.645,1.645,0,0,1,1.194,1.219l.533.77a1.283,1.283,0,0,0,.747.884c2.312.974,9.66,5.465,7.156,22.368-2.326,15.7-3.27,24.934-3.568,28.177a1.65,1.65,0,0,1-1.5,1.493c-1.134.1-3.079.237-5.395.237C912.86,357.31,905.492,356.586,901.617,353.043Z" transform="translate(-887.108 -278.541)" fill="#ccc"/>
      <path id="Path_292" data-name="Path 292" d="M873.617,386.612a3.335,3.335,0,0,1,2.075-4.673L886.968,358.9l5.816,4.331-12.869,21.219a3.353,3.353,0,0,1-6.3,2.165Z" transform="translate(-869.89 -316.914)" fill="#a0616a"/>
      <path id="Path_293" data-name="Path 293" d="M917.118,330.586a1.361,1.361,0,0,1-.677.017l-6.789-1.564a1.367,1.367,0,0,1-1.04-1.567l2.434-13.973a5.414,5.414,0,0,1,1.915-3.33,5.267,5.267,0,0,1,5.331-.75,5.023,5.023,0,0,1,1.78,1.231,5.246,5.246,0,0,1,1.3,4.822l-3.3,14.109A1.37,1.37,0,0,1,917.118,330.586Z" transform="translate(-893.588 -283.438)" fill="#ccc"/>
      <path id="Path_294" data-name="Path 294" d="M924.672,250.73a3.888,3.888,0,0,1-1.043-3.448c.314-1.645.5-2.722.535-3.114h0c.12-1.34-1.235-2.425-2.575-2.6-.052-.007-.1-.011-.132-.014.033.033.071.068.1.1.255.239.571.537.5.844-.045.185-.214.316-.517.4a4.376,4.376,0,0,1-5.081-1.7,4.051,4.051,0,0,1-.773-1.689,6.708,6.708,0,0,1,2-5.758,6.966,6.966,0,0,1,4.553-2.48,4,4,0,0,1,3.947,2.415,3,3,0,0,1,2.335-1.316,5.386,5.386,0,0,1,3,.834,9.994,9.994,0,0,1-3.539,18.609,3.817,3.817,0,0,1-.637.054,3.717,3.717,0,0,1-2.673-1.14Z" transform="translate(-898.277 -231.269)" fill="#2f2e41"/>
    </g>
    <path id="Path_336" data-name="Path 336" d="M442.855,423.719a2.5,2.5,0,0,0-2.286-1.53H394.936a2.475,2.475,0,0,0-2.474,2.474v57.73a2.475,2.475,0,0,0,2.474,2.474H440.57a2.477,2.477,0,0,0,2.474-2.474v-57.73a2.43,2.43,0,0,0-.187-.944Zm-.362,58.674a1.927,1.927,0,0,1-1.924,1.924H394.936a1.925,1.925,0,0,1-1.924-1.924v-57.73a1.927,1.927,0,0,1,1.924-1.924H440.57a1.934,1.934,0,0,1,1.786,1.211,2.135,2.135,0,0,1,.072.217,1.909,1.909,0,0,1,.066.5Z" transform="translate(-323.231 -359.387)" fill="#3f3d56"/>
    <path id="Path_337" data-name="Path 337" d="M486.423,459.137H472.678a1.1,1.1,0,0,1,0-2.2h13.745a1.1,1.1,0,0,1,0,2.2Z" transform="translate(-376.322 -382.705)" fill="#3f3d56"/>
    <path id="Path_338" data-name="Path 338" d="M486.423,476.687H472.678a1.1,1.1,0,1,1,0-2.2h13.745a1.1,1.1,0,0,1,0,2.2Z" transform="translate(-376.322 -394.482)" fill="#3f3d56"/>
    <path id="Path_339" data-name="Path 339" d="M430.465,461.937H420.42a1.238,1.238,0,0,1-1.237-1.237V448.846a1.238,1.238,0,0,1,1.237-1.237h10.045a1.238,1.238,0,0,1,1.237,1.237V460.7A1.238,1.238,0,0,1,430.465,461.937Z" transform="translate(-341.162 -376.445)" fill="#08d44e"/>
    <path id="Path_340" data-name="Path 340" d="M450.8,512.623H419.738a1.1,1.1,0,1,1,0-2.2H450.8a1.1,1.1,0,0,1,0,2.2Z" transform="translate(-340.796 -418.597)" fill="#ccc"/>
    <path id="Path_341" data-name="Path 341" d="M450.8,530.173H419.738a1.1,1.1,0,0,1,0-2.2H450.8a1.1,1.1,0,0,1,0,2.2Z" transform="translate(-340.796 -430.374)" fill="#ccc"/>
    <path id="Path_342" data-name="Path 342" d="M450.8,547.723H419.738a1.1,1.1,0,0,1,0-2.2H450.8a1.1,1.1,0,0,1,0,2.2Z" transform="translate(-340.796 -442.151)" fill="#ccc"/>
    <path id="Path_343" data-name="Path 343" d="M450.8,565.273H419.738a1.1,1.1,0,0,1,0-2.2H450.8a1.1,1.1,0,0,1,0,2.2Z" transform="translate(-340.796 -453.928)" fill="#ccc"/>
    <path id="Path_344" data-name="Path 344" d="M450.8,582.823H419.738a1.1,1.1,0,0,1,0-2.2H450.8a1.1,1.1,0,0,1,0,2.2Z" transform="translate(-340.796 -465.705)" fill="#ccc"/>
    <path id="Path_349" data-name="Path 349" d="M821.331,667.389h64.144a.329.329,0,0,0,0-.658H821.331a.329.329,0,1,0,0,.658Z" transform="translate(-610.805 -523.488)" fill="#3f3d56"/>
    <circle id="Ellipse_44" data-name="Ellipse 44" cx="10.612" cy="10.612" r="10.612" transform="translate(84.682 27.668)" fill="#08d44e"/>
    <path id="Path_395" data-name="Path 395" d="M461.149,343.483a1.1,1.1,0,0,1-.662-.22l-.012-.009-2.494-1.908a1.108,1.108,0,1,1,1.349-1.759l1.615,1.239,3.817-4.98a1.108,1.108,0,0,1,1.553-.205h0l-.024.033.024-.033a1.109,1.109,0,0,1,.2,1.554l-4.49,5.855a1.109,1.109,0,0,1-.882.432Z" transform="translate(-366.906 -301.155)" fill="#fff"/>
    <circle id="Ellipse_46" data-name="Ellipse 46" cx="7.191" cy="7.191" r="7.191" transform="translate(18.235 19.05)" fill="#ccc"/>
    <path id="Path_408" data-name="Path 408" d="M252.147,308.224a.746.746,0,0,1-.449-.149l-.008-.006L250,306.775a.751.751,0,1,1,.913-1.192l1.095.84,2.587-3.374a.751.751,0,0,1,1.052-.139h0l-.016.022.016-.021a.752.752,0,0,1,.139,1.053l-3.043,3.968a.751.751,0,0,1-.6.293Z" transform="translate(-227.434 -279.24)" fill="#fff"/>
    <path id="Path_410" data-name="Path 410" d="M239.836,359.847a1.968,1.968,0,0,0-1.8-1.2H202.129a1.947,1.947,0,0,0-1.946,1.946v45.425a1.947,1.947,0,0,0,1.946,1.946h35.908a1.949,1.949,0,0,0,1.946-1.946V360.589A1.911,1.911,0,0,0,239.836,359.847Zm-.285,46.168a1.516,1.516,0,0,1-1.513,1.513H202.129a1.513,1.513,0,0,1-1.513-1.513h0V360.589a1.516,1.516,0,0,1,1.513-1.513h35.908a1.522,1.522,0,0,1,1.406.954,1.682,1.682,0,0,1,.057.171,1.5,1.5,0,0,1,.052.391Z" transform="translate(-194.201 -316.744)" fill="#ccc"/>
    <path id="Path_411" data-name="Path 411" d="M274.117,387.717H263.3a.865.865,0,0,1,0-1.731h10.815a.865.865,0,0,1,0,1.731Z" transform="translate(-235.976 -335.092)" fill="#ccc"/>
    <path id="Path_412" data-name="Path 412" d="M274.117,401.527H263.3a.865.865,0,0,1,0-1.731h10.815a.865.865,0,0,1,0,1.731Z" transform="translate(-235.976 -344.36)" fill="#ccc"/>
    <path id="Path_413" data-name="Path 413" d="M230.085,389.921h-7.9a.974.974,0,0,1-.973-.973V379.62a.974.974,0,0,1,.973-.973h7.9a.975.975,0,0,1,.973.973v9.327A.974.974,0,0,1,230.085,389.921Z" transform="translate(-208.31 -330.168)" fill="#ccc"/>
    <path id="Path_414" data-name="Path 414" d="M246.088,429.8H221.645a.865.865,0,1,1,0-1.731h24.443a.865.865,0,1,1,0,1.731Z" transform="translate(-208.023 -363.334)" fill="#ccc"/>
    <path id="Path_415" data-name="Path 415" d="M246.088,443.617H221.645a.865.865,0,1,1,0-1.731h24.443a.865.865,0,1,1,0,1.731Z" transform="translate(-208.023 -372.604)" fill="#ccc"/>
    <path id="Path_416" data-name="Path 416" d="M246.088,457.422H221.645a.865.865,0,1,1,0-1.731h24.443a.865.865,0,0,1,0,1.731Z" transform="translate(-208.023 -381.868)" fill="#ccc"/>
    <path id="Path_417" data-name="Path 417" d="M246.088,471.235H221.645a.865.865,0,1,1,0-1.731h24.443a.865.865,0,1,1,0,1.731Z" transform="translate(-208.023 -391.138)" fill="#ccc"/>
    <path id="Path_418" data-name="Path 418" d="M246.088,485.041H221.645a.865.865,0,1,1,0-1.731h24.443a.865.865,0,1,1,0,1.731Z" transform="translate(-208.023 -400.402)" fill="#ccc"/>
    <path id="Path_419" data-name="Path 419" d="M182.258,508.091h50.471a.259.259,0,0,0,0-.518H182.258a.259.259,0,0,0,0,.518Z" transform="translate(-181.998 -416.684)" fill="#ccc"/>
    <circle id="Ellipse_46-2" data-name="Ellipse 46" cx="7.191" cy="7.191" r="7.191" transform="translate(156.392 19.05)" fill="#ccc"/>
    <path id="Path_408-2" data-name="Path 408" d="M672.147,308.224a.746.746,0,0,1-.449-.149l-.008-.006L670,306.775a.751.751,0,1,1,.913-1.192l1.095.84,2.587-3.374a.751.751,0,0,1,1.052-.139h0l-.016.022.016-.021a.752.752,0,0,1,.139,1.053l-3.043,3.968a.751.751,0,0,1-.6.293Z" transform="translate(-509.277 -279.24)" fill="#fff"/>
    <path id="Path_410-2" data-name="Path 410" d="M659.836,359.847a1.968,1.968,0,0,0-1.8-1.2H622.129a1.947,1.947,0,0,0-1.946,1.946v45.425a1.947,1.947,0,0,0,1.946,1.946h35.908a1.949,1.949,0,0,0,1.946-1.946V360.589A1.913,1.913,0,0,0,659.836,359.847Zm-.285,46.168a1.516,1.516,0,0,1-1.513,1.513H622.129a1.513,1.513,0,0,1-1.513-1.513h0V360.589a1.516,1.516,0,0,1,1.513-1.513h35.908a1.522,1.522,0,0,1,1.406.954,1.7,1.7,0,0,1,.057.171,1.5,1.5,0,0,1,.052.391Z" transform="translate(-476.044 -316.744)" fill="#ccc"/>
    <path id="Path_411-2" data-name="Path 411" d="M694.117,387.717H683.3a.865.865,0,0,1,0-1.731h10.815a.865.865,0,0,1,0,1.731Z" transform="translate(-517.819 -335.092)" fill="#ccc"/>
    <path id="Path_412-2" data-name="Path 412" d="M694.117,401.527H683.3a.865.865,0,0,1,0-1.731h10.815a.865.865,0,0,1,0,1.731Z" transform="translate(-517.819 -344.36)" fill="#ccc"/>
    <path id="Path_413-2" data-name="Path 413" d="M650.085,389.921h-7.9a.974.974,0,0,1-.973-.973V379.62a.974.974,0,0,1,.973-.973h7.9a.975.975,0,0,1,.973.973v9.327A.974.974,0,0,1,650.085,389.921Z" transform="translate(-490.153 -330.168)" fill="#ccc"/>
    <path id="Path_414-2" data-name="Path 414" d="M666.088,429.8H641.645a.865.865,0,1,1,0-1.731h24.443a.865.865,0,0,1,0,1.731Z" transform="translate(-489.865 -363.334)" fill="#ccc"/>
    <path id="Path_415-2" data-name="Path 415" d="M666.088,443.617H641.645a.865.865,0,0,1,0-1.731h24.443a.865.865,0,0,1,0,1.731Z" transform="translate(-489.865 -372.604)" fill="#ccc"/>
    <path id="Path_416-2" data-name="Path 416" d="M666.088,457.422H641.645a.865.865,0,1,1,0-1.731h24.443a.865.865,0,0,1,0,1.731Z" transform="translate(-489.865 -381.868)" fill="#ccc"/>
    <path id="Path_417-2" data-name="Path 417" d="M666.088,471.235H641.645a.865.865,0,1,1,0-1.731h24.443a.865.865,0,0,1,0,1.731Z" transform="translate(-489.865 -391.138)" fill="#ccc"/>
    <path id="Path_418-2" data-name="Path 418" d="M666.088,485.041H641.645a.865.865,0,0,1,0-1.731h24.443a.865.865,0,1,1,0,1.731Z" transform="translate(-489.865 -400.402)" fill="#ccc"/>
    <path id="Path_419-2" data-name="Path 419" d="M602.258,508.091h50.471a.259.259,0,0,0,0-.518H602.258a.259.259,0,0,0,0,.518Z" transform="translate(-463.841 -416.684)" fill="#ccc"/>
    <path id="Path_420" data-name="Path 420" d="M370.331,611.986h64.144a.329.329,0,1,0,0-.658H370.331a.329.329,0,1,0,0,.658Z" transform="translate(-308.159 -486.309)" fill="#3f3d56"/>
  </g>
</svg>
