<svg xmlns="http://www.w3.org/2000/svg" width="352.865" height="436.727" viewBox="0 0 352.865 436.727">
  <g id="그룹_33" data-name="그룹 33" transform="translate(1514.663 486.03)">
    <g id="bar2" transform="translate(-1516 -486.03)">
      <path id="Path_968" data-name="Path 968" d="M751.243,198.954h-3.883V149.472c0-29.388-28.637-55.759-61.65-55.759H460.028c-41.393,0-61.651,23.209-61.651,55.759V530.44H747.356V246.4h3.883Z" transform="translate(-397.04 -93.713)" fill="#3f3d56"/>
      <path id="Path_969" data-name="Path 969" d="M712.521,152.278v365.73H410.943V152.278c0-29,14.056-47.748,43.059-47.748h26.532c-2.595,4.128-1.847,8.821,1.995,12.52s10.275,5.92,17.164,5.926H622.008c6.888-.006,13.322-2.227,17.164-5.926s4.59-8.392,1.995-12.52h24.146c29.532,0,48.764,22.35,47.212,47.735Z" transform="translate(-385.44 -81.281)" fill="#fff"/>
      <path id="패스_88" data-name="패스 88" d="M610.281,308.557a2.979,2.979,0,0,1-2.664-1.626A35.1,35.1,0,0,0,586.8,289.4a39.823,39.823,0,0,0-5.582-1.264l-.385-.058,19.86-62.1.335.012c38.584,10.485,60.661,41.408,66.507,50.636a2.983,2.983,0,0,1-1.192,4.264L611.622,308.24a2.992,2.992,0,0,1-1.341.317Z" transform="translate(-400.788 -89.774)" fill="#e6e6e6"/>
      <path id="패스_89" data-name="패스 89" d="M492.238,306.709a2.981,2.981,0,0,1-1.392-.348l-54.4-28.7a2.987,2.987,0,0,1-1.156-4.2A120.59,120.59,0,0,1,462.5,242.943c18.786-14.888,40.155-22.359,63.51-22.234a100.82,100.82,0,0,1,25.93,3.51l.335.091L532.4,286.4l-.28-.042a44.257,44.257,0,0,0-5.4-.479c-20.213-.571-28.972,13.194-31.8,19.136a2.93,2.93,0,0,1-1.739,1.534,3,3,0,0,1-.943.16Z" transform="translate(-351.709 -88.115)" fill="#5b8def"/>
      <path id="패스_90" data-name="패스 90" d="M601.157,226.483l-14.045,62.766a40.086,40.086,0,0,0-5.629-1.275l19.667-61.493Z" transform="translate(-401.008 -90.096)" fill="#3f3d56"/>
      <circle id="타원_21" data-name="타원 21" cx="5.311" cy="5.311" r="5.311" transform="translate(170.855 222.492)" fill="#3f3d56"/>
      <path id="패스_91" data-name="패스 91" d="M862.531,313.147h55.341a2.309,2.309,0,0,0,2.306-2.306V253.205a2.309,2.309,0,0,0-2.306-2.306H862.531a2.309,2.309,0,0,0-2.306,2.306v57.636a2.309,2.309,0,0,0,2.306,2.306Zm55.341-61.325a1.385,1.385,0,0,1,1.384,1.384v57.636a1.385,1.385,0,0,1-1.384,1.384H862.531a1.385,1.385,0,0,1-1.384-1.384V253.205a1.385,1.385,0,0,1,1.383-1.384Z" transform="translate(-797.103 80.524)" fill="#3f3d56"/>
      <path id="패스_92" data-name="패스 92" d="M887.934,354.038a1.566,1.566,0,0,1-.006-3.131h31.763a1.566,1.566,0,0,1,0,3.131Z" transform="translate(-810.698 29.132)" fill="#e6e6e6"/>
      <path id="패스_93" data-name="패스 93" d="M887.934,334.8a1.566,1.566,0,1,1-.006-3.131h31.763a1.566,1.566,0,0,1,0,3.131Z" transform="translate(-810.698 38.812)" fill="#e6e6e6"/>
      <circle id="타원_18" data-name="타원 18" cx="9.935" cy="9.935" r="9.935" transform="translate(83.188 342.838)" fill="#ebbc03"/>
      <path id="패스_94" data-name="패스 94" d="M862.531,313.147h55.341a2.309,2.309,0,0,0,2.306-2.306V253.205a2.309,2.309,0,0,0-2.306-2.306H862.531a2.309,2.309,0,0,0-2.306,2.306v57.636a2.309,2.309,0,0,0,2.306,2.306Zm55.341-61.325a1.385,1.385,0,0,1,1.384,1.384v57.636a1.385,1.385,0,0,1-1.384,1.384H862.531a1.385,1.385,0,0,1-1.384-1.384V253.205a1.385,1.385,0,0,1,1.383-1.384Z" transform="translate(-713.952 80.524)" fill="#3f3d56"/>
      <path id="패스_95" data-name="패스 95" d="M887.934,354.038a1.566,1.566,0,0,1-.006-3.131h31.763a1.566,1.566,0,0,1,0,3.131Z" transform="translate(-727.563 29.132)" fill="#e6e6e6"/>
      <path id="패스_96" data-name="패스 96" d="M887.934,334.8a1.566,1.566,0,1,1-.006-3.131h31.763a1.566,1.566,0,0,1,0,3.131Z" transform="translate(-727.563 38.812)" fill="#e6e6e6"/>
      <circle id="타원_19" data-name="타원 19" cx="9.935" cy="9.935" r="9.935" transform="translate(166.314 342.838)" fill="#08d44e"/>
      <path id="패스_97" data-name="패스 97" d="M862.531,313.147h55.341a2.309,2.309,0,0,0,2.306-2.306V253.205a2.309,2.309,0,0,0-2.306-2.306H862.531a2.309,2.309,0,0,0-2.306,2.306v57.636a2.309,2.309,0,0,0,2.306,2.306Zm55.341-61.325a1.385,1.385,0,0,1,1.384,1.384v57.636a1.385,1.385,0,0,1-1.384,1.384H862.531a1.385,1.385,0,0,1-1.384-1.384V253.205a1.385,1.385,0,0,1,1.383-1.384Z" transform="translate(-630.802 80.436)" fill="#3f3d56"/>
      <path id="패스_98" data-name="패스 98" d="M887.934,354.038a1.566,1.566,0,0,1-.006-3.131h31.763a1.566,1.566,0,0,1,0,3.131Z" transform="translate(-644.428 29.044)" fill="#e6e6e6"/>
      <path id="패스_99" data-name="패스 99" d="M887.934,334.8a1.566,1.566,0,1,1-.006-3.131h31.763a1.566,1.566,0,0,1,0,3.131Z" transform="translate(-644.428 38.725)" fill="#e6e6e6"/>
      <circle id="타원_20" data-name="타원 20" cx="9.935" cy="9.935" r="9.935" transform="translate(249.442 342.752)" fill="#5b8def"/>
    </g>
    <text id="ooo님의_보험점수는_" data-name="ooo님의 보험점수는?" transform="translate(-1458 -383)" fill="#3f3d56" stroke="#3f3d56" stroke-width="0.2" font-size="24" font-family="Arial-Black, Arial" font-weight="800"><tspan x="0" y="0">ooo</tspan><tspan y="0" font-family="MalgunGothicBold, Malgun Gothic" font-weight="400">님의</tspan><tspan y="0"> </tspan><tspan y="0" font-family="MalgunGothicBold, Malgun Gothic" font-weight="400">보험점수는</tspan><tspan y="0">?</tspan></text>
    <text id="ooo님_맞춤형_비교_설계" data-name="ooo님 맞춤형 비교 설계" transform="translate(-1470 -194)" fill="#3f3d56" stroke="#3f3d56" stroke-width="0.2" font-size="24" font-family="Arial-Black, Arial" font-weight="800"><tspan x="0" y="0">ooo</tspan><tspan y="0" font-family="MalgunGothicBold, Malgun Gothic" font-weight="400">님</tspan><tspan y="0"> </tspan><tspan y="0" font-family="MalgunGothicBold, Malgun Gothic" font-weight="400">맞춤형</tspan><tspan y="0"> </tspan><tspan y="0" font-family="MalgunGothicBold, Malgun Gothic" font-weight="400">비교</tspan><tspan y="0"> </tspan><tspan y="0" font-family="MalgunGothicBold, Malgun Gothic" font-weight="400">설계</tspan></text>
  </g>
</svg>
