<svg xmlns="http://www.w3.org/2000/svg" width="110" height="95.334" viewBox="0 0 110 95.334">
  <g id="nofile" transform="translate(0 -7.333)">
    <path id="패스_38" data-name="패스 38" d="M55,44A18.333,18.333,0,0,1,70.3,72.446L44.88,47.036A18.245,18.245,0,0,1,55,44Z" 
    fill="#3F3D56"/>
    <path id="패스_39" data-name="패스 39" d="M55,80.667a18.246,18.246,0,0,0,10.113-3.036L39.7,52.213A18.333,18.333,0,0,0,55,80.667Z" 
    fill="#3F3D56"/>
    <path id="패스_40" data-name="패스 40" d="M110,18.333a11,11,0,0,0-11-11H68.149L53.482,22H11A11,11,0,0,0,0,33V91.667a11,11,0,0,0,11,11H99a11,11,0,0,0,11-11Zm-29.333,44a25.667,25.667,0,1,0-7.518,18.149,25.667,25.667,0,0,0,7.518-18.149Z" 
    fill="#3F3D56" fill-rule="evenodd"/>
  </g>
</svg>
