<svg xmlns="http://www.w3.org/2000/svg" width="69.227" height="135" viewBox="0 0 69.227 135">
  <g id="undraw_fast_loading_re_8oi3_1_" data-name="undraw_fast_loading_re_8oi3 (1)" transform="translate(-32.271 0)">
    <path id="Path_968" data-name="Path 968" d="M467.6,125.794h-.762v-20.32a11.931,11.931,0,0,0-12.095-11.761H410.472a11.931,11.931,0,0,0-12.1,11.761V216.952a11.931,11.931,0,0,0,12.095,11.761h44.275a11.931,11.931,0,0,0,12.095-11.761V140.258h.762Z" transform="translate(-366.106 -93.713)" fill="#3f3d56"/>
    <path id="Path_969" data-name="Path 969" d="M474.392,113.354V225.21a9,9,0,0,1-9.157,8.824H420.107a9,9,0,0,1-9.164-8.825V113.354a9,9,0,0,1,9.164-8.824h5.474a4.065,4.065,0,0,0,.42,3.921,4.4,4.4,0,0,0,3.61,1.856h25.727a4.4,4.4,0,0,0,3.61-1.856,4.065,4.065,0,0,0,.42-3.921h5.864a9,9,0,0,1,9.16,8.821Z" transform="translate(-376.182 -102.388)" fill="#fff"/>
    <path id="Path_39" data-name="Path 39" d="M509.993,447.322H470.218a.746.746,0,0,1-.737-.754v-10.1a.746.746,0,0,1,.737-.754h39.775a.746.746,0,0,1,.736.754v10.1a.746.746,0,0,1-.736.754Zm-39.775-11.307a.448.448,0,0,0-.442.452v10.1a.448.448,0,0,0,.442.453h39.775a.448.448,0,0,0,.442-.453v-10.1a.448.448,0,0,0-.442-.452Z" transform="translate(-423.124 -368.993)" fill="#e6e6e6"/>
    <path id="Path_40" data-name="Path 40" d="M534.715,454.074a.528.528,0,0,0,0,1.056H559.6a.528.528,0,1,0,.04-1.055H534.715Z" transform="translate(-475.606 -383.687)" fill="#e6e6e6"/>
    <path id="Path_41" data-name="Path 41" d="M534.715,470.058a.528.528,0,0,0,0,1.056H559.6a.528.528,0,1,0,.04-1.055H534.715Z" transform="translate(-475.606 -396.549)" fill="#e6e6e6"/>
    <path id="Path_42" data-name="Path 42" d="M509.993,532.3H470.218a.746.746,0,0,1-.737-.754v-10.1a.746.746,0,0,1,.737-.754h39.775a.746.746,0,0,1,.736.754v10.1a.746.746,0,0,1-.736.754ZM470.218,521a.448.448,0,0,0-.442.452v10.1a.448.448,0,0,0,.442.452h39.775a.448.448,0,0,0,.442-.452v-10.1a.448.448,0,0,0-.442-.452Z" transform="translate(-423.124 -437.394)" fill="#e6e6e6"/>
    <path id="Path_43" data-name="Path 43" d="M534.715,539.33a.528.528,0,0,0,0,1.056H559.6a.528.528,0,0,0,.017-1.056h-24.9Z" transform="translate(-475.606 -452.29)" fill="#e6e6e6"/>
    <path id="Path_44" data-name="Path 44" d="M534.715,555.318a.528.528,0,0,0,0,1.056H559.6a.528.528,0,1,0,.017-1.056h-24.9Z" transform="translate(-475.606 -465.155)" fill="#e6e6e6"/>
    <path id="Path_39-2" data-name="Path 39-2" d="M509.993,617.56H470.218a.746.746,0,0,1-.737-.754v-10.1a.746.746,0,0,1,.737-.754h39.775a.746.746,0,0,1,.736.754v10.1a.746.746,0,0,1-.736.754Zm-39.775-11.307a.448.448,0,0,0-.442.453v10.1a.448.448,0,0,0,.442.452h39.775a.448.448,0,0,0,.442-.452v-10.1a.448.448,0,0,0-.442-.453Z" transform="translate(-423.124 -506.019)" fill="#e6e6e6"/>
    <path id="Path_40-2" data-name="Path 40-2" d="M534.715,624.591a.528.528,0,0,0,0,1.056H559.6a.528.528,0,1,0,.04-1.055H534.715Z" transform="translate(-475.606 -520.897)" fill="#e6e6e6"/>
    <path id="Path_41-2" data-name="Path 41-2" d="M534.715,640.578a.528.528,0,1,0,0,1.056H559.6a.528.528,0,1,0,.04-1.055H534.715Z" transform="translate(-475.606 -533.762)" fill="#e6e6e6"/>
    <g id="Group_59" data-name="Group 59" transform="translate(48.768 69.3)">
      <circle id="Ellipse_5" data-name="Ellipse 5" cx="3.167" cy="3.167" r="3.167" fill="#5b8def"/>
      <path id="Path_40-3" data-name="Path 40-3" d="M491.009,461.712a2.145,2.145,0,0,0,0,1.056h3.114c.036,0,.067-.228.067-.519a1.178,1.178,0,0,0-.065-.536h-3.116Z" transform="translate(-489.358 -459.137)" fill="#e6e6e6"/>
    </g>
    <g id="Group_60" data-name="Group 60" transform="translate(48.768 85.95)">
      <circle id="Ellipse_5-2" data-name="Ellipse 5-2" cx="3.167" cy="3.167" r="3.167" fill="#5b8def"/>
      <path id="Path_40-4" data-name="Path 40-4" d="M491.009,547.005a2.144,2.144,0,0,0,0,1.056h3.114c.036,0,.067-.228.067-.519a1.178,1.178,0,0,0-.065-.536h-3.116Z" transform="translate(-489.358 -544.43)" fill="#e6e6e6"/>
    </g>
    <g id="Group_61" data-name="Group 61" transform="translate(48.768 102.594)">
      <circle id="Ellipse_5-3" data-name="Ellipse 5-3" cx="3.167" cy="3.167" r="3.167" fill="#5b8def"/>
      <path id="Path_40-5" data-name="Path 40-5" d="M491.009,632.263a2.145,2.145,0,0,0,0,1.056h3.114c.036,0,.067-.228.067-.519a1.178,1.178,0,0,0-.065-.536h-3.116Z" transform="translate(-489.358 -629.688)" fill="#e6e6e6"/>
    </g>
    <path id="패스_417" data-name="패스 417" d="M589.618,250.627a.889.889,0,0,1-.795-.485,10.475,10.475,0,0,0-6.215-5.232,11.884,11.884,0,0,0-1.666-.377l-.115-.017,5.927-18.532.1,0c11.516,3.129,18.1,12.358,19.849,15.112a.89.89,0,0,1-.356,1.273l-16.33,8.161A.893.893,0,0,1,589.618,250.627Z" transform="translate(-513.39 -200.225)" fill="#e6e6e6"/>
    <circle id="타원_58" data-name="타원 58" cx="1.585" cy="1.585" r="1.585" transform="translate(65.188 50.472)" fill="#3f3d56"/>
    <path id="패스_418" data-name="패스 418" d="M451.979,246.375a.89.89,0,0,1-.416-.1l-16.235-8.565a.891.891,0,0,1-.345-1.253,35.989,35.989,0,0,1,8.121-9.108,29.6,29.6,0,0,1,18.954-6.636,30.089,30.089,0,0,1,7.739,1.048l.1.027-5.929,18.531-.083-.013a13.212,13.212,0,0,0-1.612-.143,9.809,9.809,0,0,0-9.491,5.711.875.875,0,0,1-.519.458A.9.9,0,0,1,451.979,246.375Z" transform="translate(-395.355 -195.982)" fill="#5b8def"/>
    <path id="패스_419" data-name="패스 419" d="M587.354,226.483l-4.192,18.733a11.961,11.961,0,0,0-1.68-.38l5.87-18.353Z" transform="translate(-513.488 -200.605)" fill="#3f3d56"/>
  </g>
</svg>
