<svg xmlns="http://www.w3.org/2000/svg" width="74.392" height="60.895" viewBox="0 0 74.392 60.895">
  <g id="Group_2" data-name="Group 2" transform="translate(-0.901 -0.968)">
    <path id="패스_89" data-name="패스 89" d="M67.7,47.65,54.469,12.9s-5.345,13.892-6.842,18.011A27.735,27.735,0,0,1,44,38.465a24.482,24.482,0,0,1-10.189,8.184A23.754,23.754,0,1,1,24.6.97,22.741,22.741,0,0,1,39.287,6.053l-3.221,8.489c-2.132-2.192-5.032-5.2-11.6-5.2a15.575,15.575,0,0,0-15.26,15.38,15.379,15.379,0,0,0,29.438,6.265,9.837,9.837,0,0,0,.439-1.081H20.595V22.623l27.752-.055L42.469,21l7.054-18.52a23.969,23.969,0,0,1,4.9-.564,23.306,23.306,0,0,1,4.891.447Q67.307,23.32,75.293,44.3A25.212,25.212,0,0,1,67.7,47.65Z" transform="translate(0 0)"
    fill="#fff"/>
    <path id="패스_90" data-name="패스 90" d="M221.55,234.583h-4.793v2.806h4.793Z" transform="translate(-166.072 -179.736)" 
    fill="#fff"/>
    <path id="패스_91" data-name="패스 91" d="M198.371,215.862a2.235,2.235,0,0,0,1.695-.822,3.155,3.155,0,0,0,0-3.968,2.158,2.158,0,0,0-3.389,0,3.155,3.155,0,0,0,0,3.968,2.235,2.235,0,0,0,1.694.822Zm0-2.1a.558.558,0,0,0,.424-.205.788.788,0,0,0,0-.992.539.539,0,0,0-.847,0,.789.789,0,0,0,0,.992A.558.558,0,0,0,198.371,213.757Z" transform="translate(-150.082 -161.015)" 
    fill="#fff" fill-rule="evenodd"/>
    <path id="패스_92" data-name="패스 92" d="M242.332,213.056a3.068,3.068,0,0,1-.7,1.984,2.158,2.158,0,0,1-3.389,0,3.156,3.156,0,0,1,0-3.968,2.158,2.158,0,0,1,3.389,0A3.067,3.067,0,0,1,242.332,213.056Zm-1.8,0a.766.766,0,0,1-.176.5.54.54,0,0,1-.847,0,.789.789,0,0,1,0-.992.54.54,0,0,1,.847,0A.767.767,0,0,1,240.535,213.056Z" transform="translate(-182.061 -161.015)" 
    fill="#fff" fill-rule="evenodd"/>
    <path id="패스_93" data-name="패스 93" d="M171.945,204.159a8.088,8.088,0,0,0,2.652,3.414,6.432,6.432,0,0,0,3.79,1.264h9.586a7.24,7.24,0,0,0,6.564-4.977,4.078,4.078,0,0,0,1.121-1.5,4.794,4.794,0,0,0,.4-1.939,4.451,4.451,0,0,0-1.524-3.44,8.2,8.2,0,0,0-2.653-3.625A6.457,6.457,0,0,0,187.973,192h-9.586a6.434,6.434,0,0,0-3.789,1.264,8.091,8.091,0,0,0-2.651,3.413,3.9,3.9,0,0,0-1.421,1.55,4.831,4.831,0,0,0,0,4.38,3.9,3.9,0,0,0,1.421,1.55Zm6.442-9.352h9.586a4.65,4.65,0,0,1,3.981,2.483,9.8,9.8,0,0,1,0,6.258,5.151,5.151,0,0,1-1.725,1.825,4.241,4.241,0,0,1-2.256.658h-9.586A4.469,4.469,0,0,1,175,204.386a6.311,6.311,0,0,1,0-7.937A4.469,4.469,0,0,1,178.387,194.806Z" transform="translate(-130.099 -146.974)" 
    fill="#fff" fill-rule="evenodd"/>
  </g>
</svg>
