<?xml version="1.0" standalone="no"?>
<!DOCTYPE svg PUBLIC "-//W3C//DTD SVG 20010904//EN"
 "http://www.w3.org/TR/2001/REC-SVG-20010904/DTD/svg10.dtd">
<svg version="1.0" xmlns="http://www.w3.org/2000/svg"
 width="1184.000000pt" height="1184.000000pt" viewBox="0 0 1184.000000 1184.000000"
 preserveAspectRatio="xMidYMid meet">
<metadata>
Created by potrace 1.14, written by Peter Selinger 2001-2017
</metadata>
<g transform="translate(0.000000,1184.000000) scale(0.100000,-0.100000)"
fill="#000000" stroke="none">
<path d="M3559 10756 c-2 -2 -42 -7 -89 -10 -47 -4 -101 -9 -120 -12 -19 -3
-51 -7 -70 -9 -19 -2 -55 -7 -80 -11 -25 -4 -53 -8 -62 -8 -10 0 -18 -4 -18
-9 0 -4 -3 -6 -8 -3 -6 4 -35 -1 -128 -20 -44 -8 -319 -81 -319 -84 0 -1 -8
-3 -18 -5 -10 -2 -26 -7 -35 -11 -9 -4 -23 -8 -31 -10 -7 -1 -36 -11 -65 -22
-74 -29 -90 -35 -101 -37 -13 -4 -256 -110 -286 -126 -13 -7 -32 -16 -42 -21
-119 -59 -364 -202 -404 -238 -7 -6 -13 -7 -13 -3 0 4 -5 0 -11 -9 -5 -10 -14
-18 -19 -18 -8 0 -107 -70 -160 -113 -8 -7 -35 -28 -60 -47 -25 -19 -47 -37
-50 -40 -3 -3 -39 -34 -80 -70 -83 -72 -303 -292 -365 -366 -22 -26 -46 -53
-52 -60 -7 -7 -13 -16 -13 -20 0 -3 -8 -14 -18 -23 -10 -9 -46 -54 -81 -101
-34 -47 -68 -92 -74 -100 -13 -16 -45 -64 -62 -92 -5 -9 -31 -51 -57 -93 -27
-41 -48 -80 -48 -85 0 -6 -3 -10 -7 -10 -5 0 -17 -18 -27 -40 -11 -22 -23 -40
-28 -40 -4 0 -7 -3 -6 -7 2 -5 -27 -69 -64 -143 -36 -74 -80 -171 -98 -215
-17 -44 -35 -89 -40 -100 -4 -11 -16 -42 -25 -70 -10 -27 -21 -59 -26 -70 -10
-22 -77 -256 -85 -294 -3 -12 -12 -53 -20 -90 -9 -36 -18 -76 -20 -88 -2 -13
-6 -35 -9 -50 -3 -16 -8 -44 -11 -63 -3 -19 -7 -46 -10 -60 -2 -14 -7 -47 -10
-75 -3 -27 -7 -61 -9 -74 -11 -65 -19 -246 -19 -421 1 -259 13 -412 50 -620
11 -60 15 -84 17 -105 2 -11 6 -26 10 -32 5 -7 5 -17 2 -23 -3 -5 -1 -10 5
-10 6 0 8 -5 5 -10 -4 -6 -2 -25 4 -43 6 -17 13 -43 15 -57 28 -141 203 -639
228 -648 4 -2 8 -10 8 -17 0 -17 126 -262 181 -351 21 -35 39 -69 39 -74 0 -6
5 -10 10 -10 6 0 10 -4 10 -10 0 -5 7 -18 15 -27 8 -10 14 -20 13 -23 -2 -3 8
-17 20 -30 13 -14 31 -38 39 -55 9 -16 22 -35 30 -43 8 -8 22 -27 31 -41 80
-127 414 -491 561 -611 24 -19 55 -46 69 -58 15 -13 70 -56 122 -95 52 -40
101 -78 108 -84 7 -7 17 -13 22 -13 5 0 15 -6 22 -12 25 -24 77 -58 88 -58 5
0 10 -4 10 -9 0 -5 14 -14 30 -21 17 -7 30 -17 30 -22 0 -5 4 -6 10 -3 5 3 10
1 10 -4 0 -6 4 -11 9 -11 5 0 45 -21 88 -46 80 -48 346 -180 373 -186 8 -2 17
-5 20 -8 15 -16 339 -129 475 -166 33 -8 76 -20 95 -25 19 -5 46 -12 60 -14
14 -2 36 -7 50 -10 40 -10 177 -35 215 -40 27 -4 102 -14 145 -20 54 -8 166
-16 265 -20 50 -2 95 -4 100 -5 6 -1 12 -2 15 -1 3 1 62 3 132 4 84 2 124 -1
120 -8 -3 -5 1 -5 9 1 8 7 50 15 94 18 44 3 107 9 140 13 33 3 72 7 88 7 15 0
27 3 27 6 0 3 19 7 42 9 23 1 47 5 53 9 5 4 25 7 43 7 17 0 32 2 32 5 0 3 10
6 23 7 12 1 33 4 47 7 14 3 34 8 46 10 43 9 290 78 319 89 17 6 32 12 35 12
11 2 56 17 75 25 11 5 58 24 105 41 47 18 150 63 230 101 80 39 147 69 149 68
2 -1 7 2 10 7 3 5 38 26 76 48 39 21 89 51 112 67 23 15 44 28 48 28 5 0 64
39 75 50 3 3 48 34 100 69 52 36 100 70 105 76 6 6 34 29 63 50 28 22 52 43
52 47 0 4 5 8 10 8 6 0 18 8 29 17 10 10 56 52 101 93 115 105 278 272 340
350 19 24 51 63 70 86 64 76 70 84 70 94 0 6 4 10 8 10 8 0 66 83 136 193 21
34 42 64 47 65 5 2 9 10 9 18 0 7 16 38 35 68 19 30 35 59 35 65 0 5 6 16 13
23 16 17 197 385 197 401 0 3 9 25 20 51 12 25 21 48 20 51 0 3 11 30 25 60
13 31 24 59 25 63 1 13 11 47 20 67 8 18 70 196 103 295 6 19 15 38 20 41 5 3
8 9 8 13 -1 3 -1 7 0 9 0 1 2 9 4 17 2 8 20 58 40 110 38 97 57 155 55 166 -1
4 3 10 10 14 6 4 12 17 13 28 1 12 4 22 8 22 4 0 9 10 12 23 3 12 15 49 26 82
28 77 28 78 29 89 0 5 4 12 9 15 4 3 14 24 22 46 11 34 82 219 106 280 5 11 9
23 10 28 2 4 4 9 5 12 1 3 3 8 4 13 2 9 55 149 71 187 13 30 68 176 71 185 0
3 4 14 9 25 28 69 65 171 65 182 0 7 3 13 8 13 4 0 13 19 20 43 7 23 30 83 49
132 20 50 36 96 36 103 0 6 3 12 7 12 4 0 7 6 7 13 0 6 7 28 15 47 14 30 27
63 33 80 1 3 5 12 8 20 11 25 78 204 81 215 1 6 10 25 19 43 10 17 15 32 12
32 -3 0 1 13 10 30 8 16 15 31 14 32 0 3 16 49 28 78 3 8 8 24 10 35 2 11 8
22 13 23 6 2 10 10 10 18 0 25 52 146 60 137 3 -4 19 -42 34 -83 15 -41 32
-85 37 -97 28 -68 53 -136 54 -143 1 -3 9 -23 19 -45 10 -22 19 -47 21 -55 2
-8 38 -105 81 -215 42 -110 88 -229 101 -265 14 -36 32 -83 40 -105 18 -53 72
-192 88 -230 7 -16 21 -55 31 -85 11 -30 23 -58 27 -61 4 -3 7 -10 6 -15 -1
-5 3 -22 10 -39 55 -136 154 -402 154 -412 0 -7 4 -13 9 -13 4 0 8 -8 8 -18 0
-10 4 -22 8 -27 4 -6 14 -28 21 -50 7 -22 17 -51 23 -65 20 -48 27 -65 73
-185 25 -66 48 -128 50 -137 2 -9 9 -26 15 -38 6 -12 13 -30 15 -40 2 -11 10
-34 18 -52 8 -18 25 -60 37 -93 13 -33 28 -73 35 -90 7 -16 31 -82 55 -145 23
-63 46 -124 51 -135 13 -30 131 -338 133 -350 2 -5 8 -23 15 -40 6 -16 25 -64
41 -105 16 -41 45 -117 64 -167 20 -51 36 -96 36 -99 0 -3 6 -20 14 -37 8 -18
22 -52 31 -77 9 -25 22 -56 28 -70 5 -14 11 -29 13 -35 2 -9 94 -254 111 -295
3 -8 7 -21 9 -28 1 -7 12 -33 23 -58 12 -24 21 -48 21 -54 0 -6 4 -18 9 -28 5
-9 24 -55 41 -102 18 -47 36 -94 40 -105 11 -27 22 -58 26 -70 7 -27 145 -382
154 -397 5 -10 10 -27 10 -38 0 -11 5 -20 12 -20 6 0 9 -3 5 -6 -3 -4 1 -20 9
-36 9 -17 17 -37 19 -46 4 -19 112 -303 118 -308 4 -4 113 28 252 74 61 20
113 37 118 38 4 1 9 3 12 4 3 1 8 3 13 5 4 1 21 8 37 15 17 7 35 14 40 15 11
1 13 2 155 65 52 23 99 45 105 48 5 4 12 7 15 8 37 11 50 18 50 25 0 5 3 8 8
7 4 -1 25 7 47 19 22 11 43 20 46 19 4 0 15 6 25 15 11 9 46 31 79 49 33 17
79 45 103 61 24 16 46 29 50 29 4 1 17 9 29 19 l22 19 -35 93 c-20 52 -39 103
-44 114 -5 11 -41 106 -80 210 -39 105 -76 201 -82 215 -16 37 -39 99 -43 113
-2 4 -4 9 -5 12 -1 3 -3 8 -5 13 -2 9 -15 42 -25 67 -5 11 -29 74 -53 140 -25
66 -49 129 -53 140 -4 11 -6 23 -6 28 1 4 -2 7 -8 7 -5 0 -10 7 -10 15 0 15
-20 69 -88 239 -19 49 -35 96 -35 103 0 7 -4 13 -9 13 -4 0 -8 6 -8 14 0 7
-13 45 -29 84 -16 39 -27 73 -23 76 3 3 0 6 -6 6 -7 0 -11 3 -10 8 3 9 -112
314 -123 327 -5 5 -9 19 -9 31 0 13 -5 26 -10 29 -6 4 -8 11 -5 16 4 5 1 9 -6
9 -7 0 -10 3 -7 6 4 3 -7 37 -23 76 -16 39 -29 75 -29 79 0 5 -8 28 -19 52
-10 23 -24 56 -30 72 -6 17 -16 44 -22 60 -7 17 -13 32 -14 35 -1 3 -5 12 -8
20 -8 19 -51 133 -52 140 -4 13 -17 47 -26 62 -5 10 -9 22 -9 27 0 5 -8 26
-17 47 -9 22 -17 41 -18 44 0 3 -6 19 -12 35 -25 61 -36 90 -38 100 -2 6 -24
64 -49 130 -26 66 -65 166 -86 222 -22 56 -40 109 -40 118 0 8 -4 15 -10 15
-5 0 -10 6 -10 13 0 7 -12 42 -26 78 -14 35 -27 71 -29 79 -3 14 -74 198 -94
245 -5 11 -14 36 -21 55 -7 19 -16 44 -21 55 -4 11 -33 85 -63 165 -30 80 -60
159 -67 175 -7 17 -13 33 -14 38 -2 4 -4 9 -5 12 -1 3 -3 8 -5 13 -1 4 -5 16
-10 27 -4 11 -19 49 -32 85 -25 66 -49 129 -63 165 -5 11 -23 58 -40 105 -17
47 -35 94 -39 105 -13 28 -36 89 -36 95 -1 3 -9 22 -18 44 -9 21 -17 42 -17
47 0 5 -7 23 -15 41 -18 42 -86 217 -90 232 -1 6 -8 25 -15 41 -7 17 -14 32
-15 35 -5 19 -19 60 -30 85 -7 17 -27 68 -45 115 -17 47 -43 114 -57 150 -14
36 -31 81 -38 100 -8 19 -30 78 -51 130 -20 52 -44 118 -54 145 -10 28 -24 64
-30 80 -7 17 -14 35 -16 40 -1 6 -8 24 -15 40 -6 17 -13 35 -15 40 -1 6 -11
33 -22 60 -11 28 -39 100 -62 160 -23 61 -43 111 -44 112 -1 1 -19 5 -40 9
-21 3 -48 8 -60 10 -29 6 -126 20 -196 29 -209 26 -708 26 -860 1 -14 -3 -50
-7 -80 -11 -30 -3 -62 -7 -70 -9 -24 -5 -114 -19 -130 -21 -37 -4 -129 -29
-128 -34 1 -3 -2 -13 -5 -21 -4 -8 -28 -73 -55 -145 -107 -282 -144 -381 -156
-410 -7 -16 -23 -59 -36 -95 -13 -36 -27 -69 -32 -74 -4 -6 -8 -17 -8 -25 -1
-9 -9 -34 -20 -56 -11 -22 -19 -46 -20 -53 0 -7 -4 -20 -9 -30 -10 -18 -62
-150 -66 -167 -1 -5 -8 -23 -14 -40 -7 -16 -27 -66 -43 -110 -17 -44 -39 -102
-50 -130 -10 -27 -31 -81 -45 -120 -14 -38 -30 -81 -36 -95 -6 -14 -11 -27
-12 -30 -4 -11 -17 -47 -30 -80 -31 -78 -87 -226 -89 -235 -3 -9 -19 -52 -33
-85 -3 -8 -5 -18 -5 -22 1 -5 -2 -8 -6 -8 -5 0 -9 -6 -9 -12 0 -10 -100 -279
-138 -373 -5 -11 -9 -22 -10 -25 -1 -3 -5 -14 -9 -25 -5 -11 -26 -67 -48 -125
-21 -58 -46 -123 -55 -145 -8 -22 -19 -49 -23 -60 -4 -11 -17 -43 -29 -72 -12
-28 -21 -56 -21 -61 0 -5 21 -15 48 -22 26 -7 66 -19 89 -26 24 -8 57 -16 74
-19 18 -3 39 -10 48 -14 9 -5 24 -7 34 -6 9 2 17 0 17 -4 0 -4 6 -8 13 -8 6 0
48 -10 92 -22 44 -12 112 -30 150 -40 39 -11 97 -26 130 -36 33 -9 69 -18 80
-19 11 -2 27 -6 35 -10 8 -3 24 -7 35 -9 11 -1 28 -8 38 -13 14 -8 -13 -11
-102 -10 -76 1 -121 -2 -121 -9 0 -7 -3 -7 -8 0 -4 6 -56 10 -119 10 -69 0
-113 -4 -113 -10 0 -7 -3 -7 -8 0 -9 13 -105 13 -114 0 -5 -6 -8 -5 -8 3 0 9
-5 10 -19 3 -10 -6 -21 -8 -24 -4 -10 10 -51 10 -64 0 -7 -5 -13 -6 -13 -1 0
5 -31 9 -69 9 -38 0 -67 -3 -64 -7 2 -5 -6 -4 -19 0 -21 7 -44 8 -58 2 -17 -6
-40 -7 -40 -1 0 7 -104 5 -126 -3 -8 -3 -14 -1 -14 4 0 5 -13 5 -30 0 -18 -5
-32 -5 -36 1 -3 6 -12 6 -22 0 -10 -5 -26 -5 -41 1 -28 10 -28 10 -53 -3 -12
-6 -25 -6 -37 1 -14 7 -22 7 -26 0 -5 -8 -11 -8 -20 0 -10 8 -19 8 -35 0 -14
-8 -25 -8 -33 -1 -8 6 -18 6 -27 1 -9 -5 -19 -5 -27 1 -8 7 -18 7 -32 -1 -15
-7 -27 -8 -40 0 -14 7 -22 7 -26 0 -4 -6 -12 -7 -18 -3 -16 10 -37 13 -37 5 0
-4 -34 -7 -75 -7 -41 0 -75 4 -75 8 0 5 -4 6 -9 2 -17 -10 -71 -13 -71 -3 0 5
-4 6 -10 3 -16 -10 -81 -12 -86 -3 -3 5 -10 5 -17 1 -15 -9 -147 -10 -147 0 0
5 -5 5 -12 1 -16 -10 -338 -11 -338 -1 0 4 -8 4 -17 0 -10 -5 -433 -8 -940 -8
-508 0 -924 -2 -924 -5 -4 -12 -6 -1126 -3 -1140 3 -13 173 -15 1469 -15 1296
0 1465 -2 1465 -15 0 -13 -24 -71 -100 -237 -13 -29 -27 -53 -32 -53 -4 0 -8
-7 -8 -14 0 -32 -155 -272 -259 -401 -61 -76 -276 -295 -329 -335 -18 -14 -43
-34 -55 -45 -13 -11 -50 -38 -82 -60 -33 -22 -64 -46 -68 -52 -4 -7 -13 -13
-18 -13 -6 0 -25 -10 -42 -22 -18 -13 -41 -28 -52 -34 -11 -6 -45 -24 -75 -41
-68 -38 -123 -67 -130 -68 -3 -1 -27 -12 -55 -24 -27 -13 -68 -30 -90 -38 -22
-8 -55 -22 -73 -30 -18 -8 -40 -16 -50 -18 -9 -2 -54 -15 -99 -29 -80 -24
-253 -63 -283 -64 -8 0 -26 -3 -40 -6 -57 -12 -133 -19 -352 -30 -21 -1 -40 3
-42 9 -2 5 -5 4 -5 -3 -1 -7 -4 -11 -8 -9 -5 3 -55 8 -113 11 -127 8 -175 14
-285 35 -94 18 -263 62 -317 82 -29 11 -57 21 -63 23 -50 12 -60 16 -218 90
-65 30 -119 54 -121 53 -2 -1 -12 5 -22 14 -11 9 -39 27 -64 40 -25 13 -47 26
-50 29 -3 3 -39 28 -80 55 -41 28 -77 52 -80 56 -3 3 -23 18 -45 35 -22 16
-45 34 -51 39 -6 6 -44 39 -84 75 -95 84 -167 160 -243 254 -18 21 -42 49 -54
61 -12 13 -19 26 -16 29 3 3 -2 8 -11 12 -9 3 -16 10 -16 15 0 5 -18 32 -40
61 -22 29 -40 59 -40 66 0 6 -5 12 -11 12 -5 0 -8 4 -5 9 4 5 2 11 -2 13 -14
5 -152 256 -162 293 -2 6 -10 26 -18 45 -24 57 -92 252 -103 295 -16 64 -40
168 -43 190 -2 11 -7 36 -11 55 -35 178 -39 630 -6 747 4 15 7 36 5 46 -1 9 2
17 7 17 6 0 7 4 4 10 -3 5 -1 27 4 47 6 21 13 53 16 72 3 19 8 37 10 41 2 3 6
17 9 31 2 13 14 53 25 88 11 36 18 68 15 73 -3 4 -1 8 4 8 5 0 19 29 31 65 35
107 147 336 219 446 9 15 28 45 41 68 14 22 28 41 33 41 4 0 8 6 8 14 0 8 3
16 8 18 4 2 27 30 52 63 68 90 85 108 221 244 69 70 164 155 210 189 46 35 92
69 101 77 49 40 225 143 347 202 76 38 142 69 147 71 5 1 68 23 140 47 160 55
349 99 469 110 17 2 30 4 30 5 0 5 113 11 273 14 94 1 172 0 172 -3 0 -3 24
-7 53 -7 77 -2 146 -10 252 -30 17 -3 44 -7 60 -10 53 -9 103 -22 190 -48 33
-10 65 -19 70 -21 6 -1 19 -5 30 -10 175 -67 217 -85 227 -100 4 -5 8 -7 8 -3
0 8 77 -32 122 -63 14 -11 29 -19 33 -19 15 0 212 -142 289 -210 79 -68 147
-132 220 -207 79 -81 102 -96 104 -70 0 12 61 175 86 232 7 17 22 55 32 85 10
30 21 57 24 60 3 3 6 12 8 20 5 22 111 302 123 323 5 10 7 22 4 27 -3 4 -1 10
3 12 5 1 25 50 46 108 21 58 44 119 51 135 16 38 59 148 61 155 1 7 13 39 26
70 6 14 16 42 24 63 l13 37 -77 60 c-42 33 -81 64 -87 68 -46 34 -198 132
-205 132 -6 0 -10 4 -10 9 0 5 -8 11 -17 14 -10 4 -36 18 -58 31 -22 14 -49
30 -60 36 -11 5 -27 14 -35 18 -66 37 -243 124 -290 142 -19 7 -39 17 -44 22
-6 4 -18 8 -28 8 -10 0 -18 5 -18 11 0 5 -4 8 -9 5 -4 -3 -26 3 -47 13 -39 19
-305 107 -347 115 -12 2 -29 7 -37 10 -8 3 -26 8 -40 10 -14 3 -45 10 -70 16
-55 14 -184 39 -225 44 -16 2 -30 5 -30 6 0 1 -13 3 -30 4 -112 11 -163 17
-185 22 -26 6 -595 15 -601 10z"/>
<path d="M7439 3746 c-2 -2 -24 -7 -49 -10 -63 -8 -176 -41 -235 -67 -28 -12
-56 -23 -63 -25 -8 -1 -21 -9 -30 -16 -10 -7 -33 -22 -52 -33 -19 -10 -39 -23
-45 -27 -106 -84 -137 -111 -187 -164 -33 -34 -74 -82 -91 -106 -17 -23 -37
-49 -44 -56 -7 -7 -13 -17 -13 -22 0 -5 -6 -15 -13 -22 -6 -7 -35 -57 -62
-110 -28 -54 -57 -100 -66 -103 -9 -3 -42 -30 -73 -60 -97 -94 -166 -223 -192
-360 -2 -11 -6 -31 -9 -45 -7 -32 -7 -187 0 -220 2 -14 7 -38 11 -55 16 -85
73 -211 124 -275 45 -57 118 -128 140 -135 9 -3 36 -45 60 -93 120 -241 300
-433 521 -555 52 -28 217 -87 264 -94 16 -2 46 -8 65 -14 36 -9 1781 -7 1810
2 45 15 58 19 84 23 46 8 151 45 216 77 33 16 63 29 66 29 2 0 10 5 17 10 7 6
35 25 62 42 28 18 52 35 55 38 3 3 31 27 63 54 50 41 113 109 189 204 9 11 14
23 11 26 -4 3 -2 6 4 6 5 0 18 18 29 40 10 22 22 40 25 40 4 0 10 12 14 28 3
15 12 34 19 42 7 8 19 36 26 61 9 31 33 67 77 115 160 175 220 414 168 675
-18 94 -100 239 -184 328 -28 29 -51 59 -51 65 0 22 -85 181 -138 259 -48 70
-130 167 -175 206 -10 9 -34 31 -54 49 -74 67 -269 180 -342 197 -9 3 -34 9
-56 15 -139 38 -149 39 -1031 39 -474 0 -863 -1 -865 -3z m1706 -450 c22 -2
40 -5 40 -6 0 -1 9 -3 19 -5 232 -43 479 -260 521 -455 1 -8 8 -33 13 -55 19
-72 30 -137 37 -222 2 -29 6 -57 9 -62 4 -5 2 -12 -4 -16 -6 -4 -7 -11 -4 -17
11 -17 10 -98 -1 -98 -7 0 -7 -3 0 -8 12 -9 18 -32 8 -32 -5 0 -8 -17 -9 -38
0 -33 -7 -94 -18 -162 -2 -14 -9 -45 -15 -70 -7 -25 -14 -56 -17 -70 -7 -32
-56 -131 -77 -156 -38 -44 -136 -141 -168 -167 -33 -26 -189 -111 -189 -102 0
2 -16 -3 -36 -11 -20 -8 -61 -17 -92 -19 -32 -2 -58 -5 -59 -6 -13 -7 -243 -2
-243 6 0 6 -3 6 -8 0 -6 -9 -175 -13 -192 -5 -3 1 -9 1 -15 0 -30 -9 -265 -4
-265 5 0 6 -3 6 -8 0 -6 -9 -175 -13 -192 -5 -3 1 -9 1 -15 0 -30 -9 -285 -4
-285 5 0 6 -3 6 -8 -1 -8 -12 -140 -12 -159 -1 -7 5 -13 4 -13 0 0 -9 -178 -8
-255 2 -181 24 -363 139 -481 306 -60 84 -132 235 -150 314 -2 11 -7 31 -10
45 -3 14 -6 34 -8 45 -1 11 -4 25 -8 30 -3 6 -4 78 -2 160 5 169 7 195 15 195
3 0 6 6 6 13 0 22 34 128 58 184 33 73 114 203 128 203 6 0 7 3 4 7 -7 7 129
143 143 143 5 0 15 7 23 15 21 20 153 80 208 93 25 6 70 14 100 18 30 3 55 7
56 8 4 3 1584 -4 1618 -8z"/>
<path d="M7438 3060 c-58 -18 -108 -48 -143 -87 -39 -42 -55 -63 -55 -72 0 -5
-7 -14 -15 -21 -8 -6 -14 -15 -13 -18 1 -4 -6 -25 -15 -46 -18 -41 -27 -80
-31 -132 -1 -16 -5 -35 -9 -41 -4 -5 -3 -13 0 -17 4 -4 8 -24 9 -44 1 -20 3
-38 4 -39 1 -2 4 -12 5 -23 1 -11 4 -22 5 -25 1 -3 3 -8 4 -12 14 -58 74 -156
124 -201 34 -30 92 -67 117 -72 6 -1 21 -7 34 -12 27 -10 111 -12 151 -4 51
11 126 52 172 94 46 44 110 151 122 207 3 17 9 41 12 55 7 37 7 130 0 170 -49
259 -259 408 -478 340z m167 -347 c14 -14 26 -31 26 -37 12 -100 -24 -157 -96
-150 -57 5 -84 43 -81 112 1 48 6 58 34 82 39 32 79 30 117 -7z"/>
<path d="M8965 3062 c-70 -24 -94 -39 -142 -89 -41 -42 -92 -118 -97 -145 -2
-7 -8 -25 -14 -39 -37 -90 -31 -244 14 -346 8 -17 14 -36 14 -42 0 -6 4 -11
10 -11 5 0 12 -11 16 -24 7 -31 88 -108 146 -140 26 -15 50 -26 53 -26 3 0 6
0 8 -1 35 -11 128 -13 167 -4 41 10 43 11 81 27 61 26 182 163 182 205 0 7 4
13 8 13 4 0 10 17 14 38 5 20 10 44 13 52 7 23 7 181 0 212 -20 89 -82 196
-142 251 -83 74 -227 104 -331 69z m170 -352 c44 -48 23 -156 -34 -179 -88
-36 -153 58 -112 162 22 55 103 65 146 17z"/>
<path d="M7926 2181 c-6 -12 -1 -430 5 -436 4 -3 74 -6 155 -5 155 0 352 0
363 -2 3 0 58 0 122 1 l116 1 -1 223 0 223 -378 0 c-209 0 -381 -2 -382 -5z"/>
</g>
</svg>
