<svg xmlns="http://www.w3.org/2000/svg" width="99.892" height="81.753" viewBox="0 0 99.892 81.753">
  <g id="그룹_61" data-name="그룹 61" transform="translate(-149.199 -840.375)">
    <g id="그룹_60" data-name="그룹 60" transform="translate(149.199 840.375)">
      <g id="safari-pinned-tab" transform="translate(0)">
        <path id="패스_18" data-name="패스 18" d="M30.594-1075.733a4.873,4.873,0,0,1-.751.084c-.4.034-.853.076-1.013.1s-.431.059-.591.076-.464.059-.675.093-.447.068-.523.068-.152.034-.152.076-.025.051-.068.025a3.747,3.747,0,0,0-1.081.169c-.371.068-2.693.684-2.693.709a.467.467,0,0,1-.152.042,1.743,1.743,0,0,0-.3.093,1.846,1.846,0,0,1-.262.085,5.04,5.04,0,0,0-.549.186,6.883,6.883,0,0,1-.853.312c-.11.034-2.161.929-2.414,1.064-.11.059-.27.135-.355.177a30.077,30.077,0,0,0-3.411,2.01c-.059.051-.11.059-.11.025s-.042,0-.093.076-.118.152-.16.152a11.147,11.147,0,0,0-1.351.954c-.068.059-.3.236-.507.4s-.4.312-.422.338-.329.287-.675.591c-.7.608-2.558,2.465-3.081,3.09-.186.219-.388.447-.439.507a.37.37,0,0,0-.11.169.536.536,0,0,1-.152.194,10.257,10.257,0,0,0-.684.853c-.287.4-.574.776-.625.844-.11.135-.38.54-.523.776-.042.076-.262.431-.481.786a4.089,4.089,0,0,0-.405.717c0,.051-.025.085-.059.085s-.144.152-.228.338-.194.338-.236.338a.047.047,0,0,0-.051.059,8.027,8.027,0,0,1-.54,1.207c-.3.625-.675,1.443-.827,1.815s-.3.751-.338.844-.135.355-.211.591-.177.5-.219.591c-.084.186-.65,2.161-.718,2.482-.025.1-.1.447-.169.76s-.152.642-.169.743-.051.3-.076.422-.068.371-.093.532-.059.388-.084.506-.059.4-.084.633-.059.515-.076.625a30.172,30.172,0,0,0-.16,3.554,27.2,27.2,0,0,0,.422,5.234c.093.507.127.709.144.886a.924.924,0,0,0,.084.27.2.2,0,0,1,.017.194c-.025.042-.008.085.042.085s.068.042.042.084a.579.579,0,0,0,.034.363,3.143,3.143,0,0,1,.127.481,31.861,31.861,0,0,0,1.925,5.47.179.179,0,0,1,.068.143,26.818,26.818,0,0,0,1.528,2.963,3.841,3.841,0,0,1,.329.625.085.085,0,0,0,.084.084.08.08,0,0,1,.084.084.524.524,0,0,0,.127.228c.068.084.118.169.11.194s.068.143.169.253a2.211,2.211,0,0,1,.329.464,2.05,2.05,0,0,0,.253.363,2.6,2.6,0,0,1,.262.346,35.842,35.842,0,0,0,4.736,5.158c.2.16.464.388.582.49s.591.472,1.03.8.853.658.912.709a.367.367,0,0,0,.186.11.41.41,0,0,1,.186.1,2.476,2.476,0,0,0,.743.49.083.083,0,0,1,.084.076c0,.042.118.118.253.177s.253.143.253.186.034.051.084.025.084-.009.084.034a.086.086,0,0,0,.076.093,5.436,5.436,0,0,1,.743.389,34.689,34.689,0,0,0,3.149,1.57.457.457,0,0,1,.169.067,34.274,34.274,0,0,0,4.01,1.4c.279.068.642.169.8.211s.388.1.507.118.3.059.422.085c.338.084,1.494.3,1.815.338.228.034.861.118,1.224.169.456.068,1.4.135,2.237.169.422.017.8.034.844.042a.348.348,0,0,0,.127.009c.025-.009.523-.025,1.114-.034.709-.017,1.047.008,1.013.067-.025.042.008.042.076-.008a2.256,2.256,0,0,1,.794-.152c.371-.025.9-.076,1.182-.11s.608-.059.743-.059.228-.025.228-.051a.776.776,0,0,1,.355-.076,1.328,1.328,0,0,0,.447-.076.857.857,0,0,1,.363-.059c.144,0,.27-.017.27-.042s.084-.051.194-.059a3.818,3.818,0,0,0,.4-.059c.118-.025.287-.067.388-.084.363-.076,2.448-.658,2.693-.751a3.09,3.09,0,0,1,.3-.1,5.516,5.516,0,0,0,.633-.211c.093-.042.49-.2.886-.346s1.266-.532,1.942-.852,1.241-.582,1.258-.574.059-.017.084-.059a4.738,4.738,0,0,1,.642-.405c.329-.177.751-.43.945-.565a2.308,2.308,0,0,1,.405-.236,3.914,3.914,0,0,0,.633-.422c.025-.025.405-.287.844-.583s.844-.591.886-.641a6.774,6.774,0,0,1,.532-.422,2.256,2.256,0,0,0,.439-.4.083.083,0,0,1,.084-.068.593.593,0,0,0,.245-.144c.084-.084.473-.439.853-.785a34.657,34.657,0,0,0,2.87-2.955c.16-.2.431-.532.591-.726.54-.642.591-.709.591-.794a.078.078,0,0,1,.068-.085,10.438,10.438,0,0,0,1.148-1.629,2.538,2.538,0,0,1,.4-.549.168.168,0,0,0,.076-.152,2.384,2.384,0,0,1,.3-.574,2.6,2.6,0,0,0,.3-.549.384.384,0,0,1,.11-.194c.135-.144,1.663-3.25,1.663-3.385a3.975,3.975,0,0,1,.169-.431,1.834,1.834,0,0,0,.169-.431,4.118,4.118,0,0,1,.211-.506c.11-.262.2-.5.211-.532a2.411,2.411,0,0,1,.169-.566c.068-.152.591-1.655.87-2.49a.917.917,0,0,1,.169-.346.143.143,0,0,0,.068-.109.116.116,0,0,1,0-.076c0-.008.017-.076.034-.144s.169-.489.338-.928a6.609,6.609,0,0,0,.464-1.4c-.008-.034.025-.084.084-.118a.368.368,0,0,0,.11-.237c.008-.1.034-.185.068-.185s.076-.084.1-.194.127-.414.219-.693a3.2,3.2,0,0,0,.245-.751.17.17,0,0,1,.076-.126,1.479,1.479,0,0,0,.186-.388c.093-.287.692-1.849.895-2.364a1.382,1.382,0,0,0,.084-.236.836.836,0,0,0,.042-.1.873.873,0,0,0,.034-.109c.017-.076.464-1.258.6-1.579.11-.253.574-1.485.6-1.561a.927.927,0,0,1,.076-.211,14.428,14.428,0,0,0,.549-1.536c0-.059.025-.11.068-.11s.11-.16.169-.363.253-.7.414-1.114a6.407,6.407,0,0,0,.3-.869c0-.051.025-.1.059-.1s.059-.051.059-.11a1.779,1.779,0,0,1,.127-.4c.118-.253.228-.532.279-.675.008-.025.042-.1.068-.169.093-.211.658-1.722.684-1.815a2.374,2.374,0,0,1,.16-.363c.084-.144.127-.27.1-.27s.008-.11.084-.253a1.318,1.318,0,0,0,.118-.27c0-.025.135-.413.236-.658a2.082,2.082,0,0,0,.084-.3c.017-.093.068-.186.11-.194a.159.159,0,0,0,.084-.152c0-.211.439-1.232.507-1.157a6.947,6.947,0,0,1,.287.7c.127.346.27.718.312.819.236.574.447,1.148.456,1.207.008.025.076.194.16.38a3.813,3.813,0,0,1,.177.464c.017.068.321.886.684,1.815s.743,1.933.853,2.237.27.7.338.886c.152.447.608,1.621.743,1.942.059.135.177.464.262.718a2.515,2.515,0,0,0,.228.515.145.145,0,0,1,.051.127.9.9,0,0,0,.084.329c.464,1.148,1.3,3.394,1.3,3.478,0,.059.034.11.076.11s.068.067.068.152a.43.43,0,0,0,.068.228,2.289,2.289,0,0,1,.177.422c.059.186.144.43.194.548.169.405.228.549.616,1.562.211.557.405,1.081.422,1.157a1.783,1.783,0,0,0,.127.321,1.689,1.689,0,0,1,.127.338,2.5,2.5,0,0,0,.152.439c.068.152.211.506.312.785s.236.616.3.76.262.692.464,1.224.388,1.047.431,1.139c.11.253,1.106,2.854,1.123,2.955.017.042.068.194.127.338s.211.54.346.886.38.988.54,1.41.3.81.3.836a1.592,1.592,0,0,0,.118.312c.068.152.186.439.262.65s.186.473.236.591.093.245.11.3c.017.076.794,2.144.937,2.49.025.067.059.177.076.236a3.855,3.855,0,0,0,.194.489,1.887,1.887,0,0,1,.177.456.68.68,0,0,0,.076.236c.042.076.2.464.346.861s.3.794.338.886c.093.228.186.49.219.591.059.228,1.224,3.225,1.3,3.351a.861.861,0,0,1,.084.321c0,.092.042.169.1.169s.076.025.042.051.008.169.076.3a1.994,1.994,0,0,1,.16.389c.034.16.945,2.557,1,2.6a16.2,16.2,0,0,0,2.127-.625c.515-.169.954-.312,1-.321s.076-.025.1-.033.068-.026.11-.042.177-.068.312-.127a3.532,3.532,0,0,1,.338-.127,7.088,7.088,0,0,0,1.308-.548c.439-.194.836-.38.886-.406a.467.467,0,0,1,.127-.067c.312-.093.422-.152.422-.211,0-.042.025-.068.068-.059a1.228,1.228,0,0,0,.4-.161,1.621,1.621,0,0,1,.388-.16.49.49,0,0,0,.211-.126,5.943,5.943,0,0,1,.667-.414c.279-.143.667-.38.87-.515a2.187,2.187,0,0,1,.422-.245,1.035,1.035,0,0,0,.245-.16l.186-.161-.3-.785c-.169-.439-.329-.869-.371-.962s-.346-.9-.675-1.773-.642-1.7-.692-1.815c-.135-.313-.329-.836-.363-.954a.9.9,0,0,1-.042-.1c-.008-.025-.025-.068-.042-.11-.017-.076-.127-.355-.211-.566-.042-.093-.245-.625-.447-1.182s-.414-1.089-.447-1.182a.845.845,0,0,1-.051-.236c.008-.034-.017-.059-.068-.059s-.084-.059-.084-.127a13.463,13.463,0,0,0-.743-2.017,6.673,6.673,0,0,1-.3-.869c0-.059-.034-.11-.076-.11s-.068-.051-.068-.118a4.329,4.329,0,0,0-.245-.709,1.757,1.757,0,0,1-.194-.641c.025-.025,0-.051-.051-.051s-.093-.025-.084-.067a29.416,29.416,0,0,0-1.038-2.761.436.436,0,0,1-.076-.261.333.333,0,0,0-.084-.245.1.1,0,0,1-.042-.135c.034-.042.008-.076-.051-.076s-.084-.025-.059-.051a1.76,1.76,0,0,0-.194-.641,6,6,0,0,1-.245-.667,2.081,2.081,0,0,0-.16-.439c-.084-.194-.2-.473-.253-.608s-.135-.371-.186-.507-.11-.27-.118-.295-.042-.1-.068-.169c-.068-.161-.431-1.123-.439-1.182a3.3,3.3,0,0,0-.219-.523.71.71,0,0,1-.076-.228,2.149,2.149,0,0,0-.144-.4c-.076-.186-.144-.346-.152-.372a2.444,2.444,0,0,0-.1-.3,8.036,8.036,0,0,1-.321-.844c-.017-.05-.2-.54-.414-1.1s-.549-1.4-.726-1.874a6.916,6.916,0,0,1-.338-1c0-.068-.034-.127-.084-.127a.1.1,0,0,1-.084-.11,4.252,4.252,0,0,0-.219-.658c-.118-.3-.228-.6-.245-.667-.025-.118-.625-1.672-.794-2.068-.042-.093-.118-.3-.177-.464s-.135-.371-.177-.464-.279-.718-.532-1.393-.507-1.342-.566-1.477a2.941,2.941,0,0,1-.118-.321.866.866,0,0,1-.042-.1c-.008-.025-.025-.068-.042-.11a1.685,1.685,0,0,0-.084-.228c-.034-.093-.16-.414-.27-.717-.211-.557-.414-1.089-.532-1.393-.042-.093-.194-.489-.338-.886s-.3-.793-.329-.886a6.44,6.44,0,0,1-.3-.8c-.008-.025-.076-.186-.152-.371a2.179,2.179,0,0,1-.144-.4,1.647,1.647,0,0,0-.127-.346c-.152-.355-.726-1.832-.76-1.959a2.364,2.364,0,0,0-.127-.346c-.059-.144-.118-.27-.127-.3a6.251,6.251,0,0,0-.253-.718c-.059-.143-.228-.574-.38-.971s-.363-.962-.481-1.266-.262-.684-.321-.844-.253-.658-.431-1.1-.371-1-.456-1.224-.2-.54-.253-.675-.118-.3-.135-.338a2.341,2.341,0,0,0-.127-.338c-.051-.143-.11-.3-.127-.338a4.944,4.944,0,0,0-.186-.506c-.093-.237-.329-.844-.523-1.351s-.363-.937-.371-.945a2.775,2.775,0,0,0-.338-.076c-.177-.025-.405-.068-.507-.085-.245-.05-1.064-.169-1.655-.245a40.863,40.863,0,0,0-7.26-.008c-.118.025-.422.059-.675.093s-.523.059-.591.076c-.2.042-.962.161-1.1.177a4.45,4.45,0,0,0-1.081.287.466.466,0,0,1-.042.177c-.034.067-.236.616-.464,1.224-.9,2.38-1.216,3.216-1.317,3.461-.059.135-.194.5-.3.8a3.379,3.379,0,0,1-.27.625.447.447,0,0,0-.068.211,1.9,1.9,0,0,1-.169.473,2.113,2.113,0,0,0-.169.447.7.7,0,0,1-.076.253c-.084.152-.523,1.266-.557,1.41-.008.042-.068.194-.118.338s-.228.557-.363.928-.329.862-.422,1.1-.262.684-.38,1.013-.253.684-.3.8-.093.228-.1.253c-.034.093-.144.4-.253.675-.262.658-.734,1.908-.751,1.984s-.16.439-.279.718a.687.687,0,0,0-.042.186.051.051,0,0,1-.051.067c-.042,0-.076.051-.076.1,0,.084-.844,2.355-1.165,3.149-.042.093-.076.186-.084.211s-.042.118-.076.211-.219.566-.405,1.056-.388,1.038-.464,1.224-.16.414-.194.507-.144.363-.245.607a2.776,2.776,0,0,0-.177.515c0,.042.177.127.405.186s.557.16.751.22a5.31,5.31,0,0,0,.625.16,2,2,0,0,1,.405.118.566.566,0,0,0,.287.051c.076-.017.144,0,.144.034s.051.067.11.067a7.957,7.957,0,0,1,.777.186c.371.1.945.253,1.266.338s.819.22,1.1.3a6.7,6.7,0,0,0,.675.16,1.353,1.353,0,0,1,.3.085,2.143,2.143,0,0,0,.3.076,1.113,1.113,0,0,1,.321.11c.118.068-.11.093-.861.084-.642-.008-1.021.017-1.021.076s-.025.059-.068,0a3.2,3.2,0,0,0-1-.085,2.417,2.417,0,0,0-.954.085c0,.059-.025.059-.068,0a1.443,1.443,0,0,0-.962,0c-.042.051-.068.042-.068-.025s-.042-.085-.16-.025c-.084.051-.177.067-.2.034a.605.605,0,0,0-.54,0c-.059.042-.11.051-.11.008s-.262-.076-.582-.076-.566.025-.54.059-.051.034-.16,0a.755.755,0,0,0-.49-.017c-.144.051-.338.059-.338.008a3.056,3.056,0,0,0-1.064.025c-.068.025-.118.009-.118-.034s-.11-.042-.253,0-.27.042-.3-.008-.1-.051-.186,0a.449.449,0,0,1-.346-.009c-.236-.084-.236-.084-.447.025a.318.318,0,0,1-.312-.008c-.118-.059-.186-.059-.219,0s-.093.068-.169,0-.16-.068-.3,0c-.118.068-.211.068-.279.008a.2.2,0,0,0-.228-.008.2.2,0,0,1-.228-.008c-.068-.059-.152-.059-.27.008a.324.324,0,0,1-.338,0c-.118-.059-.186-.059-.219,0a.108.108,0,0,1-.152.025c-.135-.085-.312-.11-.312-.042a1.722,1.722,0,0,1-.633.059,1.631,1.631,0,0,1-.633-.068c0-.042-.034-.051-.076-.017-.144.085-.6.11-.6.025,0-.042-.034-.051-.084-.025a1.136,1.136,0,0,1-.726.025c-.025-.042-.084-.042-.144-.008a3.212,3.212,0,0,1-1.241,0c0-.042-.042-.042-.1-.009a16.1,16.1,0,0,1-2.853.009c0-.034-.068-.034-.144,0s-3.655.068-7.935.068-7.8.017-7.8.042c-.034.1-.051,9.505-.025,9.624s1.46.127,12.4.127,12.367.017,12.367.127a13.34,13.34,0,0,1-.844,2c-.11.245-.228.447-.27.447s-.068.059-.068.118a17.662,17.662,0,0,1-2.186,3.385,31.705,31.705,0,0,1-2.777,2.828c-.152.118-.363.287-.464.38s-.422.321-.692.507a3.851,3.851,0,0,0-.574.439.229.229,0,0,1-.152.11,1.087,1.087,0,0,0-.355.186c-.152.11-.346.236-.439.287s-.38.2-.633.346a11.739,11.739,0,0,1-1.1.574c-.025.008-.228.1-.464.2s-.574.253-.76.321-.464.186-.616.253a2.675,2.675,0,0,1-.422.152c-.076.017-.456.127-.836.245a20.393,20.393,0,0,1-2.389.54,2.2,2.2,0,0,0-.338.051,21.176,21.176,0,0,1-2.972.253c-.177.008-.338-.026-.355-.076s-.042-.034-.042.025-.034.093-.068.076a6.3,6.3,0,0,0-.954-.093,15.493,15.493,0,0,1-2.406-.3,25.041,25.041,0,0,1-2.676-.692c-.245-.093-.481-.177-.532-.194a8.24,8.24,0,0,1-1.84-.76c-.549-.253-1-.456-1.021-.447s-.1-.042-.186-.118a3.937,3.937,0,0,0-.54-.338,3.479,3.479,0,0,1-.422-.245c-.025-.025-.329-.236-.675-.464s-.65-.439-.675-.472-.194-.152-.38-.3-.38-.287-.431-.329-.371-.329-.709-.633a16.879,16.879,0,0,1-2.051-2.144c-.152-.177-.355-.413-.456-.515s-.16-.22-.135-.245-.017-.068-.093-.1-.135-.084-.135-.127a2.578,2.578,0,0,0-.338-.515,2.085,2.085,0,0,1-.338-.557.1.1,0,0,0-.093-.1.047.047,0,0,1-.042-.076.071.071,0,0,0-.017-.109,16.6,16.6,0,0,1-1.368-2.474c-.017-.051-.084-.22-.152-.38-.2-.481-.777-2.127-.87-2.491-.135-.54-.338-1.418-.363-1.6-.017-.093-.059-.3-.093-.464a23.281,23.281,0,0,1-.051-6.306,1.11,1.11,0,0,0,.042-.388c-.008-.076.017-.143.059-.143s.059-.034.034-.085a.889.889,0,0,1,.034-.4,6.147,6.147,0,0,0,.135-.608,1.814,1.814,0,0,1,.084-.346,1.307,1.307,0,0,0,.076-.261c.017-.11.118-.448.211-.743a1.87,1.87,0,0,0,.127-.616.039.039,0,0,1,.034-.068,1.393,1.393,0,0,0,.262-.549,21.835,21.835,0,0,1,1.849-3.765c.076-.126.236-.38.346-.574s.236-.346.279-.346.068-.051.068-.118.025-.135.068-.152a4.678,4.678,0,0,0,.439-.532,15.124,15.124,0,0,1,1.866-2.06,19.524,19.524,0,0,1,1.773-1.6c.388-.3.777-.583.853-.65A21.912,21.912,0,0,1,23.5-1062.4c.642-.321,1.2-.583,1.241-.6s.574-.194,1.182-.4a19.322,19.322,0,0,1,3.959-.928,1.2,1.2,0,0,0,.253-.042,16.644,16.644,0,0,1,2.3-.118,12.364,12.364,0,0,1,1.452.025,1.008,1.008,0,0,0,.447.059,12.469,12.469,0,0,1,2.127.254c.144.025.371.059.507.084a12.961,12.961,0,0,1,1.6.405c.279.085.549.16.591.177a1.253,1.253,0,0,1,.253.084c1.477.566,1.832.718,1.916.844.034.042.068.059.068.025a3.445,3.445,0,0,1,1.03.532.841.841,0,0,0,.279.16,18.679,18.679,0,0,1,2.44,1.773c.667.574,1.241,1.114,1.857,1.747.667.684.861.81.878.591,0-.1.515-1.477.726-1.958.059-.143.186-.464.27-.717a3,3,0,0,1,.2-.507.457.457,0,0,0,.068-.169c.042-.186.937-2.549,1.038-2.727a.3.3,0,0,0,.034-.228.071.071,0,0,1,.025-.1,4.39,4.39,0,0,0,.388-.912c.177-.49.371-1,.431-1.139.135-.321.5-1.25.515-1.309a5.044,5.044,0,0,1,.219-.591c.051-.118.135-.355.2-.532l.11-.312-.65-.507c-.355-.278-.684-.54-.734-.574-.388-.287-1.671-1.115-1.731-1.115a.078.078,0,0,1-.084-.076c0-.042-.068-.093-.144-.118a5.2,5.2,0,0,1-.49-.262c-.186-.118-.414-.253-.507-.3s-.228-.118-.3-.152c-.557-.313-2.051-1.047-2.448-1.2a1.455,1.455,0,0,1-.371-.186.489.489,0,0,0-.236-.067c-.084,0-.152-.042-.152-.093a.047.047,0,0,0-.076-.042.771.771,0,0,1-.4-.11c-.329-.16-2.575-.9-2.929-.971a2.069,2.069,0,0,1-.312-.084,1.955,1.955,0,0,0-.338-.085c-.118-.025-.38-.084-.591-.135-.464-.118-1.553-.329-1.9-.372a1.07,1.07,0,0,1-.253-.05.939.939,0,0,0-.253-.034c-.945-.093-1.376-.143-1.562-.186C35.448-1075.7,30.644-1075.776,30.594-1075.733Z" transform="translate(-0.6 1075.746)" fill="#eeeafc"/>
        <path id="패스_19" data-name="패스 19" d="M631.352-374.875a1.726,1.726,0,0,1-.414.084,9.155,9.155,0,0,0-1.984.566c-.236.1-.473.194-.532.211a.679.679,0,0,0-.253.135c-.084.059-.279.186-.439.279s-.329.194-.38.228a12.352,12.352,0,0,0-1.579,1.384,9.718,9.718,0,0,0-.768.895c-.144.194-.312.414-.371.473a.367.367,0,0,0-.11.186.367.367,0,0,1-.11.186,9.506,9.506,0,0,0-.523.929,3.288,3.288,0,0,1-.557.87,3.4,3.4,0,0,0-.616.506A5.783,5.783,0,0,0,621.1-364.9c-.017.093-.051.262-.076.38a9.751,9.751,0,0,0,0,1.857c.017.118.059.321.093.464a6.382,6.382,0,0,0,1.047,2.322,5.147,5.147,0,0,0,1.182,1.14,2.66,2.66,0,0,1,.506.785,10.756,10.756,0,0,0,4.4,4.685,12.214,12.214,0,0,0,2.229.794,3.787,3.787,0,0,1,.549.118c.3.076,15.035.059,15.28-.017a3.7,3.7,0,0,1,.709-.194,9.085,9.085,0,0,0,1.823-.65,4.987,4.987,0,0,1,.557-.245.575.575,0,0,0,.144-.085c.059-.051.3-.211.523-.354s.439-.3.464-.321.262-.228.532-.456a12.078,12.078,0,0,0,1.6-1.722c.076-.093.118-.194.093-.22s-.017-.051.034-.051.152-.152.245-.338a.965.965,0,0,1,.211-.338c.034,0,.084-.1.118-.236a.92.92,0,0,1,.16-.354,1.809,1.809,0,0,0,.22-.515,2.688,2.688,0,0,1,.65-.971,6.364,6.364,0,0,0,1.418-5.7,6.709,6.709,0,0,0-1.553-2.769,2.211,2.211,0,0,1-.431-.549,11.477,11.477,0,0,0-1.165-2.186,11.526,11.526,0,0,0-1.478-1.739c-.084-.076-.287-.262-.456-.414a10.281,10.281,0,0,0-2.887-1.663c-.076-.025-.287-.076-.473-.127-1.173-.321-1.258-.329-8.7-.329C634.653-374.9,631.369-374.891,631.352-374.875Zm14.4,3.8a1.71,1.71,0,0,1,.338.051.59.59,0,0,0,.16.042c1.959.363,4.044,2.2,4.4,3.841.008.068.067.279.109.464a10.205,10.205,0,0,1,.313,1.874,2.287,2.287,0,0,0,.076.523.093.093,0,0,1-.034.135.108.108,0,0,0-.034.143c.093.143.084.827-.008.827-.059,0-.059.025,0,.068.1.076.152.27.067.27-.042,0-.067.143-.076.321a10.3,10.3,0,0,1-.152,1.368c-.017.118-.076.38-.126.591s-.118.473-.144.591a5.474,5.474,0,0,1-.65,1.317,18.476,18.476,0,0,1-1.418,1.41,8.39,8.39,0,0,1-1.6.861.874.874,0,0,0-.3.093,3.057,3.057,0,0,1-.777.16,3.9,3.9,0,0,0-.5.051,10.857,10.857,0,0,1-2.052-.051c0-.051-.025-.051-.068,0a6.02,6.02,0,0,1-1.621.042.31.31,0,0,0-.127,0,10.6,10.6,0,0,1-2.237-.042c0-.051-.025-.051-.068,0a6.023,6.023,0,0,1-1.621.042.309.309,0,0,0-.127,0,12.3,12.3,0,0,1-2.406-.042c0-.051-.025-.051-.067.008a3.111,3.111,0,0,1-1.342.008c-.059-.042-.11-.034-.11,0a9.463,9.463,0,0,1-2.153-.017,6.16,6.16,0,0,1-4.06-2.583,9.57,9.57,0,0,1-1.266-2.651c-.017-.093-.059-.262-.084-.38s-.051-.287-.068-.38a.607.607,0,0,0-.068-.253,10.637,10.637,0,0,1-.017-1.351c.042-1.427.059-1.646.127-1.646.025,0,.051-.051.051-.11a8.1,8.1,0,0,1,.49-1.553,6.764,6.764,0,0,1,1.081-1.714c.05,0,.059-.025.034-.059a5.834,5.834,0,0,1,1.207-1.207.413.413,0,0,0,.194-.127,7.178,7.178,0,0,1,1.756-.785c.211-.051.591-.118.844-.152a3.619,3.619,0,0,0,.473-.068C632.129-371.169,645.467-371.11,645.754-371.076Z" transform="translate(-568.604 434.064)" fill="#eeeafc"/>
        <path id="패스_20" data-name="패스 20" d="M717.831-307.5a2.682,2.682,0,0,0-1.207.735c-.329.354-.464.532-.464.608a.347.347,0,0,1-.127.177c-.067.051-.118.127-.109.152a1.432,1.432,0,0,1-.127.388,3.223,3.223,0,0,0-.262,1.114.958.958,0,0,1-.076.346.127.127,0,0,0,0,.143.874.874,0,0,1,.076.371,1.956,1.956,0,0,0,.034.329.755.755,0,0,1,.042.194,1.1,1.1,0,0,0,.042.211c.009.025.025.068.034.1a4.246,4.246,0,0,0,1.047,1.7,3.19,3.19,0,0,0,.988.608,2.482,2.482,0,0,1,.287.1,3.515,3.515,0,0,0,1.275.034,3.691,3.691,0,0,0,1.452-.794,4.646,4.646,0,0,0,1.03-1.747c.025-.144.076-.346.1-.464a5.843,5.843,0,0,0,0-1.435C721.452-306.82,719.679-308.077,717.831-307.5Zm1.41,2.929a.8.8,0,0,1,.219.312c.1.844-.2,1.325-.811,1.266-.481-.042-.709-.363-.684-.945.009-.405.051-.49.287-.692A.67.67,0,0,1,719.24-304.574Z" transform="translate(-655.091 372.484)" fill="#eeeafc"/>
        <path id="패스_21" data-name="패스 21" d="M871.12-307.534a2.4,2.4,0,0,0-1.2.751,3.929,3.929,0,0,0-.819,1.224,3.334,3.334,0,0,1-.118.329,4.267,4.267,0,0,0,.118,2.921,1.283,1.283,0,0,1,.118.355.087.087,0,0,0,.084.093c.042,0,.1.093.135.2a3.32,3.32,0,0,0,1.232,1.182,2.6,2.6,0,0,0,.447.22.166.166,0,0,1,.068.008,3.941,3.941,0,0,0,1.41.034,3.1,3.1,0,0,0,.684-.228,3.828,3.828,0,0,0,1.536-1.731c0-.059.034-.11.068-.11s.084-.143.118-.321.084-.371.11-.439a9.069,9.069,0,0,0,0-1.79,4.619,4.619,0,0,0-1.2-2.119A3.074,3.074,0,0,0,871.12-307.534Zm1.435,2.972a1.063,1.063,0,0,1-.287,1.511c-.743.3-1.292-.49-.946-1.368A.746.746,0,0,1,872.555-304.563Z" transform="translate(-795.489 372.498)" fill="#eeeafc"/>
        <path id="패스_22" data-name="패스 22" d="M792.352-218.558c-.051.1-.009,3.63.042,3.681a9.015,9.015,0,0,0,1.308.042c1.308,0,2.972,0,3.065.017.025,0,.489,0,1.03-.008l.979-.008-.009-1.883V-218.6h-3.191C793.812-218.6,792.36-218.583,792.352-218.558Z" transform="translate(-725.493 290.959)" fill="#eeeafc"/>
      </g>
    </g>
  </g>
</svg>
