<svg xmlns="http://www.w3.org/2000/svg" width="631.45" height="514.997" viewBox="0 0 631.45 514.997">
  <g id="그룹_72" data-name="그룹 72" transform="translate(-644.275 -239)">
    <path id="빼기_10" data-name="빼기 10" d="M-3737,1310.626a202.492,202.492,0,0,1-40.51-4.084,199.78,199.78,0,0,1-37.729-11.712,200.917,200.917,0,0,1-34.142-18.531,202.306,202.306,0,0,1-29.749-24.545,202.5,202.5,0,0,1-24.544-29.748,200.957,200.957,0,0,1-18.532-34.141,200.436,200.436,0,0,1-11.711-37.732,202.521,202.521,0,0,1-4.083-40.508,202.511,202.511,0,0,1,4.083-40.508,200.279,200.279,0,0,1,11.711-37.731,200.961,200.961,0,0,1,18.532-34.142A202.239,202.239,0,0,1-3879.13,967.5a202.4,202.4,0,0,1,29.749-24.546,200.945,200.945,0,0,1,34.142-18.531,199.943,199.943,0,0,1,37.729-11.711,202.383,202.383,0,0,1,40.51-4.085,202.354,202.354,0,0,1,40.508,4.085,199.983,199.983,0,0,1,37.73,11.711,201,201,0,0,1,34.143,18.531c.781.528,1.57,1.069,2.344,1.609v29.495l-17.8,47.048A130.914,130.914,0,0,0-3737,977.97c-72.041,0-130.651,58.609-130.651,130.649s58.61,130.651,130.651,130.651a130.734,130.734,0,0,0,114.725-68.171v103.591c-.8.557-1.589,1.1-2.344,1.608a201.123,201.123,0,0,1-34.143,18.531,199.783,199.783,0,0,1-37.73,11.712A202.468,202.468,0,0,1-3737,1310.626Zm114.725-158H-3771v-61h148.726v61Z" transform="translate(4582.275 -669.625)" fill="#d7e9fd"/>
    <path id="빼기_11" data-name="빼기 11" d="M-3260.63,1407.5h-81.877l-.11-.05a57.438,57.438,0,0,1-16.927-3.3,60.444,60.444,0,0,1-15.066-7.954,69.163,69.163,0,0,1-22.021-27.05c-10.544-6.384-17.095-18.7-17.095-32.149a39.917,39.917,0,0,1,4.545-18.629,34.885,34.885,0,0,1,11.923-13.131,69.321,69.321,0,0,1,22.54-28.365,60.413,60.413,0,0,1,15.662-8.2,57.331,57.331,0,0,1,17.647-3.162l.034-.013h79.783l0,0a58.64,58.64,0,0,1,35,12.226,67.1,67.1,0,0,1,13.329,13.565,72.858,72.858,0,0,1,9.435,17.294,36.481,36.481,0,0,1,8.815,12.411,39.816,39.816,0,0,1,3.282,16,39.813,39.813,0,0,1-3.454,16.393,36.24,36.24,0,0,1-9.25,12.556,69.712,69.712,0,0,1-22.386,29.494,58.736,58.736,0,0,1-33.77,12.033l-.045.025Zm-89.095-117c-8.814,0-17.1,4.837-23.336,13.621s-9.665,20.46-9.665,32.881,3.432,24.1,9.665,32.881,14.522,13.619,23.336,13.619h97.537l.037-.051c8.479-.56,16.389-5.641,22.272-14.308,5.9-8.692,9.151-20.106,9.151-32.141,0-12.361-3.4-24-9.58-32.765s-14.405-13.643-23.167-13.734Zm69,82h-41v-24h41v24Zm20-24a18.346,18.346,0,0,1-14.14-7.029,26.44,26.44,0,0,1-5.86-16.971,26.447,26.447,0,0,1,5.86-16.971,18.35,18.35,0,0,1,14.14-7.029,18.367,18.367,0,0,1,14.143,7.029,26.472,26.472,0,0,1,5.858,16.971,26.465,26.465,0,0,1-5.858,16.971A18.364,18.364,0,0,1-3260.726,1348.5Zm0-29a5.273,5.273,0,0,0-5,5.5,5.275,5.275,0,0,0,5,5.5,5.275,5.275,0,0,0,5-5.5A5.272,5.272,0,0,0-3260.726,1319.5Zm-81,29a18.357,18.357,0,0,1-14.142-7.029,26.449,26.449,0,0,1-5.858-16.971,26.457,26.457,0,0,1,5.858-16.971,18.36,18.36,0,0,1,14.142-7.029,18.367,18.367,0,0,1,14.143,7.029,26.461,26.461,0,0,1,5.856,16.971,26.454,26.454,0,0,1-5.856,16.971A18.364,18.364,0,0,1-3341.726,1348.5Zm0-29a5.273,5.273,0,0,0-5,5.5,5.275,5.275,0,0,0,5,5.5,5.275,5.275,0,0,0,5-5.5A5.272,5.272,0,0,0-3341.726,1319.5Zm165.553-31.824h0l-23.628-61.454c-23.916-62.2-61.226-159.242-88.965-231.385l-61.9,161.266c-1.727,5.276-3.7,10.537-5.853,15.637a200.936,200.936,0,0,1-18.533,34.141,202.41,202.41,0,0,1-24.543,29.748,202.73,202.73,0,0,1-27.4,22.936V1154.974a130.669,130.669,0,0,0,8.3-18.474h-8.3v-61h83.274l-47.772-13.107,36.694-96.43,23.006-59.934.041.015.009,0c1.044-.2,6.653-1.261,14.568-2.338a240.418,240.418,0,0,1,29.362-2.359c.45,0,.916-.006,1.384-.006a198.524,198.524,0,0,1,26.835,1.98c6.441.9,10.741,1.8,11.538,1.976l.021,0,136.766,353.733-.015.011c-.505.365-3.25,2.324-7.66,5.016a172.823,172.823,0,0,1-19.844,10.4c-15.839,6.991-37.164,13.156-37.377,13.218ZM-3427,957.923h0V928.437c2.968,2.068,5.9,4.232,8.725,6.431Z" transform="translate(4387 -653.503)" fill="#eeeafc"/>
  </g>
</svg>
