<svg id="undraw_reviewed_docs_re_9lmr" xmlns="http://www.w3.org/2000/svg" width="382.185" height="200" viewBox="0 0 382.185 200">
  <g id="Group_14" data-name="Group 14" transform="translate(314.018)">
    <path id="Path_284" data-name="Path 284" d="M986.98,414.011a4.458,4.458,0,0,1-1.178-6.733L981.154,373.3l9.682.476,1.52,33.139a4.482,4.482,0,0,1-5.376,7.094Z" transform="translate(-929.189 -307.669)" fill="#a0616a"/>
    <path id="Path_285" data-name="Path 285" d="M980.546,344.182a1.821,1.821,0,0,1-.739.523l-8.7,3.321a1.828,1.828,0,0,1-2.322-.965l-7.708-17.325a7.238,7.238,0,0,1-.354-5.123,7.04,7.04,0,0,1,5.358-4.8,6.714,6.714,0,0,1,2.893.041,7.013,7.013,0,0,1,5.04,4.381l6.854,18.118A1.832,1.832,0,0,1,980.546,344.182Z" transform="translate(-917.568 -278.975)" fill="#fff"/>
    <path id="Path_286" data-name="Path 286" d="M892.626,624.738H886.61L884.422,601.4l8.2.11Z" transform="translate(-874.994 -431.013)" fill="#a0616a"/>
    <path id="Path_287" data-name="Path 287" d="M870.293,650.551H881.9v7.311H862.981a7.311,7.311,0,0,1,7.311-7.311Z" transform="translate(-862.981 -458.545)" fill="#2f2e41"/>
    <path id="Path_288" data-name="Path 288" d="M955.412,624.876H949.4l-2.864-23.221h8.886Z" transform="translate(-909.789 -431.15)" fill="#a0616a"/>
    <path id="Path_289" data-name="Path 289" d="M933.941,650.551h11.609v7.311H926.635a7.311,7.311,0,0,1,7.311-7.311Z" transform="translate(-898.644 -458.545)" fill="#2f2e41"/>
    <path id="Path_290" data-name="Path 290" d="M919.113,525.666l-9.454-.7a2.212,2.212,0,0,1-2.047-2.1L905.5,479.3a1.719,1.719,0,0,0-3.4-.267l-8.795,42.923a2.212,2.212,0,0,1-2.341,1.759l-8.547-.685a2.21,2.21,0,0,1-2.027-2.378v-.044l7.93-79.294a2.21,2.21,0,0,1,2.674-1.94l30.154,6.55a2.215,2.215,0,0,1,1.738,2.2l-1.4,75.375a2.211,2.211,0,0,1-2.2,2.168A1.078,1.078,0,0,1,919.113,525.666Z" transform="translate(-872.733 -340.203)" fill="#2f2e41"/>
    <circle id="Ellipse_40" data-name="Ellipse 40" cx="12.061" cy="12.061" r="12.061" transform="translate(26.047 3.066)" fill="#a0616a"/>
    <path id="Path_291" data-name="Path 291" d="M902.52,370.332a10.784,10.784,0,0,1-3.581-8.288c0-17.335,15.005-56.066,15.474-57.272.044-.291.44-.417,2.518-1.821s5.08-1.62,8.907-.642a2.2,2.2,0,0,1,1.6,1.63l.712,1.029a1.715,1.715,0,0,0,1,1.182c3.091,1.3,12.913,7.306,9.566,29.9-3.109,20.988-4.371,33.332-4.77,37.667a2.206,2.206,0,0,1-2.005,2c-1.516.134-4.116.317-7.212.317C917.55,376.036,907.7,375.068,902.52,370.332Z" transform="translate(-883.125 -268.716)" fill="#fff"/>
    <path id="Path_292" data-name="Path 292" d="M873.731,395.945a4.458,4.458,0,0,1,2.774-6.247l15.074-30.8,7.775,5.79-17.2,28.365a4.482,4.482,0,0,1-8.422,2.894Z" transform="translate(-868.749 -299.95)" fill="#a0616a"/>
    <path id="Path_293" data-name="Path 293" d="M919.99,337.853a1.818,1.818,0,0,1-.9.023l-9.076-2.091a1.828,1.828,0,0,1-1.39-2.095l3.254-18.679a7.236,7.236,0,0,1,2.56-4.451,7.041,7.041,0,0,1,7.126-1,6.714,6.714,0,0,1,2.38,1.646,7.013,7.013,0,0,1,1.738,6.446l-4.411,18.861A1.832,1.832,0,0,1,919.99,337.853Z" transform="translate(-888.535 -273.214)" fill="#fff"/>
    <path id="Path_294" data-name="Path 294" d="M927.72,257.287a5.2,5.2,0,0,1-1.394-4.609c.42-2.2.668-3.639.715-4.163h0c.16-1.791-1.651-3.242-3.442-3.476-.07-.009-.134-.015-.177-.019.044.044.095.091.134.134.341.32.763.718.668,1.128-.06.247-.286.422-.691.535a5.85,5.85,0,0,1-6.792-2.273,5.413,5.413,0,0,1-1.033-2.258,8.966,8.966,0,0,1,2.673-7.7,9.312,9.312,0,0,1,6.086-3.315,5.347,5.347,0,0,1,5.276,3.228,4.011,4.011,0,0,1,3.121-1.759,7.2,7.2,0,0,1,4.01,1.115,13.36,13.36,0,0,1-4.731,24.876,5.1,5.1,0,0,1-.852.072,4.968,4.968,0,0,1-3.573-1.524Z" transform="translate(-892.435 -231.262)" fill="#2f2e41"/>
  </g>
  <path id="Path_336" data-name="Path 336" d="M459.827,424.234a3.342,3.342,0,0,0-3.056-2.045h-61a3.308,3.308,0,0,0-3.307,3.307v77.173a3.309,3.309,0,0,0,3.307,3.307h61a3.311,3.311,0,0,0,3.307-3.307V425.5a3.248,3.248,0,0,0-.25-1.262Zm-.484,78.435a2.576,2.576,0,0,1-2.572,2.572h-61a2.573,2.573,0,0,1-2.572-2.572V425.5a2.576,2.576,0,0,1,2.572-2.572h61a2.585,2.585,0,0,1,2.388,1.619,2.9,2.9,0,0,1,.1.29,2.554,2.554,0,0,1,.088.668Z" transform="translate(-295.421 -330.602)" fill="#3f3d56"/>
  <path id="Path_337" data-name="Path 337" d="M491.423,459.878H473.048a1.47,1.47,0,1,1,0-2.941h18.374a1.47,1.47,0,1,1,0,2.941Z" transform="translate(-338.884 -353.7)" fill="#3f3d56"/>
  <path id="Path_338" data-name="Path 338" d="M491.423,477.428H473.048a1.471,1.471,0,0,1,0-2.941h18.374a1.471,1.471,0,0,1,0,2.941Z" transform="translate(-338.884 -363.222)" fill="#3f3d56"/>
  <path id="Path_339" data-name="Path 339" d="M434.265,466.763H420.837a1.655,1.655,0,0,1-1.654-1.654V449.263a1.655,1.655,0,0,1,1.654-1.654h13.428a1.655,1.655,0,0,1,1.654,1.654v15.846a1.655,1.655,0,0,1-1.654,1.654Z" transform="translate(-310.556 -348.28)" fill="#5b8def"/>
  <path id="Path_340" data-name="Path 340" d="M461.632,513.364H420.108a1.47,1.47,0,1,1,0-2.941h41.523a1.47,1.47,0,1,1,0,2.941Z" transform="translate(-309.889 -382.72)"/>
  <path id="Path_341" data-name="Path 341" d="M461.632,530.914H420.108a1.47,1.47,0,0,1,0-2.941h41.523a1.47,1.47,0,1,1,0,2.941Z" transform="translate(-309.889 -392.242)"/>
  <path id="Path_342" data-name="Path 342" d="M461.632,548.464H420.108a1.47,1.47,0,0,1,0-2.941h41.523a1.47,1.47,0,1,1,0,2.941Z" transform="translate(-309.889 -401.764)"/>
  <path id="Path_343" data-name="Path 343" d="M461.632,566.014H420.108a1.47,1.47,0,0,1,0-2.941h41.523a1.471,1.471,0,1,1,0,2.941Z" transform="translate(-309.889 -411.286)"/>
  <path id="Path_344" data-name="Path 344" d="M461.632,583.564H420.108a1.47,1.47,0,0,1,0-2.941h41.523a1.471,1.471,0,1,1,0,2.941Z" transform="translate(-309.889 -420.808)"/>
  <path id="Path_349" data-name="Path 349" d="M821.442,667.611h85.747a.44.44,0,1,0,0-.88H821.442a.44.44,0,1,0,0,.88Z" transform="translate(-525.444 -467.611)" fill="#3f3d56"/>
  <circle id="Ellipse_44" data-name="Ellipse 44" cx="14.186" cy="14.186" r="14.186" transform="translate(118.063 38.716)" fill="#5b8def"/>
  <path id="Path_395" data-name="Path 395" d="M462.362,346.2a1.471,1.471,0,0,1-.885-.294l-.016-.012-3.334-2.551a1.482,1.482,0,1,1,1.8-2.351l2.159,1.656,5.1-6.657a1.481,1.481,0,0,1,2.076-.274h0l-.032.044.032-.044a1.482,1.482,0,0,1,.267,2.077l-6,7.827a1.482,1.482,0,0,1-1.179.578Z" transform="translate(-331.412 -287.685)" fill="#fff"/>
  <circle id="Ellipse_46" data-name="Ellipse 46" cx="9.613" cy="9.613" r="9.613" transform="translate(24.375 25.476)" fill="#ccc"/>
  <path id="Path_408" data-name="Path 408" d="M252.975,310.066a1,1,0,0,1-.6-.2l-.011-.008-2.259-1.73a1,1,0,1,1,1.22-1.593l1.464,1.123,3.458-4.51a1,1,0,0,1,1.406-.186h0l-.021.029.021-.028a1,1,0,0,1,.186,1.408l-4.068,5.3a1,1,0,0,1-.8.392Z" transform="translate(-219.94 -270.015)" fill="#fff"/>
  <path id="Path_410" data-name="Path 410" d="M253.191,360.251a2.631,2.631,0,0,0-2.406-1.6h-48a2.6,2.6,0,0,0-2.6,2.6v60.724a2.6,2.6,0,0,0,2.6,2.6h48a2.605,2.605,0,0,0,2.6-2.6V361.243A2.554,2.554,0,0,0,253.191,360.251Zm-.381,61.717a2.027,2.027,0,0,1-2.023,2.023h-48a2.023,2.023,0,0,1-2.023-2.023h0V361.243a2.027,2.027,0,0,1,2.023-2.023h48a2.035,2.035,0,0,1,1.88,1.275,2.221,2.221,0,0,1,.076.229,2,2,0,0,1,.07.523Z" transform="translate(-192.188 -299.243)" fill="#ccc"/>
  <path id="Path_411" data-name="Path 411" d="M278.052,388.3h-14.46a1.157,1.157,0,0,1,0-2.314h14.457a1.157,1.157,0,0,1,0,2.314Z" transform="translate(-227.066 -315.212)" fill="#ccc"/>
  <path id="Path_412" data-name="Path 412" d="M278.052,402.11h-14.46a1.157,1.157,0,1,1,0-2.314h14.457a1.157,1.157,0,0,1,0,2.314Z" transform="translate(-227.066 -322.707)" fill="#ccc"/>
  <path id="Path_413" data-name="Path 413" d="M233.073,393.718H222.513a1.3,1.3,0,0,1-1.3-1.3v-12.47a1.3,1.3,0,0,1,1.3-1.3h10.561a1.3,1.3,0,0,1,1.3,1.3v12.468A1.3,1.3,0,0,1,233.073,393.718Z" transform="translate(-203.966 -311.044)" fill="#ccc"/>
  <path id="Path_414" data-name="Path 414" d="M254.612,430.383H221.936a1.157,1.157,0,1,1,0-2.314h32.675a1.157,1.157,0,1,1,0,2.314Z" transform="translate(-203.728 -338.05)" fill="#ccc"/>
  <path id="Path_415" data-name="Path 415" d="M254.612,444.2H221.936a1.157,1.157,0,0,1,0-2.314h32.675a1.157,1.157,0,0,1,0,2.314Z" transform="translate(-203.728 -345.545)" fill="#ccc"/>
  <path id="Path_416" data-name="Path 416" d="M254.612,458.005H221.936a1.157,1.157,0,1,1,0-2.314h32.675a1.157,1.157,0,0,1,0,2.314Z" transform="translate(-203.728 -353.036)" fill="#ccc"/>
  <path id="Path_417" data-name="Path 417" d="M254.612,471.818H221.936a1.157,1.157,0,1,1,0-2.314h32.675a1.157,1.157,0,0,1,0,2.314Z" transform="translate(-203.728 -360.532)" fill="#ccc"/>
  <path id="Path_418" data-name="Path 418" d="M254.612,485.624H221.936a1.157,1.157,0,0,1,0-2.314h32.675a1.157,1.157,0,1,1,0,2.314Z" transform="translate(-203.728 -368.023)" fill="#ccc"/>
  <path id="Path_419" data-name="Path 419" d="M182.345,508.266h67.469a.346.346,0,1,0,0-.693H182.345a.346.346,0,0,0,0,.693Z" transform="translate(-181.999 -381.23)" fill="#ccc"/>
  <circle id="Ellipse_46-2" data-name="Ellipse 46" cx="9.613" cy="9.613" r="9.613" transform="translate(217.805 25.476)" fill="#ccc"/>
  <path id="Path_408-2" data-name="Path 408" d="M672.974,310.066a1,1,0,0,1-.6-.2l-.011-.008-2.259-1.73a1,1,0,1,1,1.22-1.593l1.464,1.123,3.458-4.51a1,1,0,0,1,1.406-.186h0l-.021.029.021-.028a1,1,0,0,1,.186,1.408l-4.068,5.3a1,1,0,0,1-.8.392Z" transform="translate(-446.556 -270.015)" fill="#fff"/>
  <path id="Path_410-2" data-name="Path 410" d="M673.191,360.251a2.631,2.631,0,0,0-2.406-1.6h-48a2.6,2.6,0,0,0-2.6,2.6v60.724a2.6,2.6,0,0,0,2.6,2.6h48a2.605,2.605,0,0,0,2.6-2.6V361.243a2.554,2.554,0,0,0-.2-.992Zm-.381,61.717a2.027,2.027,0,0,1-2.023,2.023h-48a2.023,2.023,0,0,1-2.023-2.023h0V361.243a2.026,2.026,0,0,1,2.023-2.023h48a2.034,2.034,0,0,1,1.88,1.275,2.242,2.242,0,0,1,.076.229,2,2,0,0,1,.07.523Z" transform="translate(-418.571 -299.243)" fill="#ccc"/>
  <path id="Path_411-2" data-name="Path 411" d="M698.052,388.3h-14.46a1.157,1.157,0,1,1,0-2.314h14.457a1.157,1.157,0,1,1,0,2.314Z" transform="translate(-453.24 -315.212)" fill="#ccc"/>
  <path id="Path_412-2" data-name="Path 412" d="M698.052,402.11h-14.46a1.157,1.157,0,1,1,0-2.314h14.457a1.157,1.157,0,1,1,0,2.314Z" transform="translate(-453.24 -322.707)" fill="#ccc"/>
  <path id="Path_413-2" data-name="Path 413" d="M653.073,393.718H642.513a1.3,1.3,0,0,1-1.3-1.3v-12.47a1.3,1.3,0,0,1,1.3-1.3h10.561a1.3,1.3,0,0,1,1.3,1.3v12.468A1.3,1.3,0,0,1,653.073,393.718Z" transform="translate(-430.978 -311.044)" fill="#ccc"/>
  <path id="Path_414-2" data-name="Path 414" d="M674.612,430.383H641.937a1.157,1.157,0,1,1,0-2.314h32.675a1.157,1.157,0,0,1,0,2.314Z" transform="translate(-430.203 -338.05)" fill="#ccc"/>
  <path id="Path_415-2" data-name="Path 415" d="M674.612,444.2H641.937a1.157,1.157,0,0,1,0-2.314h32.675a1.157,1.157,0,0,1,0,2.314Z" transform="translate(-430.203 -345.545)" fill="#ccc"/>
  <path id="Path_416-2" data-name="Path 416" d="M674.612,458.005H641.937a1.157,1.157,0,1,1,0-2.314h32.675a1.157,1.157,0,0,1,0,2.314Z" transform="translate(-430.203 -353.036)" fill="#ccc"/>
  <path id="Path_417-2" data-name="Path 417" d="M674.612,471.818H641.937a1.157,1.157,0,1,1,0-2.314h32.675a1.157,1.157,0,0,1,0,2.314Z" transform="translate(-430.203 -360.532)" fill="#ccc"/>
  <path id="Path_418-2" data-name="Path 418" d="M674.612,485.624H641.937a1.157,1.157,0,0,1,0-2.314h32.675a1.157,1.157,0,0,1,0,2.314Z" transform="translate(-430.203 -368.023)" fill="#ccc"/>
  <path id="Path_419-2" data-name="Path 419" d="M602.345,508.266h67.469a.346.346,0,0,0,0-.693H602.345a.346.346,0,0,0,0,.693Z" transform="translate(-408.326 -381.23)" fill="#ccc"/>
  <path id="Path_420" data-name="Path 420" d="M370.442,612.208h85.747a.44.44,0,1,0,0-.88H370.442a.44.44,0,0,0,0,.88Z" transform="translate(-283.045 -436.569)" fill="#3f3d56"/>
</svg>
