<svg xmlns="http://www.w3.org/2000/svg" width="312.928" height="200" viewBox="0 0 312.928 200">
  <g id="그룹_46" data-name="그룹 46" transform="translate(-473.596 -359.076)">
    <g id="undraw_web_developer_re_h7ie" transform="translate(473.596 359.076)">
      <rect id="Rectangle_62" data-name="Rectangle 62" width="203.024" height="90.879" transform="translate(109.904 4.024)" fill="#e6e6e6"/>
      <rect id="Rectangle_75" data-name="Rectangle 75" width="196.234" height="81.922" transform="translate(114.102 9.001)" fill="#fff"/>
      <rect id="Rectangle_80" data-name="Rectangle 80" width="202.098" height="6.236" transform="translate(109.842 0)" fill="#5b8def"/>
      <circle id="Ellipse_90" data-name="Ellipse 90" cx="1.156" cy="1.156" r="1.156" transform="translate(105.44 1.515)" fill="#fff"/>
      <circle id="Ellipse_91" data-name="Ellipse 91" cx="1.156" cy="1.156" r="1.156" transform="translate(110.002 1.515)" fill="#fff"/>
      <circle id="Ellipse_92" data-name="Ellipse 92" cx="1.156" cy="1.156" r="1.156" transform="translate(114.564 1.515)" fill="#fff"/>
      <rect id="사각형_136" data-name="사각형 136" width="20.065" height="58.837" transform="translate(122.998 17.703)" fill="#e6e6e6"/>
      <rect id="사각형_137" data-name="사각형 137" width="46.408" height="10.819" transform="translate(152.544 17.703)" fill="#5b8def"/>
      <rect id="사각형_138" data-name="사각형 138" width="46.408" height="11.641" transform="translate(152.544 34.846)" fill="#e6e6e6"/>
      <rect id="사각형_139" data-name="사각형 139" width="46.408" height="10.819" transform="translate(152.544 52.088)" fill="#e6e6e6"/>
      <path id="패스_421" data-name="패스 421" d="M353.685,444.458a5.656,5.656,0,0,0-6.265-5.655,5.444,5.444,0,0,0-.743.137l-19.142-16.408,1.144-6.166-9.435-3.058L316.4,423.19a5.731,5.731,0,0,0,2.431,6.4l23.548,14.894a5.388,5.388,0,0,0,.029.555,5.656,5.656,0,0,0,6.867,4.908,5.488,5.488,0,0,0,.666-.192,5.673,5.673,0,0,0,3.744-5.292Z" transform="translate(-283.656 -325.116)" fill="#9f616a"/>
      <path id="패스_422" data-name="패스 422" d="M270.453,571.807h24.68c0,.709,25.436,1.285,25.436,1.285a6.608,6.608,0,0,1,1.085,1.028,6.38,6.38,0,0,1,1.491,4.113v1.028a6.428,6.428,0,0,1-6.426,6.426H270.453a6.431,6.431,0,0,1-6.426-6.426v-1.028A6.435,6.435,0,0,1,270.453,571.807Z" transform="translate(-248.013 -431.82)" fill="#3f3d56"/>
      <rect id="사각형_140" data-name="사각형 140" width="6.683" height="43.182" transform="translate(42.604 155.501)" fill="#3f3d56"/>
      <path id="패스_423" data-name="패스 423" d="M331.55,737.353c0,.809-10.127.313-22.619.313s-22.619.5-22.619-.313,10.127-7.22,22.619-7.22S331.55,736.545,331.55,737.353Z" transform="translate(-263.243 -538.133)" fill="#3f3d56"/>
      <path id="패스_424" data-name="패스 424" d="M196.7,554.629h6.3l3-16.346h-9.3Z" transform="translate(-131.883 -361.241)" fill="#9f616a"/>
      <path id="패스_425" data-name="패스 425" d="M405.071,736.18h20.321v-.257a7.91,7.91,0,0,0-7.909-7.91H405.071Z" transform="translate(-341.826 -536.683)" fill="#2f2e41"/>
      <path id="패스_426" data-name="패스 426" d="M343.444,576.98,356.008,548.8a10.326,10.326,0,0,0-4.533-13.255l-27.253-14.614-12.436-1.058-11.471-1.043-.083.14a11.611,11.611,0,0,0-.9,9.11c1.265,3.543,4.554,6.311,9.777,8.226,12.191,4.47,26.274,8.29,31.762,9.725a1.774,1.774,0,0,1,1.137.9,1.8,1.8,0,0,1,.1,1.439l-11.673,26.225a2.313,2.313,0,0,0,1.958,3.1l8.722.635q.111.01.221.01A2.312,2.312,0,0,0,343.444,576.98Z" transform="translate(-271.743 -393.729)" fill="#fff"/>
      <path id="패스_427" data-name="패스 427" d="M183.714,554.629h6.3l3-16.346h-9.3Z" transform="translate(-123.174 -361.241)" fill="#9f616a"/>
      <path id="패스_428" data-name="패스 428" d="M392.081,736.18H412.4v-.257a7.91,7.91,0,0,0-7.91-7.91H392.081Z" transform="translate(-333.123 -536.684)" fill="#2f2e41"/>
      <path id="패스_429" data-name="패스 429" d="M334.378,582.153l12.564-28.175a10.326,10.326,0,0,0-4.533-13.255l-27.253-14.614-12.436-1.058-8.985-.779v-.123a11.611,11.611,0,0,0-.905,9.11c1.265,3.543,1.984,6.311,7.207,8.226,12.191,4.47,26.274,8.29,31.762,9.725a1.774,1.774,0,0,1,1.137.9,1.8,1.8,0,0,1,.1,1.439l-11.673,26.225a2.313,2.313,0,0,0,1.958,3.1l8.722.635q.111.011.221.011a2.312,2.312,0,0,0,2.111-1.371Z" transform="translate(-267.305 -397.36)" fill="#fff"/>
      <path id="패스_430" data-name="패스 430" d="M300.1,432.405c.6-.426,9.253,4.113,10.8.514-7.2-17.992-2.238-25.762-6.646-36.08a12.847,12.847,0,0,0-8.516-7.289l-11.438-.577-.059.029a13.368,13.368,0,0,0-7.31,14.182c.041,11.229,6.759,19.793,4.41,27.938a2.633,2.633,0,0,0,.249,2.048,2.511,2.511,0,0,0,1.6,1.187l15.1-2.015a2.552,2.552,0,0,0,2.065-.4Z" transform="translate(-256.709 -308.642)" fill="#2f2e41"/>
      <circle id="타원_59" data-name="타원 59" cx="12.626" cy="12.626" r="12.626" transform="translate(18.782 48.982)" fill="#9f616a"/>
      <path id="패스_431" data-name="패스 431" d="M275.419,311.515c.671.294,2.045-5.052,1.429-6.121-.915-1.59-.861-1.579-1.469-2.63a3.05,3.05,0,0,1,.043-3.417c.787-.926,2.607-.8,2.966.358-.231-2.2,1.949-3.976,4.109-4.474s4.438-.189,6.609-.632c2.52-.514,5.142-2.627,4.137-5.4a3.9,3.9,0,0,0-.761-1.251,9.629,9.629,0,0,0-4.376-2.4c-3.305-1.122-6.7-2.258-10.19-2.134a14.8,14.8,0,0,0-13.081,9.566,13.452,13.452,0,0,0-.557,2.069,13.877,13.877,0,0,0,8.614,15.241Z" transform="translate(-248.033 -238.461)" fill="#2f2e41"/>
      <path id="패스_432" data-name="패스 432" d="M484.394,435.384l1.448,8.6a.529.529,0,0,1-.031.284l-11.359,28.383a.529.529,0,0,1-1.02-.174l-.481-11.406a.529.529,0,0,1,.038-.222l10.393-25.574a.529.529,0,0,1,1.012.111Z" transform="translate(-387.392 -339.528)" fill="#3f3d56"/>
      <path id="패스_433" data-name="패스 433" d="M271.5,293.823l1.376,7.386-10.08,25.9-1.309-8.332Z" transform="translate(-175.293 -197.389)" fill="#5b8def"/>
      <path id="패스_434" data-name="패스 434" d="M367.23,522.466c.248.968,32.811,2.016,33.149,1.723a6.862,6.862,0,0,0,.783-1.212c.341-.609.657-1.221.657-1.221l-.535-10.3-32.077-3.428s-1.419,8.594-1.865,12.542A9.488,9.488,0,0,0,367.23,522.466Z" transform="translate(-316.358 -389.033)" fill="#3f3d56"/>
      <path id="패스_435" data-name="패스 435" d="M217.494,375.621l0,8.872-14.187-1.009.628-8.828Z" transform="translate(-136.267 -252.129)" opacity="0.1"/>
      <path id="패스_436" data-name="패스 436" d="M171.441,381.3l.086-.011-.67,3.772-7.882-.56.269-3.784Z" transform="translate(-111.38 -256.336)" opacity="0.1"/>
      <path id="패스_437" data-name="패스 437" d="M367.23,549.541c.248.968,32.811,2.016,33.149,1.723a6.861,6.861,0,0,0,.783-1.212l-33.82-2.4A9.487,9.487,0,0,0,367.23,549.541Z" transform="translate(-316.363 -415.929)" opacity="0.1"/>
      <path id="패스_438" data-name="패스 438" d="M313.928,470.7l27.468,5.126a5.436,5.436,0,0,0,.232.5,5.669,5.669,0,0,0,3.638,2.841,5.655,5.655,0,1,0-1.291-10.485,5.439,5.439,0,0,0-.639.4l-23.858-8.15-1.221-6.151-9.9.655,1.025,10.311A5.625,5.625,0,0,0,313.928,470.7Z" transform="translate(-278.311 -353.166)" fill="#9f616a"/>
      <path id="패스_439" data-name="패스 439" d="M307.005,432.07l14.38-4.726-3.354-9.631a5.741,5.741,0,0,0-6.366-3.775h0a5.741,5.741,0,0,0-4.8,5.727Z" transform="translate(-277.291 -325.923)" fill="#2f2e41"/>
      <path id="패스_440" data-name="패스 440" d="M334.379,754.035H213.76a.317.317,0,1,1,0-.633H334.379a.317.317,0,1,1,0,.633Z" transform="translate(-213.443 -554.035)" fill="#cbcbcb"/>
      <rect id="사각형_141" data-name="사각형 141" width="46.408" height="10.819" transform="translate(152.544 68.481)" fill="#e6e6e6"/>
    </g>
    <path id="패스_417" data-name="패스 417" d="M591.2,255.07a1.049,1.049,0,0,1-.938-.573,12.363,12.363,0,0,0-7.335-6.176,14.033,14.033,0,0,0-1.966-.445l-.135-.021,7-21.873.118,0c13.592,3.693,21.368,14.586,23.427,17.837a1.051,1.051,0,0,1-.42,1.5l-19.274,9.633A1.054,1.054,0,0,1,591.2,255.07Z" transform="translate(151.844 152.083)" fill="#e6e6e6"/>
    <ellipse id="타원_58" data-name="타원 58" cx="1.871" cy="1.871" rx="1.871" ry="1.871" transform="translate(729.437 409.532)" fill="#3f3d56"/>
    <path id="패스_418" data-name="패스 418" d="M455.066,251a1.051,1.051,0,0,1-.491-.123L435.413,240.77a1.052,1.052,0,0,1-.407-1.479,42.477,42.477,0,0,1,9.585-10.75,34.938,34.938,0,0,1,22.372-7.832,35.513,35.513,0,0,1,9.134,1.237l.118.032-7,21.872-.1-.015a15.6,15.6,0,0,0-1.9-.169,11.577,11.577,0,0,0-11.2,6.741,1.032,1.032,0,0,1-.613.54A1.058,1.058,0,0,1,455.066,251Z" transform="translate(261.545 156.124)" fill="#5b8def"/>
    <path id="패스_419" data-name="패스 419" d="M588.413,226.483l-4.948,22.11a14.122,14.122,0,0,0-1.983-.449l6.928-21.661Z" transform="translate(151.342 151.7)" fill="#3f3d56"/>
    <path id="Path_340" data-name="Path 340" d="M471.326,513.146H420.44a1.415,1.415,0,1,1,0-2.723h50.886a1.415,1.415,0,1,1,0,2.723Z" transform="translate(285.424 -89.438)" fill="#e6e6e6"/>
    <path id="Path_341" data-name="Path 341" d="M471.326,530.7H420.44a1.416,1.416,0,1,1,0-2.723h50.886a1.415,1.415,0,1,1,0,2.723Z" transform="translate(285.424 -99.555)" fill="#e6e6e6"/>
    <path id="Path_342" data-name="Path 342" d="M471.326,548.246H420.44a1.415,1.415,0,1,1,0-2.723h50.886a1.415,1.415,0,1,1,0,2.723Z" transform="translate(285.424 -109.671)" fill="#e6e6e6"/>
  </g>
</svg>
