<svg xmlns="http://www.w3.org/2000/svg" width="38" height="38" viewBox="0 0 38 38">
  <g id="그룹_73" data-name="그룹 73" transform="translate(-23 -31)">
    <circle id="타원_74" data-name="타원 74" cx="19" cy="19" r="19" transform="translate(23 31)" fill="#fff"/>
    <path id="패스_96" data-name="패스 96" d="M25.563,24.634l7.48-7.645a.97.97,0,0,1,1.377,0l7.48,7.654a1.94,1.94,0,0,1,.563,1.389v8.128a1.94,1.94,0,0,1-1.833,1.94h-13.8A1.94,1.94,0,0,1,25,34.161V26.03A2.008,2.008,0,0,1,25.563,24.634Zm10.109,9.527V28.34H31.791v5.821Zm-8.731,0h2.91V27.369a.97.97,0,0,1,.97-.97h5.821a.97.97,0,0,1,.97.97v6.791H40.52V25.992l-6.789-6.936L26.94,26.03Z" transform="translate(7.989 23.621)"/>
  </g>
</svg>
