<svg xmlns="http://www.w3.org/2000/svg" width="100" height="81.841" viewBox="0 0 100 81.841">
  <g id="safari-pinned-tab" transform="translate(-0.6 1075.746)">
    <g id="그룹_59" data-name="그룹 59" transform="translate(0.6 -1075.746)">
      <path id="패스_18" data-name="패스 18" d="M30.626-1075.733a4.891,4.891,0,0,1-.752.084c-.4.034-.854.076-1.014.1s-.431.059-.592.076-.465.059-.676.093-.448.068-.524.068-.152.033-.152.076-.025.051-.068.025a3.746,3.746,0,0,0-1.082.169c-.372.068-2.7.685-2.7.71a.465.465,0,0,1-.152.042,1.746,1.746,0,0,0-.3.093,1.792,1.792,0,0,1-.262.085,4.979,4.979,0,0,0-.549.186,6.869,6.869,0,0,1-.854.312c-.11.034-2.163.93-2.417,1.065-.11.059-.27.135-.355.177a30.134,30.134,0,0,0-3.414,2.012c-.059.051-.11.059-.11.026s-.042,0-.093.076-.118.152-.161.152a11.164,11.164,0,0,0-1.352.955c-.068.059-.3.237-.507.4s-.4.313-.423.338-.33.287-.676.592c-.7.608-2.561,2.468-3.085,3.093-.186.22-.389.448-.439.507a.371.371,0,0,0-.11.169.541.541,0,0,1-.152.194,10.29,10.29,0,0,0-.685.854c-.287.4-.575.777-.625.845-.11.135-.38.541-.524.777-.042.076-.262.431-.482.786a4.082,4.082,0,0,0-.406.718c0,.051-.025.085-.059.085s-.144.152-.228.338-.194.338-.237.338a.048.048,0,0,0-.051.059,8.024,8.024,0,0,1-.541,1.208c-.3.625-.676,1.445-.828,1.817s-.3.752-.338.845-.135.355-.211.592-.177.5-.22.591c-.085.187-.651,2.164-.718,2.485-.025.1-.1.448-.169.76s-.152.642-.169.744-.051.3-.076.423-.068.371-.093.532-.059.388-.085.507-.059.4-.085.634-.059.515-.076.625a30.2,30.2,0,0,0-.161,3.557,27.233,27.233,0,0,0,.423,5.24c.093.507.127.71.144.887a.924.924,0,0,0,.085.271.2.2,0,0,1,.017.194c-.025.043-.008.085.042.085s.068.042.042.084a.579.579,0,0,0,.034.363,3.148,3.148,0,0,1,.127.481,31.875,31.875,0,0,0,1.927,5.476.18.18,0,0,1,.068.144,26.865,26.865,0,0,0,1.53,2.966,3.863,3.863,0,0,1,.33.625.085.085,0,0,0,.085.084.08.08,0,0,1,.085.084.526.526,0,0,0,.127.228c.068.084.118.169.11.194s.068.144.169.254a2.2,2.2,0,0,1,.33.465,2.047,2.047,0,0,0,.254.364,2.6,2.6,0,0,1,.262.346,35.843,35.843,0,0,0,4.741,5.164c.2.161.465.388.583.491s.592.473,1.031.8.854.659.913.71a.369.369,0,0,0,.186.11.409.409,0,0,1,.186.1,2.477,2.477,0,0,0,.744.49.083.083,0,0,1,.085.076c0,.042.118.119.254.178s.254.143.254.186.034.051.085.025.085-.009.085.034a.086.086,0,0,0,.076.093,5.413,5.413,0,0,1,.744.389,34.855,34.855,0,0,0,3.152,1.572.458.458,0,0,1,.169.067,34.323,34.323,0,0,0,4.014,1.4c.279.068.642.169.8.211s.389.1.507.118.3.059.423.084c.338.084,1.5.3,1.817.338.228.034.862.118,1.225.169.456.068,1.4.135,2.239.169.423.017.8.034.845.042a.354.354,0,0,0,.127.008c.025-.008.524-.025,1.116-.034.71-.017,1.048.009,1.014.068-.025.042.008.042.076-.009a2.264,2.264,0,0,1,.794-.152c.372-.025.9-.076,1.183-.11s.608-.059.744-.059.228-.025.228-.051a.775.775,0,0,1,.355-.076,1.338,1.338,0,0,0,.448-.076.854.854,0,0,1,.363-.059c.144,0,.27-.016.27-.042s.085-.051.194-.059a3.859,3.859,0,0,0,.4-.059c.118-.026.287-.068.389-.084.363-.076,2.451-.659,2.7-.752a3.117,3.117,0,0,1,.3-.1,5.561,5.561,0,0,0,.634-.211c.093-.042.49-.2.887-.347s1.268-.533,1.944-.854,1.242-.583,1.259-.574.059-.017.085-.06a4.8,4.8,0,0,1,.642-.406c.33-.177.752-.431.947-.566a2.281,2.281,0,0,1,.406-.236,3.93,3.93,0,0,0,.634-.423c.025-.026.406-.287.845-.583s.845-.591.887-.642a6.677,6.677,0,0,1,.532-.423,2.253,2.253,0,0,0,.439-.4.083.083,0,0,1,.085-.068.594.594,0,0,0,.245-.144c.085-.084.473-.439.854-.786a34.713,34.713,0,0,0,2.873-2.958c.161-.2.431-.533.592-.726.541-.642.592-.71.592-.794a.078.078,0,0,1,.068-.085,10.442,10.442,0,0,0,1.149-1.631,2.545,2.545,0,0,1,.4-.549.168.168,0,0,0,.076-.152,2.379,2.379,0,0,1,.3-.575,2.6,2.6,0,0,0,.3-.55.386.386,0,0,1,.11-.194c.135-.144,1.665-3.254,1.665-3.388a3.937,3.937,0,0,1,.169-.431,1.83,1.83,0,0,0,.169-.431,4.121,4.121,0,0,1,.211-.507c.11-.262.2-.5.211-.532a2.415,2.415,0,0,1,.169-.566c.068-.152.592-1.657.87-2.493a.921.921,0,0,1,.169-.347.142.142,0,0,0,.068-.109.117.117,0,0,1,0-.076c0-.008.017-.076.034-.144s.169-.49.338-.929a6.613,6.613,0,0,0,.465-1.4c-.008-.034.025-.084.085-.118a.368.368,0,0,0,.11-.237c.008-.1.034-.185.068-.185s.076-.084.1-.195.127-.414.22-.693a3.192,3.192,0,0,0,.245-.752.17.17,0,0,1,.076-.126,1.482,1.482,0,0,0,.186-.389c.093-.287.693-1.851.9-2.366a1.378,1.378,0,0,0,.085-.237.824.824,0,0,0,.042-.1.879.879,0,0,0,.034-.109c.017-.076.465-1.26.6-1.581.11-.253.575-1.487.6-1.563a.932.932,0,0,1,.076-.211,14.468,14.468,0,0,0,.549-1.538c0-.059.025-.11.068-.11s.11-.16.169-.364.254-.7.414-1.116a6.388,6.388,0,0,0,.3-.87c0-.05.025-.1.059-.1s.059-.051.059-.11a1.781,1.781,0,0,1,.127-.4c.118-.253.228-.532.279-.676.008-.025.042-.1.068-.169.093-.211.659-1.724.685-1.816a2.371,2.371,0,0,1,.161-.364c.085-.144.127-.271.1-.271s.008-.109.085-.253a1.321,1.321,0,0,0,.118-.271c0-.025.135-.414.237-.659a2.071,2.071,0,0,0,.085-.3c.017-.093.068-.186.11-.194a.159.159,0,0,0,.085-.152c0-.211.439-1.234.507-1.158a6.942,6.942,0,0,1,.287.7c.127.346.27.719.313.82.237.575.448,1.15.456,1.209.008.025.076.194.161.38a3.814,3.814,0,0,1,.177.465c.017.067.321.887.685,1.817s.744,1.936.854,2.24.27.7.338.887c.152.448.608,1.622.744,1.944.059.135.177.465.262.719a2.511,2.511,0,0,0,.228.515.145.145,0,0,1,.051.127.9.9,0,0,0,.085.329c.465,1.149,1.3,3.4,1.3,3.482,0,.059.034.11.076.11s.068.067.068.152a.428.428,0,0,0,.068.228,2.3,2.3,0,0,1,.177.423c.059.186.144.431.194.549.169.406.228.549.617,1.564.211.558.406,1.082.423,1.158a1.782,1.782,0,0,0,.127.321,1.685,1.685,0,0,1,.127.338,2.508,2.508,0,0,0,.152.44c.068.152.211.507.313.786s.237.617.3.761.262.693.465,1.225.389,1.048.431,1.141c.11.254,1.107,2.857,1.124,2.958.017.042.068.194.127.338s.211.541.346.887.38.989.541,1.412.3.811.3.836a1.6,1.6,0,0,0,.118.313c.068.152.186.439.262.65s.186.473.237.592.093.245.11.3c.017.076.794,2.146.938,2.493.025.067.059.177.076.236a3.828,3.828,0,0,0,.194.49,1.891,1.891,0,0,1,.177.457.681.681,0,0,0,.076.236c.042.076.2.465.346.862s.3.795.338.887c.093.228.186.49.22.592.059.228,1.225,3.228,1.3,3.355a.863.863,0,0,1,.085.321c0,.093.042.169.1.169s.076.025.042.051.008.169.076.3a1.991,1.991,0,0,1,.161.389c.034.16.947,2.56,1,2.6a16.285,16.285,0,0,0,2.13-.625c.515-.169.955-.313,1-.321s.076-.025.1-.033l.11-.043c.034-.008.177-.068.313-.127a3.5,3.5,0,0,1,.338-.127,7.1,7.1,0,0,0,1.31-.549c.439-.194.837-.381.887-.406a.462.462,0,0,1,.127-.067c.313-.094.423-.152.423-.211,0-.042.025-.068.068-.059a1.235,1.235,0,0,0,.4-.161A1.618,1.618,0,0,1,98-1015.9a.49.49,0,0,0,.211-.127,5.929,5.929,0,0,1,.668-.414c.279-.144.668-.38.87-.515a2.194,2.194,0,0,1,.423-.245,1.028,1.028,0,0,0,.245-.161l.186-.161-.3-.786c-.169-.44-.33-.87-.372-.963s-.346-.9-.676-1.775-.642-1.7-.693-1.817c-.135-.313-.33-.837-.363-.955a.892.892,0,0,1-.042-.1c-.008-.025-.025-.068-.042-.11-.017-.076-.127-.356-.211-.567-.042-.093-.245-.625-.448-1.183s-.414-1.091-.448-1.183a.846.846,0,0,1-.051-.237c.008-.034-.017-.059-.068-.059s-.085-.059-.085-.127a13.476,13.476,0,0,0-.744-2.02,6.66,6.66,0,0,1-.3-.87c0-.059-.034-.11-.076-.11s-.068-.051-.068-.118a4.345,4.345,0,0,0-.245-.71,1.758,1.758,0,0,1-.194-.642c.025-.026,0-.051-.051-.051s-.093-.026-.085-.067a29.461,29.461,0,0,0-1.039-2.764.435.435,0,0,1-.076-.261.332.332,0,0,0-.084-.245.1.1,0,0,1-.042-.135c.034-.042.008-.076-.051-.076s-.085-.025-.059-.05a1.763,1.763,0,0,0-.194-.643,5.986,5.986,0,0,1-.245-.668,2.085,2.085,0,0,0-.161-.439c-.085-.194-.2-.473-.254-.609s-.135-.372-.186-.507-.11-.27-.118-.3-.042-.1-.068-.169c-.068-.161-.431-1.124-.439-1.184a3.291,3.291,0,0,0-.22-.523.715.715,0,0,1-.076-.229,2.158,2.158,0,0,0-.144-.4c-.076-.187-.144-.347-.152-.372a2.44,2.44,0,0,0-.1-.3,8.051,8.051,0,0,1-.321-.845c-.017-.05-.2-.541-.414-1.1s-.549-1.4-.727-1.876a6.92,6.92,0,0,1-.338-1c0-.068-.034-.127-.085-.127a.1.1,0,0,1-.085-.109,4.237,4.237,0,0,0-.22-.659c-.118-.3-.228-.6-.245-.667-.025-.119-.625-1.674-.794-2.071-.042-.093-.118-.3-.177-.465s-.135-.372-.177-.465-.279-.719-.532-1.395-.507-1.344-.566-1.479a2.947,2.947,0,0,1-.118-.321.883.883,0,0,1-.042-.1c-.008-.025-.025-.068-.042-.11a1.7,1.7,0,0,0-.085-.228c-.034-.093-.161-.414-.27-.718-.211-.558-.414-1.091-.532-1.395-.042-.094-.194-.49-.338-.887s-.3-.794-.33-.887a6.436,6.436,0,0,1-.3-.8c-.008-.025-.076-.186-.152-.371a2.19,2.19,0,0,1-.144-.4,1.652,1.652,0,0,0-.127-.346c-.152-.355-.727-1.834-.761-1.961a2.338,2.338,0,0,0-.127-.346c-.059-.144-.118-.271-.127-.3a6.259,6.259,0,0,0-.254-.719c-.059-.144-.228-.574-.38-.972s-.363-.963-.482-1.267-.262-.685-.321-.845-.254-.659-.431-1.1-.372-1-.456-1.225-.2-.541-.254-.677-.118-.3-.135-.338a2.343,2.343,0,0,0-.127-.338c-.051-.143-.11-.3-.127-.338a4.943,4.943,0,0,0-.186-.507c-.093-.237-.33-.845-.524-1.353s-.363-.938-.372-.946a2.906,2.906,0,0,0-.338-.076c-.177-.025-.406-.068-.507-.084-.245-.05-1.065-.169-1.656-.245a40.869,40.869,0,0,0-7.268-.008c-.118.025-.423.059-.676.093s-.524.059-.592.076c-.2.042-.963.161-1.1.177a4.44,4.44,0,0,0-1.082.287.469.469,0,0,1-.042.178c-.034.067-.237.617-.465,1.225-.9,2.383-1.217,3.219-1.318,3.465-.059.134-.194.5-.3.8a3.37,3.37,0,0,1-.27.625.448.448,0,0,0-.068.211,1.9,1.9,0,0,1-.169.473,2.108,2.108,0,0,0-.169.448.7.7,0,0,1-.076.254c-.085.152-.524,1.268-.558,1.411-.008.042-.068.194-.118.338s-.228.558-.363.929-.33.863-.423,1.1-.262.685-.38,1.014-.254.684-.3.8-.093.228-.1.254c-.034.093-.144.4-.254.676-.262.659-.735,1.91-.752,1.986s-.161.439-.279.718a.689.689,0,0,0-.042.186.051.051,0,0,1-.051.067c-.042,0-.076.051-.076.1,0,.084-.845,2.358-1.166,3.152-.042.093-.076.186-.085.212s-.042.118-.076.21-.22.566-.406,1.056-.389,1.04-.465,1.226-.161.414-.194.507-.144.363-.245.608a2.78,2.78,0,0,0-.177.516c0,.042.177.127.406.186s.558.16.752.219a5.278,5.278,0,0,0,.625.161,2.009,2.009,0,0,1,.406.118.566.566,0,0,0,.287.051c.076-.017.144,0,.144.034s.051.068.11.068.406.084.777.186.947.253,1.268.338.82.22,1.1.3a6.814,6.814,0,0,0,.676.161,1.336,1.336,0,0,1,.3.085,2.1,2.1,0,0,0,.3.075,1.123,1.123,0,0,1,.321.11c.118.068-.11.093-.862.084-.642-.008-1.023.017-1.023.077s-.025.059-.068,0a3.207,3.207,0,0,0-1.006-.085,2.422,2.422,0,0,0-.955.085c0,.059-.025.059-.068,0a1.443,1.443,0,0,0-.963,0c-.042.051-.068.042-.068-.025s-.042-.085-.161-.025c-.085.051-.177.067-.2.034a.6.6,0,0,0-.541,0c-.059.042-.11.051-.11.008s-.262-.076-.583-.076-.566.026-.541.06-.051.033-.161,0a.755.755,0,0,0-.49-.017c-.144.051-.338.059-.338.008a3.063,3.063,0,0,0-1.065.025c-.068.025-.118.009-.118-.034s-.11-.042-.254,0-.27.042-.3-.008-.1-.052-.186,0a.452.452,0,0,1-.346-.009c-.237-.084-.237-.084-.448.025a.318.318,0,0,1-.313-.008c-.118-.06-.186-.06-.22,0s-.093.068-.169,0-.161-.068-.3,0c-.118.068-.211.068-.279.008a.2.2,0,0,0-.228-.008.2.2,0,0,1-.228-.008c-.068-.06-.152-.06-.27.008a.323.323,0,0,1-.338,0c-.118-.06-.186-.06-.22,0a.108.108,0,0,1-.152.026c-.135-.085-.313-.111-.313-.042a1.724,1.724,0,0,1-.634.059,1.633,1.633,0,0,1-.634-.068c0-.042-.034-.051-.076-.017-.144.085-.6.111-.6.026,0-.043-.034-.051-.085-.026a1.138,1.138,0,0,1-.727.026c-.025-.043-.085-.043-.144-.009a3.214,3.214,0,0,1-1.242,0c0-.042-.042-.042-.1-.009a16.1,16.1,0,0,1-2.856.009c0-.034-.068-.034-.144,0s-3.659.068-7.944.068-7.809.017-7.809.042c-.034.1-.051,9.516-.025,9.634s1.462.126,12.414.126,12.381.017,12.381.127a13.354,13.354,0,0,1-.845,2c-.11.245-.228.448-.27.448s-.068.06-.068.119a17.677,17.677,0,0,1-2.189,3.389,31.664,31.664,0,0,1-2.78,2.83c-.152.119-.363.288-.465.381s-.423.321-.693.507a3.843,3.843,0,0,0-.575.439.23.23,0,0,1-.152.11,1.087,1.087,0,0,0-.355.186c-.152.11-.346.237-.439.287s-.38.2-.634.346a11.792,11.792,0,0,1-1.1.575c-.025.008-.228.1-.465.2s-.575.254-.761.321-.465.186-.617.254a2.707,2.707,0,0,1-.423.152c-.076.017-.456.127-.837.245a20.454,20.454,0,0,1-2.392.541,2.2,2.2,0,0,0-.338.051,21.244,21.244,0,0,1-2.975.254c-.177.009-.338-.026-.355-.077s-.042-.034-.042.026-.034.093-.068.076a6.26,6.26,0,0,0-.955-.093,15.538,15.538,0,0,1-2.409-.3,25,25,0,0,1-2.679-.693c-.245-.093-.482-.177-.532-.194a8.262,8.262,0,0,1-1.842-.761c-.549-.253-1.006-.456-1.023-.448s-.1-.043-.186-.118a3.927,3.927,0,0,0-.541-.338,3.493,3.493,0,0,1-.423-.246c-.025-.025-.33-.236-.676-.465s-.651-.439-.676-.473-.194-.152-.38-.3-.38-.287-.431-.329-.372-.33-.71-.634a16.9,16.9,0,0,1-2.054-2.146c-.152-.177-.355-.414-.456-.515s-.161-.22-.135-.245-.017-.068-.093-.1-.135-.084-.135-.127a2.592,2.592,0,0,0-.338-.515,2.088,2.088,0,0,1-.338-.557.1.1,0,0,0-.093-.1.047.047,0,0,1-.042-.076.071.071,0,0,0-.017-.109,16.614,16.614,0,0,1-1.369-2.476c-.017-.051-.085-.22-.152-.381-.2-.481-.777-2.129-.87-2.493-.135-.541-.338-1.42-.363-1.605-.017-.093-.059-.3-.093-.465a23.306,23.306,0,0,1-.051-6.313,1.113,1.113,0,0,0,.042-.389c-.008-.076.017-.143.059-.143s.059-.034.034-.085a.891.891,0,0,1,.034-.4,6.129,6.129,0,0,0,.135-.608,1.812,1.812,0,0,1,.085-.347,1.314,1.314,0,0,0,.076-.262c.017-.11.118-.448.211-.744a1.873,1.873,0,0,0,.127-.617.039.039,0,0,1,.034-.068,1.4,1.4,0,0,0,.262-.55,21.88,21.88,0,0,1,1.851-3.77c.076-.126.237-.38.346-.574s.237-.347.279-.347.068-.051.068-.119a.165.165,0,0,1,.068-.152,4.664,4.664,0,0,0,.439-.532,15.125,15.125,0,0,1,1.868-2.062,19.483,19.483,0,0,1,1.775-1.6c.389-.3.777-.583.854-.651a21.862,21.862,0,0,1,2.932-1.707c.642-.322,1.2-.583,1.242-.6s.575-.194,1.183-.4a19.385,19.385,0,0,1,3.963-.929,1.212,1.212,0,0,0,.254-.042,16.733,16.733,0,0,1,2.307-.119,12.307,12.307,0,0,1,1.454.026,1.017,1.017,0,0,0,.448.059,12.512,12.512,0,0,1,2.13.254c.144.025.372.059.507.084a12.894,12.894,0,0,1,1.606.406c.279.084.549.16.592.177a1.289,1.289,0,0,1,.254.084c1.479.567,1.834.719,1.918.845.034.042.068.06.068.025a3.454,3.454,0,0,1,1.031.533.842.842,0,0,0,.279.16,18.753,18.753,0,0,1,2.442,1.775c.668.575,1.242,1.116,1.859,1.75.668.684.862.811.879.591,0-.1.516-1.478.727-1.96.059-.144.186-.465.27-.718a3.007,3.007,0,0,1,.2-.508.458.458,0,0,0,.068-.169c.042-.186.938-2.552,1.039-2.729a.3.3,0,0,0,.034-.228.071.071,0,0,1,.025-.1,4.373,4.373,0,0,0,.389-.913c.177-.49.372-1.005.431-1.141.135-.322.5-1.251.516-1.31a5.072,5.072,0,0,1,.22-.591c.051-.118.135-.355.2-.533l.11-.312-.651-.507c-.355-.279-.685-.541-.735-.574-.389-.288-1.673-1.116-1.732-1.116a.078.078,0,0,1-.085-.076c0-.042-.068-.093-.144-.118a5.208,5.208,0,0,1-.49-.262c-.186-.119-.414-.254-.507-.3s-.228-.119-.3-.152c-.558-.313-2.054-1.048-2.451-1.2a1.456,1.456,0,0,1-.372-.186.49.49,0,0,0-.237-.067c-.085,0-.152-.042-.152-.093a.047.047,0,0,0-.076-.042.773.773,0,0,1-.4-.11c-.33-.16-2.578-.9-2.932-.972a2.073,2.073,0,0,1-.313-.084,1.943,1.943,0,0,0-.338-.085c-.118-.025-.38-.084-.592-.135-.465-.118-1.555-.33-1.9-.372a1.045,1.045,0,0,1-.254-.051.939.939,0,0,0-.254-.033c-.947-.093-1.377-.144-1.563-.186C35.485-1075.7,30.677-1075.776,30.626-1075.733Z" transform="translate(-0.6 1075.746)" fill="#d7e9fd"/>
      <path id="패스_19" data-name="패스 19" d="M631.363-374.875a1.731,1.731,0,0,1-.414.085,9.168,9.168,0,0,0-1.986.566c-.236.1-.473.194-.532.211a.68.68,0,0,0-.253.135c-.085.059-.279.186-.44.279s-.329.194-.38.228a12.339,12.339,0,0,0-1.58,1.386,9.719,9.719,0,0,0-.769.9c-.144.194-.313.414-.372.473a.368.368,0,0,0-.11.186.368.368,0,0,1-.11.186,9.516,9.516,0,0,0-.524.93,3.3,3.3,0,0,1-.558.871,3.4,3.4,0,0,0-.617.507,5.787,5.787,0,0,0-1.622,3.042c-.017.093-.051.262-.076.38a9.794,9.794,0,0,0,0,1.859c.017.118.059.321.093.465a6.392,6.392,0,0,0,1.048,2.324,5.153,5.153,0,0,0,1.183,1.141,2.663,2.663,0,0,1,.507.786,10.768,10.768,0,0,0,4.4,4.69,12.227,12.227,0,0,0,2.231.794,3.759,3.759,0,0,1,.549.118c.3.076,15.051.059,15.3-.017a3.7,3.7,0,0,1,.71-.194,9.1,9.1,0,0,0,1.825-.651,4.958,4.958,0,0,1,.558-.245.57.57,0,0,0,.144-.085c.059-.051.3-.211.524-.355s.439-.3.465-.321.262-.228.533-.456a12.115,12.115,0,0,0,1.6-1.724c.076-.093.118-.194.093-.22s-.017-.051.034-.051.152-.152.245-.338a.968.968,0,0,1,.211-.338c.034,0,.085-.1.118-.237a.925.925,0,0,1,.161-.355,1.812,1.812,0,0,0,.22-.516,2.693,2.693,0,0,1,.651-.972,6.37,6.37,0,0,0,1.42-5.7,6.715,6.715,0,0,0-1.555-2.772,2.215,2.215,0,0,1-.431-.549,11.5,11.5,0,0,0-1.166-2.189,11.541,11.541,0,0,0-1.479-1.741c-.085-.076-.287-.262-.456-.414a10.293,10.293,0,0,0-2.89-1.665c-.076-.025-.287-.076-.473-.127-1.175-.321-1.259-.33-8.713-.33C634.668-374.9,631.38-374.891,631.363-374.875Zm14.417,3.8a1.711,1.711,0,0,1,.338.051.588.588,0,0,0,.161.042c1.961.364,4.048,2.2,4.4,3.845.008.068.068.279.11.465a10.214,10.214,0,0,1,.313,1.876,2.3,2.3,0,0,0,.076.524.093.093,0,0,1-.034.135.108.108,0,0,0-.034.144c.093.144.084.828-.009.828-.059,0-.059.025,0,.068.1.076.152.27.068.27-.042,0-.068.144-.076.321a10.3,10.3,0,0,1-.152,1.369c-.017.118-.076.38-.127.592s-.119.473-.144.592a5.476,5.476,0,0,1-.651,1.318,18.526,18.526,0,0,1-1.42,1.411,8.4,8.4,0,0,1-1.6.862.877.877,0,0,0-.3.093,3.058,3.058,0,0,1-.777.161,3.91,3.91,0,0,0-.5.051,10.869,10.869,0,0,1-2.054-.051c0-.051-.025-.051-.068,0a6.035,6.035,0,0,1-1.623.042.308.308,0,0,0-.127,0,10.623,10.623,0,0,1-2.239-.042c0-.051-.026-.051-.068,0a6.034,6.034,0,0,1-1.622.042.309.309,0,0,0-.127,0,12.32,12.32,0,0,1-2.408-.042c0-.051-.025-.051-.068.008a3.113,3.113,0,0,1-1.344.008c-.059-.042-.11-.034-.11,0a9.459,9.459,0,0,1-2.155-.017,6.167,6.167,0,0,1-4.065-2.586,9.574,9.574,0,0,1-1.267-2.654c-.017-.093-.059-.262-.084-.38s-.051-.287-.068-.38a.606.606,0,0,0-.068-.253,10.713,10.713,0,0,1-.017-1.352c.042-1.428.059-1.648.127-1.648.025,0,.051-.051.051-.11a8.113,8.113,0,0,1,.49-1.555,6.775,6.775,0,0,1,1.082-1.716c.051,0,.059-.025.034-.059a5.839,5.839,0,0,1,1.209-1.208.415.415,0,0,0,.194-.127,7.178,7.178,0,0,1,1.758-.786c.211-.051.592-.118.845-.152a3.631,3.631,0,0,0,.473-.068C632.141-371.165,645.493-371.106,645.78-371.072Z" transform="translate(-568.547 434.128)" fill="#d7e9fd"/>
      <path id="패스_20" data-name="패스 20" d="M717.833-307.5a2.686,2.686,0,0,0-1.208.735c-.329.355-.465.533-.465.609a.349.349,0,0,1-.127.177c-.068.051-.118.127-.11.152a1.419,1.419,0,0,1-.127.389,3.229,3.229,0,0,0-.262,1.116.955.955,0,0,1-.076.347.128.128,0,0,0,0,.144.871.871,0,0,1,.076.372,1.968,1.968,0,0,0,.034.33.753.753,0,0,1,.042.194,1.1,1.1,0,0,0,.042.211c.009.025.026.068.034.1a4.252,4.252,0,0,0,1.048,1.7,3.193,3.193,0,0,0,.989.608,2.509,2.509,0,0,1,.288.1,3.518,3.518,0,0,0,1.276.034,3.693,3.693,0,0,0,1.453-.794,4.652,4.652,0,0,0,1.031-1.749c.025-.144.076-.347.1-.465a5.855,5.855,0,0,0,0-1.437C721.459-306.819,719.684-308.078,717.833-307.5Zm1.411,2.933a.8.8,0,0,1,.22.313c.1.845-.2,1.327-.811,1.268-.482-.042-.71-.363-.685-.947.008-.406.051-.49.287-.693A.67.67,0,0,1,719.245-304.571Z" transform="translate(-655.026 372.554)" fill="#d7e9fd"/>
      <path id="패스_21" data-name="패스 21" d="M871.122-307.534a2.4,2.4,0,0,0-1.2.752,3.928,3.928,0,0,0-.82,1.225,3.385,3.385,0,0,1-.118.33,4.271,4.271,0,0,0,.118,2.924,1.284,1.284,0,0,1,.119.355.087.087,0,0,0,.084.093c.042,0,.1.093.135.2a3.326,3.326,0,0,0,1.234,1.183,2.609,2.609,0,0,0,.448.22.166.166,0,0,1,.068.008,3.948,3.948,0,0,0,1.411.034,3.108,3.108,0,0,0,.685-.228,3.832,3.832,0,0,0,1.538-1.733c0-.059.034-.11.068-.11s.084-.144.118-.321.085-.372.11-.44a9.05,9.05,0,0,0,0-1.792,4.623,4.623,0,0,0-1.2-2.121A3.077,3.077,0,0,0,871.122-307.534Zm1.437,2.975a1.065,1.065,0,0,1-.287,1.513c-.744.3-1.293-.49-.947-1.369A.746.746,0,0,1,872.559-304.559Z" transform="translate(-795.411 372.568)" fill="#d7e9fd"/>
      <path id="패스_22" data-name="패스 22" d="M792.352-218.558c-.051.1-.009,3.634.042,3.685a9.015,9.015,0,0,0,1.31.042c1.31,0,2.975,0,3.068.017.025,0,.49,0,1.031-.008l.981-.008-.008-1.885V-218.6h-3.194C793.814-218.6,792.361-218.583,792.352-218.558Z" transform="translate(-725.421 291.037)" fill="#d7e9fd"/>
    </g>
  </g>
</svg>
